<svg viewBox="0 0 65 64" fill="none" xmlns="http://www.w3.org/2000/svg">
    <path
        d="M56.3848 30.5C56.3848 43.4809 45.8871 54 32.9424 54C19.9977 54 9.5 43.4809 9.5 30.5C9.5 17.5191 19.9977 7 32.9424 7C45.8871 7 56.3848 17.5191 56.3848 30.5Z"
        fill="#1A1A27" stroke="white" stroke-width="2" />
    <path
        d="M27.8018 18C32.3018 17.5 33.5705 18 36.0705 18.5C38.5705 19 39.2313 19.5001 42.8017 21.0001C46.3722 22.5 43.4855 19.5001 39.8017 18C36.1179 16.4999 32.9527 16 30.1839 16C27.4151 16 25.3251 16.5001 22.8017 17.0001C20.2783 17.5001 17.5148 19 16.3017 21.0001C15.0887 23.0001 14.3019 26.5 17.5148 28.3865C20.7276 30.273 19.1784 30.1182 20.778 31.2726C22.3777 32.4271 24.2972 33.1967 25.5129 33.3891C26.7287 33.5815 26.6647 34.2229 30.1839 35.5056C33.7031 36.7883 38.31 36.9807 40.4855 37.2373C42.661 37.4938 45.7963 35.5056 46.3722 35.5056C46.9481 35.5056 48.8676 35.249 49.6994 35.249C50.5312 35.249 50.7232 35.5697 51.683 35.249C52.6428 34.9284 53.0267 34.2229 53.0907 33.7739C53.1546 33.3249 52.7707 32.7477 52.0029 32.1705C51.2351 31.5933 51.555 31.2085 50.2753 30.3747C48.9956 29.5409 47.9078 29.0278 45.7963 28.4506C43.6848 27.8734 42.4051 29.0278 41.5733 29.0278C40.7415 29.0278 40.6775 28.1941 39.5257 27.9375C38.374 27.681 37.7981 27.8734 36.0705 27.0396C34.3429 26.2058 33.6391 25.1797 31.9755 24.4742C30.3119 23.7687 27.7524 23.1914 24.2972 23.1914C20.842 23.1914 19.5906 26.2311 18.3018 24.4742C17.0129 22.7173 18.8018 21.5 20.3018 20.5L20.3018 20.5C21.8018 19.5 23.3018 18.5 27.8018 18Z"
        fill="white" stroke="#1A1A27" />
    <path
        d="M18.8584 30.3747C19.3063 30.054 19.4343 27.7451 20.2021 26.7189C22.7615 26.27 26.0888 28.0016 26.6646 29.1561C27.2405 30.3105 26.4727 31.9781 25.8968 32.6836C25.3209 33.3891 22.8895 33.7739 22.6975 33.838C22.5056 33.9022 20.9699 34.2228 19.7542 33.3249C18.5385 32.427 17.5787 31.9781 17.2588 31.9781C16.9388 31.9781 16.8109 32.5553 16.6189 33.1967C16.427 33.838 16.107 34.5435 15.9151 34.8642C15.7231 35.1849 15.6591 36.2752 14.6993 36.2752C13.7396 36.2752 14.6354 35.698 14.5714 35.6338C14.5074 35.5697 14.5714 36.0186 13.6756 35.9545C12.9295 35.9011 13.4262 35.4473 13.65 35.2971C13.5512 35.2653 13.3814 35.1807 13.0997 34.9925C12.3319 34.4794 13.8036 34.7359 13.8675 34.4152C13.9315 34.0945 14.6354 34.1587 14.9553 33.838C15.2752 33.5173 15.4672 33.1966 15.9151 31.5291C16.363 29.8616 16.427 30.1823 16.9388 30.1181C17.4507 30.054 18.4105 30.6954 18.8584 30.3747Z"
        fill="white" />
    <path
        d="M43.5567 27.4886C42.5329 28.2583 43.6207 29.8617 44.5804 31.0161C45.4762 31.6575 45.7962 31.2726 45.8602 31.2085C45.9242 31.1444 45.9242 31.0161 45.9881 30.5671C46.0521 30.1182 45.9881 28.7072 45.7962 28.3224C45.6042 27.9376 44.5804 26.719 43.5567 27.4886Z"
        fill="white" />
    <path
        d="M43.8767 37.3655C43.5567 36.2752 43.4288 35.6339 43.0448 35.0567C42.6609 34.4794 41.9571 33.3891 41.3172 33.1326C40.6774 32.876 39.3337 32.7477 38.5019 33.3891C37.6701 34.0304 37.926 35.249 38.5019 36.4035C39.0778 37.558 39.3337 37.5579 40.1655 38.071C40.9973 38.5841 43.3648 40.893 44.5165 42.2399C45.6683 43.5867 46.1162 43.0737 46.2441 42.8812C46.3721 42.6888 45.6683 42.304 45.9882 42.3682C46.3081 42.4323 46.5641 42.753 46.82 42.753C47.076 42.753 47.5878 42.8812 47.5878 42.6888C47.5878 42.4964 47.1399 41.9192 46.82 41.7268C46.5001 41.5344 46.2441 41.8551 45.5403 41.5985C44.8365 41.342 44.5165 40.3799 44.1966 39.8027C43.8767 39.2255 44.1966 38.4559 43.8767 37.3655Z"
        fill="white" />
    <path
        d="M50.0192 34.2229C48.2276 35.2491 47.7158 36.0187 47.1399 36.5959M50.979 34.6077C50.2112 35.3774 49.2941 35.8691 49.1874 37.1732"
        stroke="white" stroke-linecap="round" />
</svg>