<svg viewBox="0 0 800 600" fill="none" xmlns="http://www.w3.org/2000/svg">
<rect width="800" height="600" fill="url(#paint0_linear_245_1651)"/>
<mask id="mask0_245_1651" style="mask-type:alpha" maskUnits="userSpaceOnUse" x="28" y="47" width="734" height="537">
<path d="M312 312L422.5 234L399 278L418 331L312 312Z" fill="#434343"/>
<path d="M312 141.5L329.5 182.5L298 243.5L214 218L301.5 182.5L252.5 158L312 141.5Z" fill="#434343"/>
<path d="M530.5 258.5L502 187L442.5 158V228L488 234L530.5 258.5Z" fill="#434343"/>
<path d="M426 103L418 198L378 245L320 272L345 182.5L426 103Z" fill="#434343"/>
<path d="M410.5 377.5L476.5 312L587 397L510.5 411L476.5 364.5L426 434L442.5 377.5H410.5Z" fill="#434343"/>
<path d="M214 407L240 317.5L281.5 377.5L273 317.5L292.5 252.5L312 411H277L214 407Z" fill="#434343"/>
<path d="M268.5 301.5L38 166.5L149 310L268.5 301.5Z" fill="#434343"/>
<path d="M320 337H356.5L351 364.5L399 337L410.5 498L325 377.5L320 337Z" fill="#434343"/>
<path d="M527 335L761.5 331L571.5 272L466 258.5L430.5 291.5L422.5 348.5L466 286L527 335Z" fill="#434343"/>
<path d="M372.5 474L329.5 397L325 448L372.5 474Z" fill="#434343"/>
<path d="M571.5 50.5L587 228L730.5 158L637.5 141.5L671 96L571.5 50.5Z" fill="#434343"/>
<path d="M660 348.5L721 407L752 474L676 583.5L520.5 523.5L687.5 466L660 348.5Z" fill="#434343"/>
<path d="M100.5 534L172 348.5L240 483.5L100.5 534Z" fill="#434343"/>
<path d="M28 348.5L149 317.5L134 364.5L28 348.5Z" fill="#434343"/>
<path d="M207.5 187L45 103L264 47L240 117L147.5 111.5L207.5 187Z" fill="#434343"/>
</mask>
<g mask="url(#mask0_245_1651)">
<path d="M400 124L427.331 197.998L488 147.58L474.67 225.33L552.42 212L502.002 272.669L576 300L502.002 327.331L552.42 388L474.67 374.671L488 452.421L427.331 402.002L400 476L372.669 402.002L312 452.421L325.33 374.671L247.58 388L297.998 327.331L224 300L297.998 272.669L247.58 212L325.33 225.33L312 147.58L372.669 197.998L400 124Z" fill="#4CD199"/>
<path d="M100 300C100 511 200 550 200 500C200 500 125 500 125 300C125 100 200 100 200 100C200 50 100 89 100 300Z" fill="#4CD199"/>
<path d="M700 299.516C700 510.516 600 549.516 600 499.516C600 499.516 675 499.516 675 299.516C675 99.5164 600 99.5164 600 99.5164C600 49.5163 700 88.5164 700 299.516Z" fill="#4CD199"/>
</g>
<defs>
<linearGradient id="paint0_linear_245_1651" x1="400" y1="0" x2="400" y2="600" gradientUnits="userSpaceOnUse">
<stop offset="0.0001"/>
<stop offset="1" stop-color="white"/>
</linearGradient>
</defs>
</svg>
