<svg width="800" height="600" viewBox="0 0 800 600" fill="none" xmlns="http://www.w3.org/2000/svg">
<g clip-path="url(#clip0_123_165)">
<rect width="800" height="600" fill="url(#paint0_linear_123_165)"/>
<path d="M230.5 195.5C168 187 55 255 -28 350V632H833.5V385.5C806 328.5 697 214.5 617 202.5C537 190.5 477 396 388 396C299 396 293 204 230.5 195.5Z" fill="url(#paint1_linear_123_165)"/>
<path fill-rule="evenodd" clip-rule="evenodd" d="M266.671 226.52C266.628 226.397 266.571 226.277 266.504 226.165C256.373 209.232 244.946 197.464 230.5 195.5C210.165 192.734 184.485 198.067 156.231 209.793C156.034 209.874 155.85 209.988 155.689 210.127L139.09 224.497C137.416 225.946 138.989 228.638 141.074 227.892L160.51 220.929C162.101 220.359 163.638 221.898 163.067 223.488L155.737 243.885C155.031 245.85 157.429 247.446 158.969 246.037L179.15 227.566C180.433 226.392 182.5 227.302 182.5 229.042V257.5C182.5 259.422 184.947 260.238 186.1 258.7L204.636 233.985C205.509 232.822 207.293 232.949 207.991 234.226L221.59 259.092C222.457 260.679 224.818 260.391 225.278 258.642L230.451 238.986C230.876 237.371 232.976 236.957 233.982 238.29L247.687 256.458C248.97 258.158 251.668 256.942 251.244 254.855L247.41 235.98C247.063 234.271 248.917 232.968 250.408 233.873L269.69 245.58C271.299 246.556 273.244 244.972 272.612 243.199L266.671 226.52ZM549.169 239.093C549.257 238.869 549.386 238.661 549.548 238.482C571.121 214.645 593.173 198.926 617 202.5C633.957 205.044 652.218 212.17 670.729 222.365C672.602 223.397 671.712 226.16 669.584 225.951L667.483 225.744C666.209 225.619 665.147 226.706 665.302 227.977L666.811 240.353C667.04 242.228 664.781 243.346 663.429 242.026L649.305 228.239C648.137 227.098 646.167 227.763 645.93 229.379L642.247 254.422C641.982 256.226 639.639 256.763 638.614 255.256L626.686 237.715C625.771 236.37 623.718 236.622 623.156 238.148L615.715 258.344C615.093 260.033 612.73 260.105 612.007 258.456L603.198 238.371C602.52 236.824 600.349 236.762 599.583 238.267L590.032 257.041C589.132 258.811 586.481 258.328 586.262 256.355L584.049 236.437C583.85 234.647 581.571 234.012 580.475 235.44L567.622 252.178C566.312 253.884 563.601 252.603 564.087 250.508L567.18 237.184C567.611 235.329 565.45 233.978 563.971 235.18L550.397 246.209C548.802 247.505 546.524 245.84 547.274 243.926L549.169 239.093Z" fill="url(#paint2_radial_123_165)" fill-opacity="0.52"/>
<rect x="-7" y="165" width="800" height="240" fill="url(#paint3_radial_123_165)"/>
<path d="M110 258C102.333 287.833 58 277.8 -58 321V596H878V292.5C878 292.5 778 258 744 243C710 228 662.5 243 662.5 243C662.5 243 619 310 600.5 310.5C582 311 559 258 559 258C559 258 540.5 303 515 329.5C489.5 356 477 364.5 463 364.5C449 364.5 438 332.5 421.5 346C405 359.5 389.3 397.1 372.5 379.5C355.7 361.9 343.5 338.833 339.5 329.5C318.833 353.5 274.2 382.1 253 364.5C231.8 346.9 212.667 318.667 221.5 303L202.5 292.5C197.5 306.333 177.6 315.4 148 321C118.4 326.6 111.167 288 110 258Z" fill="url(#paint4_radial_123_165)"/>
<path d="M127 375C105.32 370.745 52.5746 304.787 52.5746 304.787L-97.0189 521.809L391.328 645.745L858.537 521.809C820.054 432.979 740.705 258.404 731.165 270.745C719.241 286.17 677.89 324.5 653.5 324.5C629.11 324.5 631.39 316.585 607 348.5C601.244 356.032 582 425 575.5 434C569 443 505.5 431.5 493.5 434C481.5 436.5 480 453 459 456C438 459 430.5 441.5 419.5 438.501C408.5 435.503 391 451 391 451L342 451C342 451 300.5 440.289 294 444.5C287.5 448.711 269.5 455.5 259.5 456C249.5 456.5 230 447.078 222.5 440.289C215 433.5 219 392.5 215 387C211 381.5 199.499 366.873 194.5 363C184.202 355.021 148.68 379.255 127 375Z" fill="url(#paint5_radial_123_165)"/>
<path d="M101.355 409.574C84.5528 355.319 71.0027 217.021 71.0027 217.021L25.5 203.191L-60.7047 271.277L-78.0488 625.532L836.856 634.574V238L818 176L771 217.021L746.883 203.191L684.011 271.277C684.011 271.277 672.424 375.532 660.5 409.574C648.576 443.617 602.71 497.872 576.694 523.404C550.677 548.936 511.653 559.042 452.032 568.617C392.412 578.191 356.639 576.064 306.233 568.617C255.827 561.17 200.542 548.936 168.564 523.404C136.585 497.872 118.157 463.83 101.355 409.574Z" fill="url(#paint6_radial_123_165)"/>
<path d="M199.458 498.936C168.022 498.404 129.539 477.128 129.539 477.128L95 489.894L72 494.5L64 511.5L38 515.5L24.5 534.5L6 531.5L-10.2981 548.936L-40.1084 623.404L860.163 609.043L829.81 561.702L797 540.5L768.022 555.319L738.5 540.5L706.233 548.936L693.5 520.5L665.5 501L632.5 497L622.5 472.5C622.5 472.5 599.458 484.043 586.45 489.894C573.442 495.745 531.707 505.319 508.943 505.851C486.179 506.383 445.528 493.617 431.436 484.043C417.344 474.468 402.71 450.532 390.244 447.872C377.778 445.213 350.135 447.872 341.463 450.532C332.791 453.192 314.905 479.255 291.599 489.894C268.293 500.532 230.894 499.468 199.458 498.936Z" fill="#BBF1C7"/>
<path d="M248.238 567.021C253.442 594.255 276.784 608.865 287.805 612.766L480.217 622.34C401.807 603.901 263.306 565.851 336.585 561.17C428.184 555.319 442.276 513.83 428.726 496.277C415.176 478.723 372.358 479.787 365.854 477.128C359.35 474.468 372.358 468.085 375.068 461.702C377.778 455.319 371.996 450.709 368.564 446.809L360.976 447.341C364.95 452.482 369.648 457.447 364.228 461.702C358.726 466.022 337.127 474.468 346.883 482.979C356.64 491.489 393.496 484.575 404.336 503.192C415.176 521.809 352.846 526.064 325.203 527.66C297.561 529.255 241.734 532.979 248.238 567.021Z" fill="#7EAAEC"/>
<path fill-rule="evenodd" clip-rule="evenodd" d="M76.5091 501.581L76 503.091H76.8837L87.3415 499.837L87.5935 503.114L87.582 503.116C87.8215 507.49 87.7209 516.622 85.4092 518.364C82.5141 520.545 99.1611 520.545 96.266 518.364C93.9499 516.618 93.3709 507.455 93.3709 503.091H93.3931L93.6423 501.098L101.309 503.091H103.907L93.3902 497.317L103.354 500.066L102.856 498.344L92.8862 492.528L102.042 495.528L101.557 493.848L92.3821 488.496L100.704 490.897L100.105 488.824L92.1301 483.707L99.0913 485.314L98.55 483.44L92.1301 478.667L97.8182 480.907L97.2495 478.939L92.1301 474.13L96.293 475.629L95.3912 472.508L92.1301 468.333L94.7536 470.301L93.9913 467.663L92.1301 465.057L93.4404 465.756L91.1995 458L87.8744 467.864L89.3577 467.073L87.0538 470.299L86.2513 472.679L89.3577 470.35L85.2751 475.575L84.5861 477.619L89.3577 475.138L83.2326 481.635L82.7038 483.203L89.3577 480.179L81.6611 486.297L81.2333 487.566L88.6016 485.724L79.8477 491.676L79.315 493.257L88.0976 490.512L78.1429 496.734L77.6564 498.177L87.5935 495.049L76.5091 501.581Z" fill="#384E53"/>
<path fill-rule="evenodd" clip-rule="evenodd" d="M86.7661 516.279L86 518.552H87.3305L103.069 513.655L103.448 518.586L103.431 518.59C103.791 525.172 103.64 538.915 100.161 541.537C95.8037 544.821 120.858 544.821 116.5 541.537C113.015 538.91 112.143 525.119 112.143 518.552H112.177L112.552 515.552L124.089 518.552H127.999L112.172 509.862L127.167 513.999L126.419 511.408L111.414 502.655L125.194 507.17L124.464 504.641L110.655 496.586L123.18 500.199L122.279 497.08L110.276 489.379L120.753 491.797L119.938 488.978L110.276 481.793L118.837 485.166L117.981 482.204L110.276 474.966L116.541 477.221L115.184 472.524L110.276 466.242L114.224 469.203L113.077 465.233L110.276 461.31L112.248 462.362L108.875 450.689L103.871 465.535L106.104 464.345L102.636 469.2L101.428 472.782L106.104 469.276L99.9589 477.141L98.922 480.217L106.104 476.483L96.885 486.26L96.0892 488.621L106.104 484.069L94.5199 493.276L93.8762 495.186L104.966 492.414L91.7908 501.373L90.989 503.751L104.207 499.621L89.2249 508.984L88.4928 511.156L103.448 506.448L86.7661 516.279Z" fill="#384E53"/>
<path fill-rule="evenodd" clip-rule="evenodd" d="M597.766 553.589L597 555.862H598.331L614.069 550.966L614.448 555.897L614.431 555.9C614.791 562.483 614.64 576.226 611.161 578.848C606.804 582.131 631.858 582.131 627.5 578.848C624.015 576.221 623.143 562.429 623.143 555.862H623.177L623.552 552.862L635.089 555.862H638.999L623.172 547.173L638.167 551.309L637.419 548.719L622.414 539.966L636.194 544.48L635.464 541.952L621.655 533.897L634.18 537.51L633.279 534.39L621.276 526.69L631.753 529.108L630.938 526.289L621.276 519.104L629.837 522.476L628.981 519.514L621.276 512.276L627.541 514.532L626.184 509.835L621.276 503.552L625.224 506.514L624.077 502.543L621.276 498.621L623.248 499.673L619.875 488L614.871 502.846L617.104 501.655L613.636 506.51L612.428 510.093L617.104 506.586L610.959 514.452L609.922 517.528L617.104 513.793L607.885 523.57L607.089 525.931L617.104 521.379L605.52 530.587L604.876 532.497L615.966 529.724L602.791 538.683L601.989 541.062L615.207 536.931L600.225 546.295L599.493 548.467L614.448 543.759L597.766 553.589Z" fill="#384E53"/>
<path fill-rule="evenodd" clip-rule="evenodd" d="M366.274 466.425L366 467.237H366.475L372.096 465.488L372.232 467.249L372.225 467.251C372.354 469.602 372.3 474.51 371.058 475.446C369.501 476.619 378.449 476.619 376.893 475.446C375.648 474.508 375.337 469.582 375.337 467.237H375.349L375.483 466.166L379.602 467.237H381L375.347 464.134L380.703 465.611L380.436 464.686L375.076 461.56L379.998 463.172L379.737 462.269L374.805 459.392L379.279 460.683L378.957 459.569L374.67 456.818L378.412 457.682L378.121 456.675L374.67 454.109L377.728 455.314L377.422 454.256L374.67 451.67L376.908 452.476L376.423 450.799L374.67 448.555L376.081 449.613L375.671 448.195L374.67 446.794L375.375 447.169L374.17 443L372.383 448.302L373.18 447.877L371.942 449.611L371.51 450.89L373.18 449.638L370.985 452.447L370.615 453.546L373.18 452.212L369.888 455.704L369.603 456.547L373.18 454.922L369.043 458.21L368.813 458.892L372.774 457.902L368.068 461.102L367.782 461.951L372.503 460.476L367.152 463.82L366.89 464.596L372.232 462.914L366.274 466.425Z" fill="#384E53"/>
<path fill-rule="evenodd" clip-rule="evenodd" d="M117.378 521.334L117 522.455H117.656L125.415 520.041L125.602 522.472L125.593 522.473C125.771 525.718 125.696 532.493 123.981 533.786C121.833 535.405 134.184 535.405 132.036 533.786C130.318 532.491 129.888 525.692 129.888 522.455H129.905L130.089 520.976L135.777 522.455H137.705L129.902 518.171L137.295 520.21L136.926 518.933L129.528 514.618L136.322 516.844L135.962 515.597L129.154 511.626L135.329 513.407L134.885 511.869L128.967 508.073L134.132 509.265L133.731 507.875L128.967 504.333L133.188 505.996L132.766 504.536L128.967 500.968L132.056 502.08L131.387 499.764L128.967 496.667L130.914 498.127L130.349 496.17L128.967 494.236L129.94 494.754L128.277 489L125.81 496.319L126.911 495.732L125.201 498.125L124.606 499.891L126.911 498.163L123.881 502.04L123.37 503.556L126.911 501.715L122.366 506.535L121.974 507.699L126.911 505.455L121.2 509.994L120.883 510.936L126.35 509.569L119.855 513.986L119.459 515.158L125.976 513.122L118.59 517.738L118.229 518.809L125.602 516.488L117.378 521.334Z" fill="#384E53"/>
<path fill-rule="evenodd" clip-rule="evenodd" d="M151.398 501.581L151.907 503.091H151.023L140.566 499.837L140.313 503.114L140.325 503.116C140.086 507.49 140.186 516.622 142.498 518.364C145.393 520.545 128.746 520.545 131.641 518.364C133.957 516.618 134.536 507.455 134.536 503.091H134.514L134.265 501.098L126.598 503.091H124L134.517 497.317L124.553 500.066L125.051 498.344L135.021 492.528L125.865 495.528L126.35 493.848L135.525 488.496L127.203 490.897L127.802 488.824L135.777 483.707L128.816 485.314L129.357 483.44L135.777 478.667L130.089 480.907L130.658 478.939L135.777 474.13L131.614 475.629L132.516 472.508L135.777 468.333L133.153 470.301L133.916 467.663L135.777 465.057L134.467 465.756L136.707 458L140.033 467.864L138.549 467.073L140.853 470.299L141.656 472.679L138.549 470.35L142.632 475.575L143.321 477.619L138.549 475.138L144.674 481.635L145.203 483.203L138.549 480.179L146.246 486.297L146.674 487.566L139.305 485.724L148.059 491.676L148.592 493.257L139.809 490.512L149.764 496.734L150.251 498.177L140.313 495.049L151.398 501.581Z" fill="#384E53"/>
<path fill-rule="evenodd" clip-rule="evenodd" d="M67.0594 513.188L67 513.364H68.7581L72.0813 511.35L72.8869 513.364H76.3392C76.5337 516.883 76.4559 524.273 74.5881 525.68C72.2533 527.44 85.6783 527.44 83.3435 525.68C81.4757 524.273 81.0088 516.883 81.0088 513.364H84.3335L83.0569 511.959L87.8549 513.364H89.7642L89.6735 513.049L85.6992 509.927L89.0477 510.884L88.3618 508.51L84.6829 505.659L87.9055 506.931L87.3157 504.889L83.4634 502L86.8324 503.217L86.0115 500.375L83.0569 497.732L85.5139 498.653L84.899 496.525L82.4472 494.073L84.5015 495.149L83.762 492.59L81.2276 489.398L83.1998 490.644L82.638 488.7L80.0081 485.333L82.1239 486.92L81.5091 484.792L80.0081 482.691L81.0648 483.255L79.2577 477L76.5761 484.955L77.7724 484.317L75.9143 486.918L75.2672 488.838L77.7724 486.959L74.4799 491.174L73.9832 492.647L76.5528 491.024L73.0385 495.45L72.4443 497.212L75.3333 495.699L71.7448 499.288L71.3128 500.569L73.7073 499.561L70.6079 502.66L69.7568 505.185L72.6911 504.033L69.1042 507.121L68.4685 509.007L71.065 507.894L67.0594 513.188Z" fill="#384E53"/>
<path fill-rule="evenodd" clip-rule="evenodd" d="M158.705 558.188L158.764 558.364H157.006L153.683 556.35L152.877 558.364H149.425C149.23 561.883 149.308 569.273 151.176 570.68C153.511 572.44 140.086 572.44 142.421 570.68C144.288 569.273 144.755 561.883 144.755 558.364H141.431L142.707 556.959L137.909 558.364H136L136.091 558.049L140.065 554.927L136.717 555.884L137.402 553.51L141.081 550.659L137.859 551.931L138.448 549.889L142.301 547L138.932 548.217L139.753 545.375L142.707 542.732L140.25 543.653L140.865 541.525L143.317 539.073L141.263 540.149L142.002 537.59L144.537 534.398L142.564 535.644L143.126 533.7L145.756 530.333L143.64 531.92L144.255 529.792L145.756 527.691L144.699 528.255L146.506 522L149.188 529.955L147.992 529.317L149.85 531.918L150.497 533.838L147.992 531.959L151.284 536.174L151.781 537.647L149.211 536.024L152.726 540.45L153.32 542.212L150.431 540.699L154.019 544.288L154.451 545.569L152.057 544.561L155.156 547.66L156.007 550.185L153.073 549.033L156.66 552.121L157.296 554.007L154.699 552.894L158.705 558.188Z" fill="#384E53"/>
<path fill-rule="evenodd" clip-rule="evenodd" d="M48.0594 556.188L48 556.364H49.7581L53.0813 554.35L53.8869 556.364H57.3392C57.5337 559.883 57.4559 567.273 55.5881 568.68C53.2533 570.44 66.6783 570.44 64.3435 568.68C62.4757 567.273 62.0088 559.883 62.0088 556.364H65.3335L64.0569 554.959L68.8549 556.364H70.7642L70.6735 556.049L66.6992 552.927L70.0477 553.884L69.3618 551.51L65.6829 548.659L68.9055 549.931L68.3157 547.889L64.4634 545L67.8324 546.217L67.0115 543.375L64.0569 540.732L66.5139 541.653L65.899 539.525L63.4472 537.073L65.5015 538.149L64.762 535.59L62.2276 532.398L64.1998 533.644L63.638 531.7L61.0081 528.333L63.1239 529.92L62.5091 527.792L61.0081 525.691L62.0648 526.255L60.2577 520L57.5761 527.955L58.7724 527.317L56.9143 529.918L56.2672 531.838L58.7724 529.959L55.4799 534.174L54.9832 535.647L57.5528 534.024L54.0385 538.45L53.4443 540.212L56.3333 538.699L52.7448 542.288L52.3128 543.569L54.7073 542.561L51.6079 545.66L50.7568 548.185L53.6911 547.033L50.1042 550.121L49.4685 552.007L52.065 550.894L48.0594 556.188Z" fill="#384E53"/>
<path fill-rule="evenodd" clip-rule="evenodd" d="M463.059 517.188L463 517.364H464.758L468.081 515.35L468.887 517.364H472.339C472.534 520.883 472.456 528.273 470.588 529.68C468.253 531.44 481.678 531.44 479.344 529.68C477.476 528.273 477.009 520.883 477.009 517.364H480.334L479.057 515.959L483.855 517.364H485.764L485.673 517.049L481.699 513.927L485.048 514.884L484.362 512.51L480.683 509.659L483.906 510.931L483.316 508.889L479.463 506L482.832 507.217L482.011 504.375L479.057 501.732L481.514 502.653L480.899 500.525L478.447 498.073L480.502 499.149L479.762 496.59L477.228 493.398L479.2 494.644L478.638 492.7L476.008 489.333L478.124 490.92L477.509 488.792L476.008 486.691L477.065 487.255L475.258 481L472.576 488.955L473.772 488.317L471.914 490.918L471.267 492.838L473.772 490.959L470.48 495.174L469.983 496.647L472.553 495.024L469.038 499.45L468.444 501.212L471.333 499.699L467.745 503.288L467.313 504.569L469.707 503.561L466.608 506.66L465.757 509.185L468.691 508.033L465.104 511.121L464.469 513.007L467.065 511.894L463.059 517.188Z" fill="#384E53"/>
<path fill-rule="evenodd" clip-rule="evenodd" d="M339.03 466.093L339 466.182H339.879L341.541 465.174L341.944 466.182H343.67C343.767 467.941 343.728 471.636 342.794 472.34C341.627 473.22 348.339 473.22 347.172 472.34C346.238 471.636 346.004 467.941 346.004 466.182H347.667L347.028 465.479L349.429 466.182H350.382L350.337 466.024L348.35 464.463L350.024 464.941L349.681 463.754L347.841 462.329L349.453 462.965L349.158 461.944L347.232 460.5L348.916 461.108L348.506 459.687L347.028 458.366L348.257 458.826L347.949 457.762L346.724 456.536L347.751 457.074L347.381 455.794L346.114 454.199L347.1 454.822L346.819 453.849L345.504 452.166L346.562 452.96L346.254 451.896L345.504 450.845L346.032 451.127L345.129 448L343.788 451.977L344.386 451.658L343.457 452.959L343.134 453.919L344.386 452.979L342.74 455.086L342.492 455.823L343.776 455.012L342.019 457.224L341.722 458.106L343.167 457.349L341.373 459.143L341.157 459.784L342.354 459.28L340.804 460.83L340.379 462.092L341.846 461.516L340.052 463.06L339.734 464.003L341.033 463.447L339.03 466.093Z" fill="#384E53"/>
<path d="M220.334 582.994C223.19 580.855 223.309 569.622 223.011 564.273L220.541 563.992L215.257 564.61L213.392 563.992L210.284 563.374L205.622 563.992L205.311 563.683L209.351 562.447L207.487 560.285L205.311 561.829L205 561.52L206.865 559.358H207.797L211.216 562.756H212.46L211.838 559.049L212.46 558.894L213.703 562.447L215.257 563.374L218.987 561.52L223.338 561.211V559.976L219.608 558.894L215.879 559.049V557.195L219.608 556.577L223.338 557.195V553.488L218.676 554.724H217.122L212.46 553.488V552.87L217.122 553.488L214.635 551.634V550.707L218.831 553.179L223.649 551.943V547L221.162 546.073L218.676 546.691L215.257 546.073L214.014 547.618L213.392 547L214.635 545.146L218.676 545.455L221.162 544.528L223.338 544.837L223.649 542.675L222.406 541.748L218.102 540.821V540.203L222.095 540.512L220.23 539.585L219.298 537.423L219.919 537.114L220.852 538.659L223.96 540.512L224.271 536.187L219.298 534.642L219.608 534.024H221.473L220.852 532.171H221.473L223.027 534.951H224.581L224.892 531.244L220.541 528.772V527.846L225.514 529.081L225.825 524.447L222.406 522.593L222.717 521.667L226.135 522.902L226.291 519.659L226.446 516.415L224.892 515.797L225.203 515.179H226.757L226.446 513.943L227.474 509L228.311 516.724L229.555 516.106L229.865 516.724L228.622 518.268L229.244 523.829L231.109 522.285L231.491 522.818L229.244 525.683L229.555 533.715L233.906 532.171L234.504 528.772L235.149 529.081L234.504 533.182L229.865 535.878V542.057L232.352 541.13L234.217 541.439L234.504 537.114H235.149V541.748L237.325 542.057L239.811 539.585L240.433 540.512L237.325 543.545L233.499 542.675L230.176 545.146V550.707L233.906 551.634L236.847 550.707L237.325 547.927L239.811 547L243.541 546.691L243.852 547.618L238.879 548.236L237.636 551.634L233.595 553.797H230.176L230.152 561.829L233.595 562.447H237.325L239.955 561.211L236.847 557.504L239.046 554.106L239.644 554.415L238.09 557.504L241.509 560.593L245.405 559.976L244.162 557.504L243.541 554.724L244.784 552.308L245.405 552.87L244.473 554.724L245.095 556.886L246.027 558.431L247.581 555.959L248.203 552.308L248.824 552.87L248.513 555.65L247.581 558.431L249.757 556.886L250.378 554.724L251 555.033L250.378 557.504L245.716 561.211L236.847 564.273H230.152C230.152 569.622 230.866 580.855 233.723 582.994C237.293 585.669 216.763 585.669 220.334 582.994Z" fill="#384E53"/>
<path d="M377.666 567.994C374.81 565.855 374.691 554.622 374.989 549.273L377.459 548.992L382.743 549.61L384.608 548.992L387.716 548.374L392.378 548.992L392.689 548.683L388.649 547.447L390.513 545.285L392.689 546.829L393 546.52L391.135 544.358H390.203L386.784 547.756H385.54L386.162 544.049L385.54 543.894L384.297 547.447L382.743 548.374L379.013 546.52L374.662 546.211V544.976L378.392 543.894L382.121 544.049V542.195L378.392 541.577L374.662 542.195V538.488L379.324 539.724H380.878L385.54 538.488V537.87L380.878 538.488L383.365 536.634V535.707L379.169 538.179L374.351 536.943V532L376.838 531.073L379.324 531.691L382.743 531.073L383.986 532.618L384.608 532L383.365 530.146L379.324 530.455L376.838 529.528L374.662 529.837L374.351 527.675L375.594 526.748L379.898 525.821V525.203L375.905 525.512L377.77 524.585L378.702 522.423L378.081 522.114L377.148 523.659L374.04 525.512L373.729 521.187L378.702 519.642L378.392 519.024H376.527L377.148 517.171H376.527L374.973 519.951H373.419L373.108 516.244L377.459 513.772V512.846L372.486 514.081L372.175 509.447L375.594 507.593L375.283 506.667L371.865 507.902L371.709 504.659L371.554 501.415L373.108 500.797L372.797 500.179H371.243L371.554 498.943L370.526 494L369.689 501.724L368.445 501.106L368.135 501.724L369.378 503.268L368.756 508.829L366.891 507.285L366.509 507.818L368.756 510.683L368.445 518.715L364.094 517.171L363.496 513.772L362.851 514.081L363.496 518.182L368.135 520.878V527.057L365.648 526.13L363.783 526.439L363.496 522.114H362.851V526.748L360.675 527.057L358.189 524.585L357.567 525.512L360.675 528.545L364.501 527.675L367.824 530.146V535.707L364.094 536.634L361.153 535.707L360.675 532.927L358.189 532L354.459 531.691L354.148 532.618L359.121 533.236L360.364 536.634L364.405 538.797H367.824L367.848 546.829L364.405 547.447H360.675L358.045 546.211L361.153 542.504L358.954 539.106L358.356 539.415L359.91 542.504L356.491 545.593L352.595 544.976L353.838 542.504L354.459 539.724L353.216 537.308L352.595 537.87L353.527 539.724L352.905 541.886L351.973 543.431L350.419 540.959L349.797 537.308L349.176 537.87L349.487 540.65L350.419 543.431L348.243 541.886L347.622 539.724L347 540.033L347.622 542.504L352.284 546.211L361.153 549.273H367.848C367.848 554.622 367.134 565.855 364.277 567.994C360.707 570.669 381.237 570.669 377.666 567.994Z" fill="#384E53"/>
<path d="M495 537.235C493.882 536.418 493.836 532.132 493.952 530.091L494.919 529.984L496.986 530.22L497.716 529.984L498.932 529.748L500.757 529.984L500.878 529.866L499.297 529.394L500.027 528.569L500.878 529.159L501 529.041L500.27 528.215H499.905L498.568 529.512H498.081L498.324 528.098L498.081 528.039L497.595 529.394L496.986 529.748L495.527 529.041L493.824 528.923V528.451L495.284 528.039L496.743 528.098V527.39L495.284 527.154L493.824 527.39V525.976L495.649 526.447H496.257L498.081 525.976V525.74L496.257 525.976L497.23 525.268V524.915L495.588 525.858L493.703 525.386V523.5L494.676 523.146L495.649 523.382L496.986 523.146L497.473 523.736L497.716 523.5L497.23 522.793L495.649 522.911L494.676 522.557L493.824 522.675L493.703 521.85L494.189 521.496L495.873 521.142V520.907L494.311 521.024L495.04 520.671L495.405 519.846L495.162 519.728L494.797 520.317L493.581 521.024L493.459 519.374L495.405 518.785L495.284 518.549H494.554L494.797 517.841H494.554L493.946 518.902H493.338L493.216 517.488L494.919 516.545V516.191L492.973 516.663L492.851 514.894L494.189 514.187L494.067 513.833L492.73 514.305L492.669 513.067L492.608 511.829L493.216 511.593L493.094 511.358H492.486L492.608 510.886L492.206 509L491.878 511.947L491.392 511.711L491.27 511.947L491.757 512.537L491.513 514.659L490.784 514.069L490.634 514.273L491.513 515.366L491.392 518.431L489.689 517.841L489.455 516.545L489.203 516.663L489.455 518.227L491.27 519.256V521.614L490.297 521.26L489.567 521.378L489.455 519.728H489.203V521.496L488.351 521.614L487.378 520.671L487.135 521.024L488.351 522.182L489.848 521.85L491.148 522.793V524.915L489.689 525.268L488.538 524.915L488.351 523.854L487.378 523.5L485.919 523.382L485.797 523.736L487.743 523.972L488.23 525.268L489.811 526.093H491.148L491.158 529.159L489.811 529.394H488.351L487.322 528.923L488.538 527.508L487.678 526.211L487.444 526.329L488.052 527.508L486.714 528.687L485.189 528.451L485.676 527.508L485.919 526.447L485.432 525.525L485.189 525.74L485.554 526.447L485.311 527.272L484.946 527.862L484.338 526.919L484.095 525.525L483.851 525.74L483.973 526.801L484.338 527.862L483.486 527.272L483.243 526.447L483 526.565L483.243 527.508L485.068 528.923L488.538 530.091H491.158C491.158 532.132 490.878 536.418 489.761 537.235C488.364 538.255 496.397 538.255 495 537.235Z" fill="#384E53"/>
<path d="M607.133 493.146C608.619 492.099 608.845 486.382 608.772 483.654L607.519 483.474L604.82 483.711L603.879 483.369L602.306 483.009L599.923 483.255L599.769 483.093L601.845 482.523L600.927 481.395L599.797 482.149L599.643 481.987L600.624 480.913L601.099 480.927L602.79 482.708L603.423 482.726L603.161 480.83L603.48 480.76L604.06 482.587L604.838 483.082L606.764 482.193L608.984 482.1L609.002 481.471L607.119 480.865L605.218 480.889L605.245 479.945L607.153 479.686L609.043 480.055L609.098 478.168L606.706 478.728L605.915 478.705L603.559 478.007L603.568 477.693L605.933 478.076L604.694 477.096L604.708 476.624L606.808 477.944L609.279 477.386L609.352 474.869L608.099 474.361L606.824 474.639L605.093 474.274L604.437 475.042L604.13 474.718L604.79 473.793L606.842 474.009L608.122 473.574L609.225 473.764L609.415 472.667L608.796 472.177L606.619 471.642L606.628 471.327L608.656 471.543L607.72 471.044L607.277 469.929L607.598 469.781L608.05 470.581L609.605 471.571L609.827 469.373L607.318 468.513L607.486 468.203L608.435 468.231L608.146 467.278L608.462 467.287L609.213 468.726L610.004 468.749L610.217 466.866L608.038 465.543L608.051 465.071L610.565 465.774L610.792 463.419L609.078 462.425L609.25 461.958L610.973 462.637L611.1 460.988L611.227 459.339L610.445 459.001L610.612 458.691L611.403 458.714L611.263 458.08L611.859 455.579L612.171 459.523L612.814 459.227L612.963 459.546L612.307 460.314L612.542 463.155L613.514 462.396L613.701 462.673L612.514 464.099L612.554 468.193L614.792 467.47L615.147 465.749L615.471 465.916L615.082 467.994L612.68 469.298L612.589 472.444L613.869 472.009L614.814 472.194L615.024 469.996L615.352 470.005L615.284 472.365L616.387 472.554L617.69 471.332L617.992 471.813L616.365 473.312L614.431 472.812L612.702 474.022L612.62 476.853L614.505 477.38L616.016 476.951L616.301 475.543L617.58 475.107L619.484 475.005L619.628 475.482L617.087 475.723L616.404 477.435L614.315 478.476L612.575 478.426L612.444 482.515L614.188 482.88L616.087 482.935L617.444 482.345L615.916 480.412L617.086 478.714L617.386 478.88L616.549 480.43L618.244 482.053L620.237 481.796L619.641 480.519L619.365 479.095L620.034 477.883L620.342 478.178L619.84 479.108L620.124 480.219L620.576 481.019L621.404 479.783L621.774 477.934L622.083 478.229L621.883 479.64L621.368 481.042L622.498 480.287L622.846 479.195L623.158 479.362L622.805 480.611L620.377 482.43L615.816 483.858L612.408 483.759C612.329 486.482 612.527 492.212 613.95 493.343C615.728 494.758 605.276 494.455 607.133 493.146Z" fill="#384E53"/>
<path d="M684 567.152C685.863 565.182 685.941 554.836 685.747 549.909L684.135 549.65L680.689 550.22L679.473 549.65L677.446 549.081L674.405 549.65L674.203 549.366L676.838 548.228L675.622 546.236L674.203 547.659L674 547.374L675.216 545.382H675.824L678.054 548.512H678.865L678.46 545.098L678.865 544.955L679.676 548.228L680.689 549.081L683.122 547.374L685.96 547.089V545.951L683.527 544.955L681.095 545.098V543.39L683.527 542.821L685.96 543.39V539.976L682.919 541.114H681.906L678.865 539.976V539.407L681.906 539.976L680.284 538.268V537.415L683.02 539.691L686.162 538.553V534L684.541 533.146L682.919 533.715L680.689 533.146L679.879 534.569L679.473 534L680.284 532.293L682.919 532.577L684.541 531.724L685.96 532.008L686.162 530.016L685.352 529.163L682.545 528.309V527.74L685.149 528.024L683.933 527.171L683.324 525.179L683.73 524.894L684.338 526.317L686.365 528.024L686.568 524.041L683.324 522.618L683.527 522.049H684.743L684.338 520.341H684.743L685.757 522.902H686.77L686.973 519.488L684.135 517.211V516.358L687.379 517.496L687.581 513.228L685.352 511.52L685.554 510.667L687.784 511.805L687.885 508.817L687.987 505.829L686.973 505.26L687.176 504.691H688.189L687.987 503.553L688.657 499L689.203 506.114L690.014 505.545L690.217 506.114L689.406 507.537L689.811 512.659L691.027 511.236L691.277 511.727L689.811 514.366L690.014 521.764L692.852 520.341L693.241 517.211L693.662 517.496L693.241 521.273L690.217 523.756V529.447L691.838 528.593L693.054 528.878L693.241 524.894H693.662V529.163L695.081 529.447L696.703 527.171L697.108 528.024L695.081 530.818L692.587 530.016L690.419 532.293V537.415L692.852 538.268L694.77 537.415L695.081 534.854L696.703 534L699.136 533.715L699.338 534.569L696.095 535.138L695.284 538.268L692.649 540.26H690.419L690.404 547.659L692.649 548.228H695.081L696.797 547.089L694.77 543.675L696.204 540.545L696.594 540.829L695.58 543.675L697.81 546.52L700.351 545.951L699.541 543.675L699.136 541.114L699.946 538.889L700.351 539.407L699.743 541.114L700.149 543.106L700.757 544.528L701.77 542.252L702.176 538.889L702.581 539.407L702.378 541.967L701.77 544.528L703.189 543.106L703.595 541.114L704 541.398L703.595 543.675L700.554 547.089L694.77 549.909H690.404C690.404 554.836 690.869 565.182 692.732 567.152C695.061 569.616 681.672 569.616 684 567.152Z" fill="#384E53"/>
<path d="M648.527 531.704C650.512 529.255 650.594 516.396 650.388 510.273L648.671 509.951L645 510.659V509.244L647.591 507.122L650.615 506.768V505.354L648.023 504.116L645.432 504.293V502.171L648.023 501.463L650.615 502.171V497.927L647.375 499.341H646.296L647.483 497.573L650.831 496.159V490.5L649.103 489.439L647.375 490.146V488.732L649.103 487.671L650.615 488.024L650.831 485.549L649.967 484.488L646.977 483.427V482.72L649.751 483.073L648.455 482.012L647.807 479.537L648.239 479.183L648.887 480.951L651.046 483.073L651.262 478.122L647.807 476.354L648.023 475.646H649.319L648.887 473.524H649.319L650.399 476.707H651.478L651.694 472.463L648.671 469.634V468.573L652.126 469.988L652.342 464.683L649.967 462.561L650.183 461.5L652.558 462.915L652.666 459.201L652.774 455.488L651.694 454.78L651.91 454.073H652.99L652.774 452.659L653.488 447L654.07 455.841L654.934 455.134L655.15 455.841L654.286 457.61L654.718 463.976L656.013 462.207L656.279 462.818L654.718 466.098L654.934 475.293L657.957 473.524L658.372 474.682L655.15 477.768V484.841L656.877 483.78L658.173 484.134L657.674 485.549L655.365 488.378V494.744L657.957 495.805L660 494.744L657.741 498.28H655.365L655.349 507.476L657.741 508.183L660 510.273H655.349C655.349 516.396 655.845 529.255 657.829 531.704C660.31 534.765 646.047 534.765 648.527 531.704Z" fill="#384E53"/>
<path d="M528.587 581.284C530.042 579.455 530.103 569.848 529.951 565.273L528.692 565.033L526 565.561V564.504L527.9 562.919L530.117 562.654V561.598L528.217 560.673L526.317 560.805V559.22L528.217 558.691L530.117 559.22V556.049L527.742 557.106H526.95L527.821 555.785L530.276 554.728V550.5L529.009 549.707L527.742 550.236V549.179L529.009 548.386L530.117 548.65L530.276 546.801L529.642 546.008L527.45 545.215V544.687L529.484 544.951L528.534 544.159L528.059 542.309L528.375 542.045L528.85 543.366L530.434 544.951L530.592 541.252L528.059 539.931L528.217 539.402H529.167L528.85 537.817H529.167L529.959 540.195H530.751L530.909 537.024L528.692 534.911V534.118L531.226 535.175L531.384 531.211L529.642 529.626L529.801 528.833L531.543 529.89L531.622 527.116L531.701 524.341L530.909 523.813L531.068 523.285H531.859L531.701 522.228L532.225 518L532.651 524.606L533.285 524.077L533.443 524.606L532.809 525.927L533.126 530.683L534.076 529.362L534.271 529.818L533.126 532.268L533.285 539.138L535.502 537.817L535.806 538.682L533.443 540.988V546.272L534.71 545.48L535.66 545.744L535.295 546.801L533.601 548.915V553.671L535.502 554.463L537 553.671L535.343 556.313H533.601L533.589 563.183L535.343 563.711L537 565.273H533.589C533.589 569.848 533.953 579.455 535.408 581.284C537.227 583.572 526.767 583.572 528.587 581.284Z" fill="#384E53"/>
<path d="M556.527 532.704C558.512 530.255 558.594 517.396 558.388 511.273L556.671 510.951L553 511.659V510.244L555.591 508.122L558.615 507.768V506.354L556.023 505.116L553.432 505.293V503.171L556.023 502.463L558.615 503.171V498.927L555.375 500.341H554.296L555.483 498.573L558.831 497.159V491.5L557.103 490.439L555.375 491.146V489.732L557.103 488.671L558.615 489.024L558.831 486.549L557.967 485.488L554.977 484.427V483.72L557.751 484.073L556.455 483.012L555.807 480.537L556.239 480.183L556.887 481.951L559.046 484.073L559.262 479.122L555.807 477.354L556.023 476.646H557.319L556.887 474.524H557.319L558.399 477.707H559.478L559.694 473.463L556.671 470.634V469.573L560.126 470.988L560.342 465.683L557.967 463.561L558.183 462.5L560.558 463.915L560.666 460.201L560.774 456.488L559.694 455.78L559.91 455.073H560.99L560.774 453.659L561.488 448L562.07 456.841L562.934 456.134L563.15 456.841L562.286 458.61L562.718 464.976L564.013 463.207L564.279 463.818L562.718 467.098L562.934 476.293L565.957 474.524L566.372 475.682L563.15 478.768V485.841L564.877 484.78L566.173 485.134L565.674 486.549L563.365 489.378V495.744L565.957 496.805L568 495.744L565.741 499.28H563.365L563.349 508.476L565.741 509.183L568 511.273H563.349C563.349 517.396 563.845 530.255 565.829 532.704C568.31 535.765 554.047 535.765 556.527 532.704Z" fill="#384E53"/>
<path d="M188.587 533.311C190.042 531.509 190.103 522.05 189.951 517.545L188.692 517.309L186 517.829V516.789L187.9 515.228L190.117 514.967V513.927L188.217 513.016L186.317 513.146V511.585L188.217 511.065L190.117 511.585V508.463L187.742 509.504H186.95L187.821 508.203L190.276 507.163V503L189.009 502.22L187.742 502.74V501.699L189.009 500.919L190.117 501.179L190.276 499.358L189.642 498.577L187.45 497.797V497.276L189.484 497.537L188.534 496.756L188.059 494.935L188.375 494.675L188.85 495.976L190.434 497.537L190.592 493.894L188.059 492.593L188.217 492.073H189.167L188.85 490.512H189.167L189.959 492.854H190.751L190.909 489.732L188.692 487.65V486.87L191.226 487.911L191.384 484.008L189.642 482.447L189.801 481.667L191.543 482.707L191.622 479.976L191.701 477.244L190.909 476.724L191.068 476.203H191.859L191.701 475.163L192.225 471L192.651 477.504L193.285 476.984L193.443 477.504L192.809 478.805L193.126 483.488L194.076 482.187L194.271 482.636L193.126 485.049L193.285 491.813L195.502 490.512L195.806 491.364L193.443 493.634V498.837L194.71 498.057L195.66 498.317L195.295 499.358L193.601 501.439V506.122L195.502 506.902L197 506.122L195.343 508.724H193.601L193.589 515.488L195.343 516.008L197 517.545H193.589C193.589 522.05 193.953 531.509 195.408 533.311C197.227 535.563 186.767 535.563 188.587 533.311Z" fill="#384E53"/>
<path d="M247.587 522.311C249.042 520.509 249.103 511.05 248.951 506.545L247.692 506.309L245 506.829V505.789L246.9 504.228L249.117 503.967V502.927L247.217 502.016L245.317 502.146V500.585L247.217 500.065L249.117 500.585V497.463L246.742 498.504H245.95L246.821 497.203L249.276 496.163V492L248.009 491.22L246.742 491.74V490.699L248.009 489.919L249.117 490.179L249.276 488.358L248.642 487.577L246.45 486.797V486.276L248.484 486.537L247.534 485.756L247.059 483.935L247.375 483.675L247.85 484.976L249.434 486.537L249.592 482.894L247.059 481.593L247.217 481.073H248.167L247.85 479.512H248.167L248.959 481.854H249.751L249.909 478.732L247.692 476.65V475.87L250.226 476.911L250.384 473.008L248.642 471.447L248.801 470.667L250.543 471.707L250.622 468.976L250.701 466.244L249.909 465.724L250.068 465.203H250.859L250.701 464.163L251.225 460L251.651 466.504L252.285 465.984L252.443 466.504L251.809 467.805L252.126 472.488L253.076 471.187L253.271 471.636L252.126 474.049L252.285 480.813L254.502 479.512L254.806 480.364L252.443 482.634V487.837L253.71 487.057L254.66 487.317L254.295 488.358L252.601 490.439V495.122L254.502 495.902L256 495.122L254.343 497.724H252.601L252.589 504.488L254.343 505.008L256 506.545H252.589C252.589 511.05 252.953 520.509 254.408 522.311C256.227 524.563 245.767 524.563 247.587 522.311Z" fill="#384E53"/>
<path d="M342.884 457.34C341.693 456.637 341.643 452.942 341.767 451.182L342.797 451.09L345 451.293V450.886L343.445 450.277L341.631 450.175V449.769L343.186 449.413L344.741 449.464V448.854L343.186 448.651L341.631 448.854V447.634L343.575 448.041H344.223L343.51 447.533L341.502 447.126V445.5L342.538 445.195L343.575 445.399V444.992L342.538 444.687L341.631 444.789L341.502 444.077L342.02 443.773L343.814 443.468V443.264L342.15 443.366L342.927 443.061L343.316 442.35L343.056 442.248L342.668 442.756L341.372 443.366L341.243 441.943L343.316 441.435L343.186 441.232H342.409L342.668 440.622H342.409L341.761 441.537H341.113L340.983 440.317L342.797 439.504V439.199L340.724 439.606L340.595 438.082L342.02 437.472L341.89 437.167L340.465 437.573L340.4 436.506L340.336 435.439L340.983 435.236L340.854 435.033H340.206L340.336 434.626L339.907 433L339.558 435.541L339.04 435.338L338.91 435.541L339.429 436.049L339.169 437.878L338.392 437.37L338.233 437.546L339.169 438.488L339.04 441.13L337.226 440.622L336.977 440.955L338.91 441.842V443.874L337.874 443.569L337.096 443.671L337.395 444.077L338.781 444.89V446.72L337.226 447.025L336 446.72L337.355 447.736H338.781L338.791 450.378L337.355 450.582L336 451.182H338.791C338.791 452.942 338.493 456.637 337.302 457.34C335.814 458.22 344.372 458.22 342.884 457.34Z" fill="#384E53"/>
<path d="M385.884 450.34C384.693 449.637 384.643 445.942 384.767 444.182L385.797 444.09L388 444.293V443.886L386.445 443.277L384.631 443.175V442.769L386.186 442.413L387.741 442.464V441.854L386.186 441.651L384.631 441.854V440.634L386.575 441.041H387.223L386.51 440.533L384.502 440.126V438.5L385.538 438.195L386.575 438.399V437.992L385.538 437.687L384.631 437.789L384.502 437.077L385.02 436.773L386.814 436.468V436.264L385.15 436.366L385.927 436.061L386.316 435.35L386.056 435.248L385.668 435.756L384.372 436.366L384.243 434.943L386.316 434.435L386.186 434.232H385.409L385.668 433.622H385.409L384.761 434.537H384.113L383.983 433.317L385.797 432.504V432.199L383.724 432.606L383.595 431.082L385.02 430.472L384.89 430.167L383.465 430.573L383.4 429.506L383.336 428.439L383.983 428.236L383.854 428.033H383.206L383.336 427.626L382.907 426L382.558 428.541L382.04 428.338L381.91 428.541L382.429 429.049L382.169 430.878L381.392 430.37L381.233 430.546L382.169 431.488L382.04 434.13L380.226 433.622L379.977 433.955L381.91 434.842V436.874L380.874 436.569L380.096 436.671L380.395 437.077L381.781 437.89V439.72L380.226 440.025L379 439.72L380.355 440.736H381.781L381.791 443.378L380.355 443.582L379 444.182H381.791C381.791 445.942 381.493 449.637 380.302 450.34C378.814 451.22 387.372 451.22 385.884 450.34Z" fill="#384E53"/>
<path d="M666.351 551.496C667.674 549.891 667.73 541.466 667.592 537.455L666.447 537.244L664 537.707V536.78L665.728 535.39L667.743 535.159V534.232L666.015 533.421L664.288 533.537V532.146L666.015 531.683L667.743 532.146V529.366L665.584 530.293H664.864L665.656 529.134L667.887 528.207V524.5L666.735 523.805L665.584 524.268V523.341L666.735 522.646L667.743 522.878L667.887 521.256L667.311 520.561L665.318 519.866V519.402L667.167 519.634L666.303 518.939L665.872 517.317L666.159 517.085L666.591 518.244L668.031 519.634L668.175 516.39L665.872 515.232L666.015 514.768H666.879L666.591 513.378H666.879L667.599 515.463H668.319L668.463 512.683L666.447 510.829V510.134L668.751 511.061L668.895 507.585L667.311 506.195L667.455 505.5L669.039 506.427L669.111 503.994L669.183 501.561L668.463 501.098L668.607 500.634H669.327L669.183 499.707L669.659 496L670.046 501.793L670.622 501.329L670.766 501.793L670.19 502.951L670.478 507.122L671.342 505.963L671.519 506.364L670.478 508.512L670.622 514.537L672.638 513.378L672.915 514.136L670.766 516.159V520.793L671.918 520.098L672.782 520.329L672.45 521.256L670.91 523.11V527.28L672.638 527.976L674 527.28L672.494 529.598H670.91L670.899 535.622L672.494 536.085L674 537.455H670.899C670.899 541.466 671.23 549.891 672.553 551.496C674.207 553.501 664.698 553.501 666.351 551.496Z" fill="#384E53"/>
<path d="M648.473 564.704C646.488 562.255 646.406 549.396 646.612 543.273L648.329 542.951L652 543.659V542.244L649.409 540.122L646.385 539.768V538.354L648.977 537.116L651.568 537.293V535.171L648.977 534.463L646.385 535.171V530.927L649.625 532.341H650.704L649.517 530.573L646.169 529.159V523.5L647.897 522.439L649.625 523.146V521.732L647.897 520.671L646.385 521.024L646.169 518.549L647.033 517.488L650.023 516.427V515.72L647.249 516.073L648.545 515.012L649.193 512.537L648.761 512.183L648.113 513.951L645.954 516.073L645.738 511.122L649.193 509.354L648.977 508.646H647.681L648.113 506.524H647.681L646.601 509.707H645.522L645.306 505.463L648.329 502.634V501.573L644.874 502.988L644.658 497.683L647.033 495.561L646.817 494.5L644.442 495.915L644.334 492.201L644.226 488.488L645.306 487.78L645.09 487.073H644.01L644.226 485.659L643.512 480L642.93 488.841L642.066 488.134L641.85 488.841L642.714 490.61L642.282 496.976L640.987 495.207L640.721 495.818L642.282 499.098L642.066 508.293L639.043 506.524L638.628 507.682L641.85 510.768V517.841L640.123 516.78L638.827 517.134L639.326 518.549L641.635 521.378V527.744L639.043 528.805L637 527.744L639.259 531.28H641.635L641.651 540.476L639.259 541.183L637 543.273H641.651C641.651 549.396 641.155 562.255 639.171 564.704C636.69 567.765 650.953 567.765 648.473 564.704Z" fill="#384E53"/>
<rect y="259" width="800" height="341" fill="url(#paint7_radial_123_165)"/>
<path fill-rule="evenodd" clip-rule="evenodd" d="M621.5 115C674.003 115 719.036 83.0141 738.174 37.4657C741.234 37.8186 744.346 38 747.5 38C757.225 38 766.547 36.2756 775.177 33.1159C782.578 53.466 802.092 68 825 68C854.271 68 878 44.2711 878 15C878 -13.3075 855.808 -36.4317 827.872 -37.9235C827.957 -39.4382 828 -40.9641 828 -42.5C828 -86.9589 791.959 -123 747.5 -123C730.663 -123 715.033 -117.831 702.111 -108.993C680.224 -127.111 652.133 -138 621.5 -138C560.102 -138 508.921 -94.2588 497.418 -36.2387C485.208 -43.7001 470.856 -48 455.5 -48C451.521 -48 447.61 -47.7113 443.785 -47.1538C430.167 -57.7139 413.067 -64 394.5 -64C366.406 -64 341.673 -49.6084 327.272 -27.7953C300.222 -26.2593 275.465 -16.1568 255.67 -0.158081C255.888 -2.57613 256 -5.02501 256 -7.5C256 -51.9589 219.959 -88 175.5 -88C136.463 -88 103.916 -60.2134 96.5579 -23.3397C88.1016 -26.3569 78.9927 -28 69.5 -28C25.0411 -28 -11 8.04108 -11 52.5C-11 96.9589 25.0411 133 69.5 133C79.7358 133 89.5254 131.09 98.5317 127.606C111.766 153.934 139.023 172 170.5 172C190.119 172 208.099 164.982 222.066 153.319C242.609 194.62 285.24 223 334.5 223C398.59 223 451.46 174.959 459.062 112.923C487.896 111.667 512.794 95.2438 525.976 71.433C549.169 98.1242 583.364 115 621.5 115Z" fill="#D9D9D9" fill-opacity="0.4"/>
<g filter="url(#filter0_d_123_165)">
<circle cx="353" cy="80" r="17" fill="white"/>
</g>
<path fill-rule="evenodd" clip-rule="evenodd" d="M621.5 115C674.003 115 719.036 83.0141 738.174 37.4657C741.234 37.8186 744.346 38 747.5 38C757.225 38 766.547 36.2756 775.177 33.1159C782.578 53.466 802.092 68 825 68C854.271 68 878 44.2711 878 15C878 -13.3075 855.808 -36.4317 827.872 -37.9235C827.957 -39.4382 828 -40.9641 828 -42.5C828 -86.9589 791.959 -123 747.5 -123C730.663 -123 715.033 -117.831 702.111 -108.993C680.224 -127.111 652.133 -138 621.5 -138C560.102 -138 508.921 -94.2588 497.418 -36.2387C485.208 -43.7001 470.856 -48 455.5 -48C451.521 -48 447.61 -47.7113 443.785 -47.1538C430.167 -57.7139 413.067 -64 394.5 -64C366.406 -64 341.673 -49.6084 327.272 -27.7953C300.222 -26.2593 275.465 -16.1568 255.67 -0.158081C255.888 -2.57613 256 -5.02501 256 -7.5C256 -51.9589 219.959 -88 175.5 -88C136.463 -88 103.916 -60.2134 96.5579 -23.3397C88.1016 -26.3569 78.9927 -28 69.5 -28C25.0411 -28 -11 8.04108 -11 52.5C-11 96.9589 25.0411 133 69.5 133C79.7358 133 89.5254 131.09 98.5317 127.606C111.766 153.934 139.023 172 170.5 172C190.119 172 208.099 164.982 222.066 153.319C242.609 194.62 285.24 223 334.5 223C398.59 223 451.46 174.959 459.062 112.923C487.896 111.667 512.794 95.2438 525.976 71.433C549.169 98.1242 583.364 115 621.5 115Z" fill="url(#paint8_radial_123_165)" fill-opacity="0.7"/>
</g>
<defs>
<filter id="filter0_d_123_165" x="236" y="-37" width="234" height="234" filterUnits="userSpaceOnUse" color-interpolation-filters="sRGB">
<feFlood flood-opacity="0" result="BackgroundImageFix"/>
<feColorMatrix in="SourceAlpha" type="matrix" values="0 0 0 0 0 0 0 0 0 0 0 0 0 0 0 0 0 0 127 0" result="hardAlpha"/>
<feOffset/>
<feGaussianBlur stdDeviation="50"/>
<feComposite in2="hardAlpha" operator="out"/>
<feColorMatrix type="matrix" values="0 0 0 0 0 0 0 0 0 0 0 0 0 0 0 0 0 0 1 0"/>
<feBlend mode="normal" in2="BackgroundImageFix" result="effect1_dropShadow_123_165"/>
<feBlend mode="normal" in="SourceGraphic" in2="effect1_dropShadow_123_165" result="shape"/>
</filter>
<linearGradient id="paint0_linear_123_165" x1="400" y1="0" x2="400" y2="600" gradientUnits="userSpaceOnUse">
<stop offset="0.0001" stop-color="#1E353A"/>
<stop offset="1" stop-color="#D1FCFF"/>
</linearGradient>
<linearGradient id="paint1_linear_123_165" x1="402.75" y1="194.783" x2="402.75" y2="632" gradientUnits="userSpaceOnUse">
<stop stop-color="#2E403F"/>
<stop offset="1" stop-color="#3A82AA"/>
</linearGradient>
<radialGradient id="paint2_radial_123_165" cx="0" cy="0" r="1" gradientUnits="userSpaceOnUse" gradientTransform="translate(357 80.5) rotate(97.5074) scale(325.288 694.48)">
<stop offset="0.450434" stop-color="white"/>
<stop offset="0.663105" stop-color="white" stop-opacity="0"/>
</radialGradient>
<radialGradient id="paint3_radial_123_165" cx="0" cy="0" r="1" gradientUnits="userSpaceOnUse" gradientTransform="translate(393 165) rotate(90) scale(240 853.529)">
<stop offset="0.479167" stop-color="#D9D9D9" stop-opacity="0"/>
<stop offset="1" stop-color="#D9D9D9"/>
</radialGradient>
<radialGradient id="paint4_radial_123_165" cx="0" cy="0" r="1" gradientUnits="userSpaceOnUse" gradientTransform="translate(394.5 213) rotate(87.6825) scale(383.314 997.539)">
<stop offset="0.0833333"/>
<stop offset="1" stop-color="#89DBED"/>
</radialGradient>
<radialGradient id="paint5_radial_123_165" cx="0" cy="0" r="1" gradientUnits="userSpaceOnUse" gradientTransform="translate(381 405.5) rotate(90) scale(193.5 930.678)">
<stop/>
<stop offset="1" stop-color="#8BE1DC" stop-opacity="0"/>
</radialGradient>
<radialGradient id="paint6_radial_123_165" cx="0" cy="0" r="1" gradientUnits="userSpaceOnUse" gradientTransform="translate(379 210.5) rotate(89.9455) scale(424.075 846.074)">
<stop/>
<stop offset="1" stop-color="#98D0DC"/>
</radialGradient>
<radialGradient id="paint7_radial_123_165" cx="0" cy="0" r="1" gradientUnits="userSpaceOnUse" gradientTransform="translate(400 259) rotate(90) scale(341 871.34)">
<stop offset="0.489583" stop-color="#E3E3E3" stop-opacity="0"/>
<stop offset="1" stop-color="#D9D9D9"/>
</radialGradient>
<radialGradient id="paint8_radial_123_165" cx="0" cy="0" r="1" gradientUnits="userSpaceOnUse" gradientTransform="translate(351.5 77.5) rotate(76.2184) scale(136.428 194.107)">
<stop offset="0.21875" stop-color="white"/>
<stop offset="1" stop-color="#D9D9D9" stop-opacity="0"/>
</radialGradient>
<clipPath id="clip0_123_165">
<rect width="800" height="600" fill="white"/>
</clipPath>
</defs>
</svg>
