<svg viewBox="0 0 800 600" fill="none" xmlns="http://www.w3.org/2000/svg">
<g clip-path="url(#clip0_149_41)">
<rect width="800" height="600" fill="url(#paint0_linear_149_41)"/>
<mask id="mask0_149_41" style="mask-type:alpha" maskUnits="userSpaceOnUse" x="3" y="7" width="793" height="397">
<ellipse cx="24.3902" cy="17.5533" rx="1.62602" ry="1.59574" fill="white"/>
<ellipse cx="64.4986" cy="39.8936" rx="1.62602" ry="1.59574" fill="white"/>
<ellipse cx="23.3062" cy="73.9361" rx="1.62602" ry="1.59574" fill="white"/>
<ellipse cx="123.035" cy="9.04252" rx="1.62602" ry="1.59574" fill="white"/>
<ellipse cx="111.111" cy="85.6382" rx="1.62602" ry="1.59574" fill="white"/>
<ellipse cx="181.572" cy="27.1277" rx="1.62602" ry="1.59574" fill="white"/>
<ellipse cx="171.816" cy="42.0213" rx="1.62602" ry="1.59574" fill="white"/>
<ellipse cx="188.076" cy="64.3616" rx="1.62602" ry="1.59574" fill="white"/>
<ellipse cx="278.049" cy="19.6807" rx="1.62602" ry="1.59574" fill="white"/>
<ellipse cx="318.158" cy="44.149" rx="1.62602" ry="1.59574" fill="white"/>
<ellipse cx="381.03" cy="10.1062" rx="1.62602" ry="1.59574" fill="white"/>
<ellipse cx="390.786" cy="95.2127" rx="1.62602" ry="1.59574" fill="white"/>
<ellipse cx="439.567" cy="25" rx="1.62602" ry="1.59574" fill="white"/>
<ellipse cx="476.423" cy="65.4256" rx="1.62602" ry="1.59574" fill="white"/>
<ellipse cx="529.539" cy="13.2979" rx="1.62602" ry="1.59574" fill="white"/>
<ellipse cx="518.699" cy="47.3404" rx="1.62602" ry="1.59574" fill="white"/>
<ellipse cx="571.815" cy="68.617" rx="1.62602" ry="1.59574" fill="white"/>
<ellipse cx="608.672" cy="31.3829" rx="1.62602" ry="1.59574" fill="white"/>
<ellipse cx="580.487" cy="26.0638" rx="1.62602" ry="1.59574" fill="white"/>
<ellipse cx="634.688" cy="73.9361" rx="1.62602" ry="1.59574" fill="white"/>
<ellipse cx="673.712" cy="10.1062" rx="1.62602" ry="1.59574" fill="white"/>
<ellipse cx="699.729" cy="40.9573" rx="1.62602" ry="1.59574" fill="white"/>
<ellipse cx="713.821" cy="60.1062" rx="1.62602" ry="1.59574" fill="white"/>
<ellipse cx="742.005" cy="22.8724" rx="1.62602" ry="1.59574" fill="white"/>
<ellipse cx="774.525" cy="84.5745" rx="1.62602" ry="1.59574" fill="white"/>
<ellipse cx="779.945" cy="12.2339" rx="1.62602" ry="1.59574" fill="white"/>
<ellipse cx="250.949" cy="77.1275" rx="1.62602" ry="1.59574" fill="white"/>
<ellipse cx="765.853" cy="156.915" rx="1.62602" ry="1.59574" transform="rotate(-180 765.853 156.915)" fill="white"/>
<ellipse cx="725.745" cy="134.574" rx="1.62602" ry="1.59574" transform="rotate(-180 725.745 134.574)" fill="white"/>
<ellipse cx="766.937" cy="100.532" rx="1.62602" ry="1.59574" transform="rotate(-180 766.937 100.532)" fill="white"/>
<ellipse cx="667.208" cy="165.425" rx="1.62602" ry="1.59574" transform="rotate(-180 667.208 165.425)" fill="white"/>
<ellipse cx="679.132" cy="88.8298" rx="1.62602" ry="1.59574" transform="rotate(-180 679.132 88.8298)" fill="white"/>
<ellipse cx="608.672" cy="147.34" rx="1.62602" ry="1.59574" transform="rotate(-180 608.672 147.34)" fill="white"/>
<ellipse cx="618.428" cy="132.447" rx="1.62602" ry="1.59574" transform="rotate(-180 618.428 132.447)" fill="white"/>
<ellipse cx="602.168" cy="110.106" rx="1.62602" ry="1.59574" transform="rotate(-180 602.168 110.106)" fill="white"/>
<ellipse cx="1.61427" cy="1.60762" rx="1.61427" ry="1.60762" transform="matrix(0.786629 -0.617426 0.631742 0.775179 550.224 320.069)" fill="white"/>
<ellipse cx="1.61427" cy="1.60762" rx="1.61427" ry="1.60762" transform="matrix(0.786629 -0.617426 0.631742 0.775179 540.077 246.301)" fill="white"/>
<ellipse cx="1.61427" cy="1.60762" rx="1.61427" ry="1.60762" transform="matrix(0.786629 -0.617426 0.631742 0.775179 580.028 254.447)" fill="white"/>
<ellipse cx="1.61427" cy="1.60762" rx="1.61427" ry="1.60762" transform="matrix(0.786629 -0.617426 0.631742 0.775179 603.221 260.763)" fill="white"/>
<ellipse cx="1.61427" cy="1.60762" rx="1.61427" ry="1.60762" transform="matrix(0.786629 -0.617426 0.631742 0.775179 601.534 214.409)" fill="white"/>
<ellipse cx="1.61427" cy="1.60762" rx="1.61427" ry="1.60762" transform="matrix(0.786629 -0.617426 0.631742 0.775179 513.821 287.1)" fill="white"/>
<ellipse cx="1.61427" cy="1.60762" rx="1.61427" ry="1.60762" transform="matrix(0.786629 -0.617426 0.631742 0.775179 624.393 182.845)" fill="white"/>
<ellipse cx="1.61427" cy="1.60762" rx="1.61427" ry="1.60762" transform="matrix(-0.786629 0.617425 -0.631742 -0.775179 182.196 236.551)" fill="white"/>
<ellipse cx="1.61427" cy="1.60762" rx="1.61427" ry="1.60762" transform="matrix(-0.786629 0.617425 -0.631742 -0.775179 136.655 243.689)" fill="white"/>
<ellipse cx="1.61427" cy="1.60762" rx="1.61427" ry="1.60762" transform="matrix(-0.786629 0.617425 -0.631742 -0.775179 147.158 191.854)" fill="white"/>
<ellipse cx="1.61427" cy="1.60762" rx="1.61427" ry="1.60762" transform="matrix(-0.786629 0.617425 -0.631742 -0.775179 638.419 372.082)" fill="white"/>
<ellipse cx="1.61427" cy="1.60762" rx="1.61427" ry="1.60762" transform="matrix(-0.786629 0.617425 -0.631742 -0.775179 37.0914 256.748)" fill="white"/>
<ellipse cx="1.61427" cy="1.60762" rx="1.61427" ry="1.60762" transform="matrix(-0.786629 0.617425 -0.631742 -0.775179 7.82288 219.514)" fill="white"/>
<ellipse cx="1.61427" cy="1.60762" rx="1.61427" ry="1.60762" transform="matrix(-0.786629 0.617425 -0.631742 -0.775179 18.6631 284.407)" fill="white"/>
<ellipse cx="1.61427" cy="1.60762" rx="1.61427" ry="1.60762" transform="matrix(-0.786629 0.617425 -0.631742 -0.775179 43.5954 385.471)" fill="white"/>
<ellipse cx="1.61427" cy="1.60762" rx="1.61427" ry="1.60762" transform="matrix(-0.786629 0.617425 -0.631742 -0.775179 165.005 282.28)" fill="white"/>
<ellipse cx="1.61427" cy="1.60762" rx="1.61427" ry="1.60762" transform="matrix(-0.786629 0.617425 -0.631742 -0.775179 205.113 370.577)" fill="white"/>
<ellipse cx="1.61427" cy="1.60762" rx="1.61427" ry="1.60762" transform="matrix(-0.786629 0.617425 -0.631742 -0.775179 119.476 319.514)" fill="white"/>
<ellipse cx="1.61427" cy="1.60762" rx="1.61427" ry="1.60762" transform="matrix(-0.786629 0.617425 -0.631742 -0.775179 224.625 402.492)" fill="white"/>
<ellipse cx="1.61427" cy="1.60762" rx="1.61427" ry="1.60762" transform="matrix(-0.786629 0.617425 -0.631742 -0.775179 53.3515 325.421)" fill="white"/>
<ellipse cx="1.61427" cy="1.60762" rx="1.61427" ry="1.60762" transform="matrix(-0.786629 0.617425 -0.631742 -0.775179 579.335 376.229)" fill="white"/>
<ellipse cx="1.61427" cy="1.60762" rx="1.61427" ry="1.60762" transform="matrix(-0.786629 0.617425 -0.631742 -0.775179 552.419 368.749)" fill="white"/>
<ellipse cx="512.195" cy="154.787" rx="1.62602" ry="1.59574" transform="rotate(-180 512.195 154.787)" fill="white"/>
<ellipse cx="472.087" cy="130.319" rx="1.62602" ry="1.59574" transform="rotate(-180 472.087 130.319)" fill="white"/>
<ellipse cx="409.214" cy="164.362" rx="1.62602" ry="1.59574" transform="rotate(-180 409.214 164.362)" fill="white"/>
<ellipse cx="399.458" cy="79.2553" rx="1.62602" ry="1.59574" transform="rotate(-180 399.458 79.2553)" fill="white"/>
<ellipse cx="350.678" cy="149.468" rx="1.62602" ry="1.59574" transform="rotate(-180 350.678 149.468)" fill="white"/>
<ellipse cx="313.822" cy="109.042" rx="1.62602" ry="1.59574" transform="rotate(-180 313.822 109.042)" fill="white"/>
<ellipse cx="260.705" cy="161.17" rx="1.62602" ry="1.59574" transform="rotate(-180 260.705 161.17)" fill="white"/>
<ellipse cx="271.545" cy="127.128" rx="1.62602" ry="1.59574" transform="rotate(-180 271.545 127.128)" fill="white"/>
<ellipse cx="218.428" cy="105.851" rx="1.62602" ry="1.59574" transform="rotate(-180 218.428 105.851)" fill="white"/>
<ellipse cx="181.572" cy="143.085" rx="1.62602" ry="1.59574" transform="rotate(-180 181.572 143.085)" fill="white"/>
<ellipse cx="209.756" cy="148.404" rx="1.62602" ry="1.59574" transform="rotate(-180 209.756 148.404)" fill="white"/>
<ellipse cx="155.555" cy="100.532" rx="1.62602" ry="1.59574" transform="rotate(-180 155.555 100.532)" fill="white"/>
<ellipse cx="116.531" cy="164.362" rx="1.62602" ry="1.59574" transform="rotate(-180 116.531 164.362)" fill="white"/>
<ellipse cx="90.5148" cy="133.511" rx="1.62602" ry="1.59574" transform="rotate(-180 90.5148 133.511)" fill="white"/>
<ellipse cx="76.4227" cy="114.362" rx="1.62602" ry="1.59574" transform="rotate(-180 76.4227 114.362)" fill="white"/>
<ellipse cx="48.2385" cy="151.596" rx="1.62602" ry="1.59574" transform="rotate(-180 48.2385 151.596)" fill="white"/>
<ellipse cx="15.7182" cy="89.8935" rx="1.62602" ry="1.59574" transform="rotate(-180 15.7182 89.8935)" fill="white"/>
<ellipse cx="10.2981" cy="162.234" rx="1.62602" ry="1.59574" transform="rotate(-180 10.2981 162.234)" fill="white"/>
<ellipse cx="539.295" cy="97.3403" rx="1.62602" ry="1.59574" transform="rotate(-180 539.295 97.3403)" fill="white"/>
<ellipse cx="491.599" cy="220.745" rx="1.62602" ry="1.59574" transform="rotate(-180 491.599 220.745)" fill="white"/>
<ellipse cx="438.483" cy="199.468" rx="1.62602" ry="1.59574" transform="rotate(-180 438.483 199.468)" fill="white"/>
<ellipse cx="401.626" cy="236.702" rx="1.62602" ry="1.59574" transform="rotate(-180 401.626 236.702)" fill="white"/>
<ellipse cx="429.811" cy="242.021" rx="1.62602" ry="1.59574" transform="rotate(-180 429.811 242.021)" fill="white"/>
<ellipse cx="468.835" cy="318.617" rx="1.62602" ry="1.59574" transform="rotate(-180 468.835 318.617)" fill="white"/>
<ellipse cx="375.61" cy="194.149" rx="1.62602" ry="1.59574" transform="rotate(-180 375.61 194.149)" fill="white"/>
<ellipse cx="310.569" cy="227.128" rx="1.62602" ry="1.59574" transform="rotate(-180 310.569 227.128)" fill="white"/>
<ellipse cx="296.477" cy="207.979" rx="1.62602" ry="1.59574" transform="rotate(-180 296.477 207.979)" fill="white"/>
<ellipse cx="213.008" cy="222.872" rx="1.62602" ry="1.59574" transform="rotate(-180 213.008 222.872)" fill="white"/>
<ellipse cx="235.772" cy="183.511" rx="1.62602" ry="1.59574" transform="rotate(-180 235.772 183.511)" fill="white"/>
<ellipse cx="230.352" cy="255.851" rx="1.62602" ry="1.59574" transform="rotate(-180 230.352 255.851)" fill="white"/>
<ellipse cx="759.349" cy="190.957" rx="1.62602" ry="1.59574" transform="rotate(-180 759.349 190.957)" fill="white"/>
<ellipse cx="794.038" cy="272.872" rx="1.62602" ry="1.59574" transform="rotate(-180 794.038 272.872)" fill="white"/>
<ellipse cx="642.276" cy="250.532" rx="1.62602" ry="1.59574" transform="rotate(-180 642.276 250.532)" fill="white"/>
</mask>
<g mask="url(#mask0_149_41)">
<rect x="-6.50409" width="819.512" height="455.319" fill="url(#paint1_linear_149_41)"/>
</g>
<path fill-rule="evenodd" clip-rule="evenodd" d="M833.604 331.915L833.604 278.724L833.604 224.468H818.677C822.734 212.606 824.932 199.906 824.932 186.702C824.932 121.192 770.818 68.0852 704.065 68.0852C637.312 68.0852 583.198 121.192 583.198 186.702C583.198 196.336 584.368 205.701 586.577 214.669C581.861 212.757 576.693 211.702 571.274 211.702C564.888 211.702 558.85 213.167 553.491 215.773C540.564 201.277 522.612 191.207 502.302 188.183C495.39 181.046 485.623 176.596 474.797 176.596C457.28 176.596 442.536 188.246 438.17 204.081C425.504 213.476 415.6 226.267 409.863 241.074C408.458 240.653 406.966 240.426 405.42 240.426C400.297 240.426 395.767 242.917 393.019 246.732C377.799 239.948 360.894 236.17 343.089 236.17C338.751 236.17 334.466 236.395 330.246 236.832C325.342 175.737 273.27 127.66 209.756 127.66C186.976 127.66 165.668 133.844 147.48 144.596C145.285 139.068 139.824 135.143 133.423 135.107C134.074 132.194 134.417 129.168 134.417 126.064C134.417 102.856 115.247 84.0427 91.5989 84.0427C72.959 84.0427 57.101 95.7314 51.2203 112.048C42.2096 95.3884 24.3519 84.0427 3.79401 84.0427C-25.8408 84.0427 -49.8645 107.619 -49.8645 136.702C-49.8645 140.159 -49.5251 143.538 -48.8773 146.809H-71.5447V647.872H137.669V779.787H833.604L833.604 331.915Z" fill="#D9D9D9" fill-opacity="0.25"/>
<path fill-rule="evenodd" clip-rule="evenodd" d="M820.596 333.383C842.172 319.155 856.369 294.981 856.369 267.553C856.369 223.782 820.212 188.298 775.61 188.298C731.008 188.298 694.851 223.782 694.851 267.553C694.851 269.183 694.901 270.802 695 272.407C669.461 250.504 636.039 237.234 599.458 237.234C532.075 237.234 475.409 282.261 458.995 343.328C443.774 299.561 401.513 268.085 351.762 268.085C323.049 268.085 296.831 278.569 276.866 295.848C271.209 275.554 252.285 260.638 229.81 260.638C221.058 260.638 212.845 262.9 205.744 266.861C188.553 226.946 148.287 198.936 101.355 198.936C38.7927 198.936 -11.9241 248.709 -11.9241 310.106C-11.9241 322.967 -9.69879 335.318 -5.60536 346.808H-11.9241V678.723H617.886H647.154H820.596V333.383Z" fill="#D9D9D9" fill-opacity="0.25"/>
<path d="M-67.7507 289.894V651.064H820.054V289.894H758.266V197.34L745.257 180.851L739.295 140.426H725.745L719.783 180.851L702.439 187.234L692.683 205.319H682.927L663.957 197.34V268.484H653.117V326.064L645.528 341.489V481.915H618.97V318.085L605.962 293.085H592.412L579.404 318.085V457.979H541.463V413.298H523.577V360.106H508.672V381.117L475.881 348.936H393.496V272.34H380.488V300.532H364.77V251.596H352.304V241.489H313.821V251.596H301.084V241.489H260.163V251.596H237.398V507.979H189.16V332.979H172.9V317.021L152.575 304.787L132.249 317.021V332.979H113.279V148.936L92.1409 157.979L81.8428 173.404L74.7968 197.872L55.2846 205.851V450.532H29.8103V300.532L5.42006 297.872V277.128L-67.7507 289.894Z" fill="url(#paint2_radial_149_41)"/>
<rect x="242.818" y="262.766" width="6.50407" height="6.38298" fill="#ADA36F" fill-opacity="0.22"/>
<rect x="277.507" y="262.766" width="6.50407" height="6.38298" fill="#ADA36F" fill-opacity="0.22"/>
<rect x="251.49" y="273.404" width="6.50407" height="6.38298" fill="#ADA36F" fill-opacity="0.22"/>
<rect x="261.247" y="273.404" width="6.50407" height="6.38298" fill="#ADA36F" fill-opacity="0.22"/>
<rect x="300.271" y="291.489" width="6.50407" height="6.38298" fill="#ADA36F" fill-opacity="0.22"/>
<rect x="310.027" y="291.489" width="6.50407" height="6.38298" fill="#ADA36F" fill-opacity="0.22"/>
<rect x="241.734" y="305.319" width="6.50407" height="6.38298" fill="#ADA36F" fill-opacity="0.22"/>
<rect x="251.49" y="305.319" width="6.50407" height="6.38298" fill="#ADA36F" fill-opacity="0.22"/>
<rect x="286.179" y="314.894" width="6.50407" height="6.38298" fill="#ADA36F" fill-opacity="0.22"/>
<rect x="293.767" y="340.426" width="6.50407" height="6.38298" fill="#ADA36F" fill-opacity="0.22"/>
<rect x="319.783" y="282.979" width="6.50407" height="6.38298" fill="#ADA36F" fill-opacity="0.22"/>
<rect x="347.968" y="338.298" width="6.50407" height="6.38298" fill="#ADA36F" fill-opacity="0.22"/>
<rect x="372.9" y="359.574" width="6.50407" height="6.38298" fill="#ADA36F" fill-opacity="0.22"/>
<rect x="366.396" y="477.66" width="6.50407" height="6.38298" fill="#ADA36F" fill-opacity="0.22"/>
<rect x="338.211" y="348.936" width="6.50407" height="6.38298" fill="#ADA36F" fill-opacity="0.22"/>
<rect x="347.968" y="348.936" width="6.50407" height="6.38298" fill="#ADA36F" fill-opacity="0.22"/>
<rect x="259.079" y="353.191" width="6.50407" height="6.38298" fill="#ADA36F" fill-opacity="0.22"/>
<rect x="268.835" y="353.191" width="6.50407" height="6.38298" fill="#ADA36F" fill-opacity="0.22"/>
<rect x="493.225" y="477.66" width="6.50407" height="6.38298" transform="rotate(-180 493.225 477.66)" fill="#ADA36F" fill-opacity="0.22"/>
<rect x="458.537" y="477.66" width="6.50407" height="6.38298" transform="rotate(-180 458.537 477.66)" fill="#ADA36F" fill-opacity="0.22"/>
<rect x="484.553" y="467.021" width="6.50407" height="6.38298" transform="rotate(-180 484.553 467.021)" fill="#ADA36F" fill-opacity="0.22"/>
<rect x="474.797" y="467.021" width="6.50407" height="6.38298" transform="rotate(-180 474.797 467.021)" fill="#ADA36F" fill-opacity="0.22"/>
<rect x="435.772" y="448.936" width="6.50407" height="6.38298" transform="rotate(-180 435.772 448.936)" fill="#ADA36F" fill-opacity="0.22"/>
<rect x="426.016" y="448.936" width="6.50407" height="6.38298" transform="rotate(-180 426.016 448.936)" fill="#ADA36F" fill-opacity="0.22"/>
<rect x="494.309" y="435.106" width="6.50407" height="6.38298" transform="rotate(-180 494.309 435.106)" fill="#ADA36F" fill-opacity="0.22"/>
<rect x="484.553" y="435.106" width="6.50407" height="6.38298" transform="rotate(-180 484.553 435.106)" fill="#ADA36F" fill-opacity="0.22"/>
<rect x="449.865" y="425.532" width="6.50407" height="6.38298" transform="rotate(-180 449.865 425.532)" fill="#ADA36F" fill-opacity="0.22"/>
<rect x="442.276" y="400" width="6.50407" height="6.38298" transform="rotate(-180 442.276 400)" fill="#ADA36F" fill-opacity="0.22"/>
<rect x="416.26" y="457.447" width="6.50407" height="6.38298" transform="rotate(-180 416.26 457.447)" fill="#ADA36F" fill-opacity="0.22"/>
<rect x="388.076" y="402.128" width="6.50407" height="6.38298" transform="rotate(-180 388.076 402.128)" fill="#ADA36F" fill-opacity="0.22"/>
<rect x="397.832" y="391.489" width="6.50407" height="6.38298" transform="rotate(-180 397.832 391.489)" fill="#ADA36F" fill-opacity="0.22"/>
<rect x="388.076" y="391.489" width="6.50407" height="6.38298" transform="rotate(-180 388.076 391.489)" fill="#ADA36F" fill-opacity="0.22"/>
<rect x="476.965" y="387.234" width="6.50407" height="6.38298" transform="rotate(-180 476.965 387.234)" fill="#ADA36F" fill-opacity="0.22"/>
<rect x="467.209" y="387.234" width="6.50407" height="6.38298" transform="rotate(-180 467.209 387.234)" fill="#ADA36F" fill-opacity="0.22"/>
<rect x="794.58" y="460.638" width="6.50407" height="6.38298" fill="#ADA36F" fill-opacity="0.22"/>
<rect x="784.824" y="460.638" width="6.50407" height="6.38298" fill="#ADA36F" fill-opacity="0.22"/>
<rect x="775.068" y="460.638" width="6.50407" height="6.38298" fill="#ADA36F" fill-opacity="0.22"/>
<rect x="794.58" y="450" width="6.50407" height="6.38298" fill="#ADA36F" fill-opacity="0.22"/>
<rect x="784.824" y="439.362" width="6.50407" height="6.38298" fill="#ADA36F" fill-opacity="0.22"/>
<rect x="775.068" y="406.383" width="6.50407" height="6.38298" fill="#ADA36F" fill-opacity="0.22"/>
<rect x="794.58" y="406.383" width="6.50407" height="6.38298" fill="#ADA36F" fill-opacity="0.22"/>
<rect x="765.312" y="429.787" width="6.50407" height="6.38298" fill="#ADA36F" fill-opacity="0.22"/>
<rect x="784.824" y="355.319" width="6.50407" height="6.38298" fill="#ADA36F" fill-opacity="0.22"/>
<rect x="730.623" y="352.128" width="6.50407" height="6.38298" fill="#ADA36F" fill-opacity="0.22"/>
<rect x="662.331" y="280.851" width="6.50407" height="6.38298" fill="#ADA36F" fill-opacity="0.22"/>
<rect x="662.331" y="291.489" width="6.50407" height="6.38298" fill="#ADA36F" fill-opacity="0.22"/>
<rect x="680.759" y="317.021" width="6.50407" height="6.38298" fill="#ADA36F" fill-opacity="0.22"/>
<rect x="650.406" y="342.553" width="6.50407" height="6.38298" fill="#ADA36F" fill-opacity="0.22"/>
<rect x="662.331" y="352.128" width="6.50407" height="6.38298" fill="#ADA36F" fill-opacity="0.22"/>
<rect x="691.599" y="409.574" width="6.50407" height="6.38298" fill="#ADA36F" fill-opacity="0.22"/>
<rect x="720.867" y="396.809" width="6.50407" height="6.38298" fill="#ADA36F" fill-opacity="0.22"/>
<rect x="691.599" y="384.042" width="6.50407" height="6.38298" fill="#ADA36F" fill-opacity="0.22"/>
<rect x="720.867" y="429.787" width="6.50407" height="6.38298" fill="#ADA36F" fill-opacity="0.22"/>
<rect x="747.967" y="464.894" width="6.50407" height="6.38298" fill="#ADA36F" fill-opacity="0.22"/>
<rect x="771.816" y="377.66" width="6.50407" height="6.38298" fill="#ADA36F" fill-opacity="0.22"/>
<rect x="680.759" y="435.106" width="6.50407" height="6.38298" fill="#ADA36F" fill-opacity="0.22"/>
<rect x="706.775" y="352.128" width="6.50407" height="6.38298" fill="#ADA36F" fill-opacity="0.22"/>
<rect x="753.387" y="330.851" width="6.50407" height="6.38298" fill="#ADA36F" fill-opacity="0.22"/>
<rect x="794.58" y="332.979" width="6.50407" height="6.38298" fill="#ADA36F" fill-opacity="0.22"/>
<rect x="784.824" y="332.979" width="6.50407" height="6.38298" fill="#ADA36F" fill-opacity="0.22"/>
<rect x="784.824" y="321.277" width="6.50407" height="6.38298" fill="#ADA36F" fill-opacity="0.22"/>
<rect x="720.867" y="313.83" width="6.50407" height="6.38298" fill="#ADA36F" fill-opacity="0.22"/>
<rect x="691.599" y="291.489" width="6.50407" height="6.38298" fill="#ADA36F" fill-opacity="0.22"/>
<rect x="741.463" y="274.468" width="6.50407" height="6.38298" fill="#ADA36F" fill-opacity="0.22"/>
<rect x="727.371" y="274.468" width="6.50407" height="6.38298" fill="#ADA36F" fill-opacity="0.22"/>
<rect x="717.615" y="238.298" width="6.50407" height="6.38298" fill="#ADA36F" fill-opacity="0.22"/>
<rect x="691.599" y="253.191" width="6.50407" height="6.38298" fill="#ADA36F" fill-opacity="0.22"/>
<rect x="703.523" y="263.83" width="6.50407" height="6.38298" fill="#ADA36F" fill-opacity="0.22"/>
<rect x="694.851" y="220.213" width="6.50407" height="6.38298" fill="#ADA36F" fill-opacity="0.22"/>
<rect x="737.127" y="213.83" width="6.50407" height="6.38298" fill="#ADA36F" fill-opacity="0.22"/>
<rect x="717.615" y="204.255" width="6.50407" height="6.38298" fill="#ADA36F" fill-opacity="0.22"/>
<rect x="741.463" y="291.489" width="6.50407" height="6.38298" fill="#ADA36F" fill-opacity="0.22"/>
<rect x="775.068" y="492.553" width="6.50407" height="6.38298" fill="#ADA36F" fill-opacity="0.22"/>
<rect x="70.4606" y="219.149" width="6.50407" height="6.38298" transform="rotate(-180 70.4606 219.149)" fill="#ADA36F" fill-opacity="0.22"/>
<rect x="80.2167" y="219.149" width="6.50407" height="6.38298" transform="rotate(-180 80.2167 219.149)" fill="#ADA36F" fill-opacity="0.22"/>
<rect x="89.9728" y="219.149" width="6.50407" height="6.38298" transform="rotate(-180 89.9728 219.149)" fill="#ADA36F" fill-opacity="0.22"/>
<rect x="99.7289" y="219.149" width="6.50407" height="6.38298" transform="rotate(-180 99.7289 219.149)" fill="#ADA36F" fill-opacity="0.22"/>
<rect x="80.2167" y="229.787" width="6.50407" height="6.38298" transform="rotate(-180 80.2167 229.787)" fill="#ADA36F" fill-opacity="0.22"/>
<rect x="89.9728" y="240.426" width="6.50407" height="6.38298" transform="rotate(-180 89.9728 240.426)" fill="#ADA36F" fill-opacity="0.22"/>
<rect x="70.4606" y="258.511" width="6.50407" height="6.38298" transform="rotate(-180 70.4606 258.511)" fill="#ADA36F" fill-opacity="0.22"/>
<rect x="99.7289" y="273.404" width="6.50407" height="6.38298" transform="rotate(-180 99.7289 273.404)" fill="#ADA36F" fill-opacity="0.22"/>
<rect x="80.2167" y="273.404" width="6.50407" height="6.38298" transform="rotate(-180 80.2167 273.404)" fill="#ADA36F" fill-opacity="0.22"/>
<rect x="109.485" y="250" width="6.50407" height="6.38298" transform="rotate(-180 109.485 250)" fill="#ADA36F" fill-opacity="0.22"/>
<rect x="70.4606" y="311.702" width="6.50407" height="6.38298" transform="rotate(-180 70.4606 311.702)" fill="#ADA36F" fill-opacity="0.22"/>
<rect x="89.9728" y="324.468" width="6.50407" height="6.38298" transform="rotate(-180 89.9728 324.468)" fill="#ADA36F" fill-opacity="0.22"/>
<rect x="144.173" y="327.66" width="6.50407" height="6.38298" transform="rotate(-180 144.173 327.66)" fill="#ADA36F" fill-opacity="0.22"/>
<rect x="168.022" y="327.66" width="6.50407" height="6.38298" transform="rotate(-180 168.022 327.66)" fill="#ADA36F" fill-opacity="0.22"/>
<rect x="121.409" y="348.936" width="6.50407" height="6.38298" transform="rotate(-180 121.409 348.936)" fill="#ADA36F" fill-opacity="0.22"/>
<rect x="80.2167" y="346.809" width="6.50407" height="6.38298" transform="rotate(-180 80.2167 346.809)" fill="#ADA36F" fill-opacity="0.22"/>
<rect x="89.9728" y="346.809" width="6.50407" height="6.38298" transform="rotate(-180 89.9728 346.809)" fill="#ADA36F" fill-opacity="0.22"/>
<rect x="89.9728" y="358.511" width="6.50407" height="6.38298" transform="rotate(-180 89.9728 358.511)" fill="#ADA36F" fill-opacity="0.22"/>
<rect x="153.93" y="365.958" width="6.50407" height="6.38298" transform="rotate(-180 153.93 365.958)" fill="#ADA36F" fill-opacity="0.22"/>
<rect x="183.198" y="388.298" width="6.50407" height="6.38298" transform="rotate(-180 183.198 388.298)" fill="#ADA36F" fill-opacity="0.22"/>
<rect x="133.333" y="405.319" width="6.50407" height="6.38298" transform="rotate(-180 133.333 405.319)" fill="#ADA36F" fill-opacity="0.22"/>
<rect x="147.425" y="405.319" width="6.50407" height="6.38298" transform="rotate(-180 147.425 405.319)" fill="#ADA36F" fill-opacity="0.22"/>
<rect x="157.182" y="441.489" width="6.50407" height="6.38298" transform="rotate(-180 157.182 441.489)" fill="#ADA36F" fill-opacity="0.22"/>
<rect x="183.198" y="426.596" width="6.50407" height="6.38298" transform="rotate(-180 183.198 426.596)" fill="#ADA36F" fill-opacity="0.22"/>
<rect x="171.274" y="415.958" width="6.50407" height="6.38298" transform="rotate(-180 171.274 415.958)" fill="#ADA36F" fill-opacity="0.22"/>
<rect x="179.946" y="459.574" width="6.50407" height="6.38298" transform="rotate(-180 179.946 459.574)" fill="#ADA36F" fill-opacity="0.22"/>
<rect x="137.669" y="465.958" width="6.50407" height="6.38298" transform="rotate(-180 137.669 465.958)" fill="#ADA36F" fill-opacity="0.22"/>
<rect x="157.182" y="475.532" width="6.50407" height="6.38298" transform="rotate(-180 157.182 475.532)" fill="#ADA36F" fill-opacity="0.22"/>
<rect x="133.333" y="388.298" width="6.50407" height="6.38298" transform="rotate(-180 133.333 388.298)" fill="#ADA36F" fill-opacity="0.22"/>
<rect x="99.7289" y="187.234" width="6.50407" height="6.38298" transform="rotate(-180 99.7289 187.234)" fill="#ADA36F" fill-opacity="0.22"/>
<rect x="363.144" y="451.064" width="6.50407" height="6.38298" fill="#ADA36F" fill-opacity="0.22"/>
<rect x="381.572" y="484.042" width="6.50407" height="6.38298" fill="#ADA36F" fill-opacity="0.22"/>
<rect x="356.64" y="406.383" width="6.50407" height="6.38298" fill="#ADA36F" fill-opacity="0.22"/>
<rect x="582.114" y="332.979" width="6.50407" height="6.38298" fill="#ADA36F" fill-opacity="0.22"/>
<rect x="609.214" y="320.213" width="6.50407" height="6.38298" fill="#ADA36F" fill-opacity="0.22"/>
<rect x="582.114" y="377.66" width="6.50407" height="6.38298" fill="#ADA36F" fill-opacity="0.22"/>
<rect x="599.458" y="396.809" width="6.50407" height="6.38298" fill="#ADA36F" fill-opacity="0.22"/>
<rect x="609.214" y="406.383" width="6.50407" height="6.38298" fill="#ADA36F" fill-opacity="0.22"/>
<rect x="582.114" y="418.085" width="6.50407" height="6.38298" fill="#ADA36F" fill-opacity="0.22"/>
<rect x="599.458" y="428.723" width="6.50407" height="6.38298" fill="#ADA36F" fill-opacity="0.22"/>
<rect x="512.737" y="392.553" width="6.50407" height="6.38298" fill="#ADA36F" fill-opacity="0.22"/>
<rect x="590.786" y="352.128" width="6.50407" height="6.38298" fill="#ADA36F" fill-opacity="0.22"/>
<rect x="599.458" y="305.319" width="6.50407" height="6.38298" fill="#ADA36F" fill-opacity="0.22"/>
<rect x="599.458" y="364.894" width="6.50407" height="6.38298" fill="#ADA36F" fill-opacity="0.22"/>
<rect x="590.786" y="364.894" width="6.50407" height="6.38298" fill="#ADA36F" fill-opacity="0.22"/>
<rect x="609.214" y="364.894" width="6.50407" height="6.38298" fill="#ADA36F" fill-opacity="0.22"/>
<rect x="590.786" y="320.213" width="6.50407" height="6.38298" fill="#ADA36F" fill-opacity="0.22"/>
<rect x="20.5961" y="410.638" width="6.50407" height="6.38298" transform="rotate(-180 20.5961 410.638)" fill="#ADA36F" fill-opacity="0.22"/>
<rect x="20.5961" y="365.958" width="6.50407" height="6.38298" transform="rotate(-180 20.5961 365.958)" fill="#ADA36F" fill-opacity="0.22"/>
<rect x="3.25195" y="346.809" width="6.50407" height="6.38298" transform="rotate(-180 3.25195 346.809)" fill="#ADA36F" fill-opacity="0.22"/>
<rect x="20.5961" y="325.532" width="6.50407" height="6.38298" transform="rotate(-180 20.5961 325.532)" fill="#ADA36F" fill-opacity="0.22"/>
<rect x="3.25195" y="314.894" width="6.50407" height="6.38298" transform="rotate(-180 3.25195 314.894)" fill="#ADA36F" fill-opacity="0.22"/>
<rect x="11.924" y="391.489" width="6.50407" height="6.38298" transform="rotate(-180 11.924 391.489)" fill="#ADA36F" fill-opacity="0.22"/>
<rect x="3.25195" y="438.298" width="6.50407" height="6.38298" transform="rotate(-180 3.25195 438.298)" fill="#ADA36F" fill-opacity="0.22"/>
<rect x="3.25195" y="378.723" width="6.50407" height="6.38298" transform="rotate(-180 3.25195 378.723)" fill="#ADA36F" fill-opacity="0.22"/>
<rect x="11.924" y="378.723" width="6.50407" height="6.38298" transform="rotate(-180 11.924 378.723)" fill="#ADA36F" fill-opacity="0.22"/>
<rect x="11.924" y="423.404" width="6.50407" height="6.38298" transform="rotate(-180 11.924 423.404)" fill="#ADA36F" fill-opacity="0.22"/>
<path d="M-45.5284 613.83H832.52V502.128H774.526L744.715 453.723L740.921 427.659L729.539 412.766V392.553H707.859V472.34L530.623 464.362L501.897 401.596H484.011V439.362H421.138L363.686 502.128L358.808 472.34L347.425 447.872V392.553L336.043 362.234H327.371L315.447 392.553H306.775L293.767 329.787H276.423L263.957 392.553H255.827L246.07 362.234H236.856L227.642 392.553V503.191H203.252V439.362H151.762V382.979H96.477V439.362H-45.5284V613.83Z" fill="url(#paint3_radial_149_41)"/>
<path d="M148.509 442.553V385.638H93.7669L12.4661 442.553H-14.6342V611.17H813.55V509.043H775.61L754.472 473.936L742.547 455.851L739.295 428.723L727.913 413.83V394.149H709.485V440.957V473.936L634.688 471.809L550.135 468.085L518.157 443.085L500.271 403.723H486.179V441.489H442.276L404.336 462.234L362.06 507.979L356.098 473.404L344.715 449.468V393.617L334.417 364.894H329.539L317.615 394.681H305.149L291.599 332.979H278.591L266.125 394.681H254.201L243.902 364.894H239.024L230.352 393.617V505.851H220.054L186.992 442.553H148.509Z" stroke="url(#paint4_linear_149_41)"/>
<path d="M280.759 336.17H289.973L301.897 395.213V552.128H269.377V395.213L280.759 336.17Z" fill="url(#paint5_linear_149_41)" fill-opacity="0.25"/>
<path d="M240.108 367.021H242.818L251.491 389.943V552.128H231.978V389.943L240.108 367.021Z" fill="url(#paint6_linear_149_41)" fill-opacity="0.25"/>
<path d="M330.334 367.021H333.105L343.631 390.376L342.523 552.128H322.578L318.699 390.376L330.334 367.021Z" fill="url(#paint7_linear_149_41)" fill-opacity="0.25"/>
<path d="M442.818 442.553H467.209V552.128H443.36L412.466 459.043L442.818 442.553Z" fill="url(#paint8_linear_149_41)" fill-opacity="0.25"/>
<path d="M710.027 394.681H727.371V544.681H710.027V394.681Z" fill="url(#paint9_linear_149_41)" fill-opacity="0.25"/>
<path d="M486.721 442.021V404.255H499.729L555.556 521.277L507.859 550H486.721V442.021Z" fill="url(#paint10_linear_149_41)" fill-opacity="0.25"/>
<mask id="mask1_149_41" style="mask-type:alpha" maskUnits="userSpaceOnUse" x="-15" y="332" width="829" height="280">
<path d="M148.509 442.553V385.638H93.7669L12.4661 442.553H-14.6342V611.17H813.55V509.043H775.61L754.472 473.936L742.547 455.851L739.295 428.723L727.913 413.83V394.149H709.485V440.957V473.936L634.688 471.809L550.135 468.085L518.157 443.085L500.271 403.723H486.179V441.489H442.276L404.336 462.234L362.06 507.979L356.098 473.404L344.715 449.468V393.617L334.417 364.894H329.539L317.615 394.681H305.149L291.599 332.979H278.591L266.125 394.681H254.201L243.902 364.894H239.024L230.352 393.617V505.851H220.054L186.992 442.553H148.509Z" fill="#D9D9D9"/>
</mask>
<g mask="url(#mask1_149_41)">
<path d="M-3.25201 389.362V568.085H810.84V389.362H-3.25201Z" fill="url(#paint11_linear_149_41)"/>
</g>
<path d="M183.198 427.66V491.489H175.61V463.83L144.173 479.255V491.489H135.501V417.021L124.119 402.66H112.737V377.66H104.065V367.021H69.3767V377.66H61.7886V402.128H45.5285L31.4363 413.83H21.1382L-32.5203 491.489V637.234H831.978V491.489L783.74 457.447H772.9L763.957 491.489H738.211V469.149L722.764 455.851H715.447L690.515 429.787H682.927V455.851H676.423V368.085H640.65V421.277H630.894V469.149H615.718V446.809H596.206V394.149H589.16V446.809H583.198V469.149H555.014V434.575L545.257 430.319V414.894H522.493V441.489L505.149 456.383V519.149H494.851L487.263 552.128H466.125L460.705 518.085H452.575V464.894H440.65L435.23 404.255H420.054V314.362H413.55V390.426H401.626V419.149L392.412 434.575V519.681H378.32V503.192H357.182V519.681H341.463V455.851L331.707 427.66L306.775 413.83V434.043H298.103V455.319H291.599V546.277H281.301L262.331 526.596H239.566V546.809H222.222V437.234L209.756 439.894L189.702 413.83V427.66H183.198Z" fill="url(#paint12_radial_149_41)"/>
<mask id="mask2_149_41" style="mask-type:alpha" maskUnits="userSpaceOnUse" x="23" y="371" width="780" height="221">
<rect x="73.7129" y="371.277" width="26.0163" height="7.44681" fill="#FFFCAB" fill-opacity="0.25"/>
<rect x="66.1248" y="381.915" width="42.2764" height="7.44681" fill="#FFFCAB" fill-opacity="0.25"/>
<rect x="66.1248" y="392.553" width="42.2764" height="7.44681" fill="#FFFCAB" fill-opacity="0.25"/>
<rect x="23.8484" y="424.468" width="107.317" height="7.44681" fill="#FFFCAB" fill-opacity="0.25"/>
<rect x="23.8483" y="435.106" width="107.317" height="7.44681" fill="#FFFCAB" fill-opacity="0.25"/>
<rect x="23.8483" y="445.745" width="107.317" height="7.44681" fill="#FFFCAB" fill-opacity="0.25"/>
<rect x="23.8483" y="456.383" width="107.317" height="7.44681" fill="#FFFCAB" fill-opacity="0.25"/>
<rect x="23.8483" y="467.021" width="107.317" height="7.44681" fill="#FFFCAB" fill-opacity="0.25"/>
<rect x="23.8483" y="477.66" width="107.317" height="7.44681" fill="#FFFCAB" fill-opacity="0.25"/>
<rect x="23.8483" y="488.298" width="107.317" height="7.44681" fill="#FFFCAB" fill-opacity="0.25"/>
<rect x="23.8483" y="498.936" width="107.317" height="7.44681" fill="#FFFCAB" fill-opacity="0.25"/>
<rect x="23.8483" y="509.574" width="107.317" height="7.44681" fill="#FFFCAB" fill-opacity="0.25"/>
<rect x="23.8483" y="520.213" width="107.317" height="7.44681" fill="#FFFCAB" fill-opacity="0.25"/>
<rect x="23.8483" y="530.851" width="107.317" height="7.44681" fill="#FFFCAB" fill-opacity="0.25"/>
<rect x="148.51" y="491.489" width="22.7642" height="7.44681" fill="#FFFCAB" fill-opacity="0.25"/>
<rect x="148.51" y="502.128" width="22.7642" height="7.44681" fill="#FFFCAB" fill-opacity="0.25"/>
<rect x="148.51" y="512.766" width="22.7642" height="7.44681" fill="#FFFCAB" fill-opacity="0.25"/>
<rect x="148.51" y="523.404" width="22.7642" height="7.44681" fill="#FFFCAB" fill-opacity="0.25"/>
<rect x="148.51" y="534.042" width="22.7642" height="7.44681" fill="#FFFCAB" fill-opacity="0.25"/>
<rect x="148.51" y="544.681" width="22.7642" height="7.44681" fill="#FFFCAB" fill-opacity="0.25"/>
<rect x="148.51" y="555.319" width="22.7642" height="7.44681" fill="#FFFCAB" fill-opacity="0.25"/>
<rect x="187.534" y="451.064" width="30.3523" height="7.44681" fill="#FFFCAB" fill-opacity="0.25"/>
<rect x="187.534" y="461.702" width="30.3523" height="7.44681" fill="#FFFCAB" fill-opacity="0.25"/>
<rect x="187.534" y="472.34" width="30.3523" height="7.44681" fill="#FFFCAB" fill-opacity="0.25"/>
<rect x="187.534" y="482.979" width="30.3523" height="7.44681" fill="#FFFCAB" fill-opacity="0.25"/>
<rect x="187.534" y="493.617" width="30.3523" height="7.44681" fill="#FFFCAB" fill-opacity="0.25"/>
<rect x="187.534" y="504.255" width="30.3523" height="7.44681" fill="#FFFCAB" fill-opacity="0.25"/>
<rect x="187.534" y="514.894" width="30.3523" height="7.44681" fill="#FFFCAB" fill-opacity="0.25"/>
<rect x="187.534" y="525.532" width="30.3523" height="7.44681" fill="#FFFCAB" fill-opacity="0.25"/>
<rect x="187.534" y="536.17" width="30.3523" height="7.44681" fill="#FFFCAB" fill-opacity="0.25"/>
<rect x="187.534" y="546.809" width="30.3523" height="7.44681" fill="#FFFCAB" fill-opacity="0.25"/>
<rect x="187.534" y="557.447" width="30.3523" height="7.44681" fill="#FFFCAB" fill-opacity="0.25"/>
<path d="M242.819 540.426H271.003L279.133 548.936H242.819V540.426Z" fill="#FFFCAB" fill-opacity="0.25"/>
<path d="M242.819 529.787H261.247L268.293 537.234H242.819V529.787Z" fill="#FFFCAB" fill-opacity="0.25"/>
<path d="M188.076 431.915H194.038V426.596L202.71 437.234H188.076V431.915Z" fill="#FFFCAB" fill-opacity="0.25"/>
<path d="M187.534 440.426H204.878L208.13 444.681L217.886 442.553V447.872H187.534V440.426Z" fill="#FFFCAB" fill-opacity="0.25"/>
<rect x="242.819" y="552.128" width="36.8564" height="7.44681" fill="#FFFCAB" fill-opacity="0.25"/>
<rect x="242.819" y="562.766" width="36.8564" height="7.44681" fill="#FFFCAB" fill-opacity="0.25"/>
<rect x="242.819" y="573.404" width="36.8564" height="7.44681" fill="#FFFCAB" fill-opacity="0.25"/>
<rect x="242.819" y="584.042" width="36.8564" height="7.44681" fill="#FFFCAB" fill-opacity="0.25"/>
<rect x="295.935" y="459.574" width="41.1924" height="7.44681" fill="#FFFCAB" fill-opacity="0.25"/>
<rect x="295.935" y="470.213" width="41.1924" height="7.44681" fill="#FFFCAB" fill-opacity="0.25"/>
<rect x="295.935" y="480.851" width="41.1924" height="7.44681" fill="#FFFCAB" fill-opacity="0.25"/>
<rect x="295.935" y="491.489" width="41.1924" height="7.44681" fill="#FFFCAB" fill-opacity="0.25"/>
<rect x="295.935" y="502.128" width="41.1924" height="7.44681" fill="#FFFCAB" fill-opacity="0.25"/>
<rect x="295.935" y="512.766" width="41.1924" height="7.44681" fill="#FFFCAB" fill-opacity="0.25"/>
<rect x="295.935" y="523.404" width="41.1924" height="7.44681" fill="#FFFCAB" fill-opacity="0.25"/>
<rect x="295.935" y="534.042" width="41.1924" height="7.44681" fill="#FFFCAB" fill-opacity="0.25"/>
<rect x="295.935" y="544.681" width="41.1924" height="7.44681" fill="#FFFCAB" fill-opacity="0.25"/>
<rect x="295.935" y="555.319" width="41.1924" height="7.44681" fill="#FFFCAB" fill-opacity="0.25"/>
<rect x="360.976" y="507.447" width="13.0081" height="7.44681" fill="#FFFCAB" fill-opacity="0.25"/>
<rect x="360.976" y="518.085" width="13.0081" height="7.44681" fill="#FFFCAB" fill-opacity="0.25"/>
<rect x="360.976" y="528.723" width="13.0081" height="7.44681" fill="#FFFCAB" fill-opacity="0.25"/>
<rect x="360.976" y="539.362" width="13.0081" height="7.44681" fill="#FFFCAB" fill-opacity="0.25"/>
<rect x="360.976" y="550" width="13.0081" height="7.44681" fill="#FFFCAB" fill-opacity="0.25"/>
<rect x="360.976" y="560.638" width="13.0081" height="7.44681" fill="#FFFCAB" fill-opacity="0.25"/>
<path d="M396.748 437.234H433.604L434.146 444.681H396.748V437.234Z" fill="#FFFCAB" fill-opacity="0.25"/>
<path d="M401.626 426.596H432.52L433.062 434.043H397.29L401.626 426.596Z" fill="#FFFCAB" fill-opacity="0.25"/>
<path d="M405.962 405.319H415.718V408.511H429.81L430.894 412.766H405.962V405.319Z" fill="#FFFCAB" fill-opacity="0.25"/>
<path d="M405.962 415.958H431.436L431.978 423.404H403.794L405.962 419.681V415.958Z" fill="#FFFCAB" fill-opacity="0.25"/>
<path d="M396.748 447.872H434.688L435.23 455.319H396.748V447.872Z" fill="#FFFCAB" fill-opacity="0.25"/>
<path d="M396.748 458.511H435.772L436.314 465.958H396.748V458.511Z" fill="#FFFCAB" fill-opacity="0.25"/>
<rect x="396.748" y="469.149" width="50.9485" height="7.44681" fill="#FFFCAB" fill-opacity="0.25"/>
<path d="M405.962 394.681H415.718V402.128H405.962V394.681Z" fill="#FFFCAB" fill-opacity="0.25"/>
<rect x="396.748" y="479.787" width="50.9485" height="7.44681" fill="#FFFCAB" fill-opacity="0.25"/>
<rect x="526.829" y="419.149" width="14.0921" height="7.44681" fill="#FFFCAB" fill-opacity="0.25"/>
<path d="M526.829 429.787H540.921V432.979L550.678 437.234H526.829V429.787Z" fill="#FFFCAB" fill-opacity="0.25"/>
<path d="M526.829 440.426H550.678V447.872H521.409L526.829 443.085V440.426Z" fill="#FFFCAB" fill-opacity="0.25"/>
<path d="M517.615 451.064H550.678V458.511H509.485L517.615 451.064Z" fill="#FFFCAB" fill-opacity="0.25"/>
<rect x="509.485" y="461.702" width="41.1924" height="7.44681" fill="#FFFCAB" fill-opacity="0.25"/>
<rect x="509.485" y="472.34" width="41.1924" height="7.44681" fill="#FFFCAB" fill-opacity="0.25"/>
<rect x="587.534" y="451.064" width="23.8482" height="7.44681" fill="#FFFCAB" fill-opacity="0.25"/>
<rect x="587.534" y="461.702" width="23.8482" height="7.44681" fill="#FFFCAB" fill-opacity="0.25"/>
<rect x="587.534" y="472.34" width="23.8482" height="7.44681" fill="#FFFCAB" fill-opacity="0.25"/>
<rect x="587.534" y="482.979" width="23.8482" height="7.44681" fill="#FFFCAB" fill-opacity="0.25"/>
<rect x="587.534" y="493.617" width="23.8482" height="7.44681" fill="#FFFCAB" fill-opacity="0.25"/>
<rect x="587.534" y="504.255" width="23.8482" height="7.44681" fill="#FFFCAB" fill-opacity="0.25"/>
<rect x="587.534" y="514.894" width="23.8482" height="7.44681" fill="#FFFCAB" fill-opacity="0.25"/>
<rect x="587.534" y="525.532" width="23.8482" height="7.44681" fill="#FFFCAB" fill-opacity="0.25"/>
<rect x="587.534" y="536.17" width="23.8482" height="7.44681" fill="#FFFCAB" fill-opacity="0.25"/>
<rect x="587.534" y="546.809" width="23.8482" height="7.44681" fill="#FFFCAB" fill-opacity="0.25"/>
<rect x="587.534" y="557.447" width="23.8482" height="7.44681" fill="#FFFCAB" fill-opacity="0.25"/>
<rect x="635.23" y="425.532" width="36.8564" height="7.44681" fill="#FFFCAB" fill-opacity="0.25"/>
<rect x="644.987" y="414.894" width="27.1003" height="7.44681" fill="#FFFCAB" fill-opacity="0.25"/>
<rect x="644.987" y="404.255" width="27.1003" height="7.44681" fill="#FFFCAB" fill-opacity="0.25"/>
<rect x="644.987" y="393.617" width="27.1003" height="7.44681" fill="#FFFCAB" fill-opacity="0.25"/>
<rect x="644.987" y="382.979" width="27.1003" height="7.44681" fill="#FFFCAB" fill-opacity="0.25"/>
<rect x="644.987" y="372.34" width="27.1003" height="7.44681" fill="#FFFCAB" fill-opacity="0.25"/>
<rect x="635.23" y="436.17" width="36.8564" height="7.44681" fill="#FFFCAB" fill-opacity="0.25"/>
<path d="M687.263 444.681H699.729L706.775 452.128H687.263V444.681Z" fill="#FFFCAB" fill-opacity="0.25"/>
<rect x="687.263" y="455.319" width="22.7642" height="7.44681" fill="#FFFCAB" fill-opacity="0.25"/>
<path d="M776.152 461.702H784.824L795.122 469.149H773.984L776.152 461.702Z" fill="#FFFCAB" fill-opacity="0.25"/>
<path d="M773.25 472.34H799.458L802.168 474.468V479.787H771.274L773.25 472.34Z" fill="#FFFCAB" fill-opacity="0.25"/>
<path d="M770.53 482.979H802.168V490.426H768.564L770.53 482.979Z" fill="#FFFCAB" fill-opacity="0.25"/>
<path d="M767.48 493.617H802.168V501.064H766.396V495.745V494.681H766.938L767.48 493.617Z" fill="#FFFCAB" fill-opacity="0.25"/>
<rect x="766.396" y="504.255" width="35.7724" height="7.44681" fill="#FFFCAB" fill-opacity="0.25"/>
<rect x="766.396" y="514.894" width="35.7724" height="7.44681" fill="#FFFCAB" fill-opacity="0.25"/>
<rect x="766.396" y="525.532" width="35.7724" height="7.44681" fill="#FFFCAB" fill-opacity="0.25"/>
<rect x="766.396" y="536.17" width="35.7724" height="7.44681" fill="#FFFCAB" fill-opacity="0.25"/>
<rect x="687.263" y="465.958" width="22.7642" height="7.44681" fill="#FFFCAB" fill-opacity="0.25"/>
<rect x="687.263" y="476.596" width="22.7642" height="7.44681" fill="#FFFCAB" fill-opacity="0.25"/>
<rect x="687.263" y="487.234" width="22.7642" height="7.44681" fill="#FFFCAB" fill-opacity="0.25"/>
<rect x="687.263" y="497.872" width="22.7642" height="7.44681" fill="#FFFCAB" fill-opacity="0.25"/>
<rect x="687.263" y="508.511" width="22.7642" height="7.44681" fill="#FFFCAB" fill-opacity="0.25"/>
<rect x="687.263" y="519.149" width="22.7642" height="7.44681" fill="#FFFCAB" fill-opacity="0.25"/>
<rect x="687.263" y="529.787" width="22.7642" height="7.44681" fill="#FFFCAB" fill-opacity="0.25"/>
<rect x="687.263" y="540.426" width="22.7642" height="7.44681" fill="#FFFCAB" fill-opacity="0.25"/>
<rect x="687.263" y="551.064" width="22.7642" height="7.44681" fill="#FFFCAB" fill-opacity="0.25"/>
<rect x="687.263" y="561.702" width="22.7642" height="7.44681" fill="#FFFCAB" fill-opacity="0.25"/>
<rect x="687.263" y="572.34" width="22.7642" height="7.44681" fill="#FFFCAB" fill-opacity="0.25"/>
<rect x="635.23" y="446.809" width="36.8564" height="7.44681" fill="#FFFCAB" fill-opacity="0.25"/>
<rect x="635.23" y="457.447" width="36.8564" height="7.44681" fill="#FFFCAB" fill-opacity="0.25"/>
<rect x="635.23" y="468.085" width="36.8564" height="7.44681" fill="#FFFCAB" fill-opacity="0.25"/>
<rect x="635.23" y="478.723" width="36.8564" height="7.44681" fill="#FFFCAB" fill-opacity="0.25"/>
<rect x="635.23" y="489.362" width="36.8564" height="7.44681" fill="#FFFCAB" fill-opacity="0.25"/>
<rect x="635.23" y="500" width="36.8564" height="7.44681" fill="#FFFCAB" fill-opacity="0.25"/>
<rect x="635.23" y="510.638" width="36.8564" height="7.44681" fill="#FFFCAB" fill-opacity="0.25"/>
<rect x="635.23" y="521.277" width="36.8564" height="7.44681" fill="#FFFCAB" fill-opacity="0.25"/>
<rect x="635.23" y="531.915" width="36.8564" height="7.44681" fill="#FFFCAB" fill-opacity="0.25"/>
<rect x="635.23" y="542.553" width="36.8564" height="7.44681" fill="#FFFCAB" fill-opacity="0.25"/>
<rect x="635.23" y="553.191" width="36.8564" height="7.44681" fill="#FFFCAB" fill-opacity="0.25"/>
<rect x="509.485" y="482.979" width="41.1924" height="7.44681" fill="#FFFCAB" fill-opacity="0.25"/>
<rect x="509.485" y="493.617" width="41.1924" height="7.44681" fill="#FFFCAB" fill-opacity="0.25"/>
<rect x="509.485" y="504.255" width="41.1924" height="7.44681" fill="#FFFCAB" fill-opacity="0.25"/>
<rect x="509.485" y="514.894" width="41.1924" height="7.44681" fill="#FFFCAB" fill-opacity="0.25"/>
<rect x="509.485" y="525.532" width="41.1924" height="7.44681" fill="#FFFCAB" fill-opacity="0.25"/>
<rect x="396.748" y="490.426" width="50.9485" height="7.44681" fill="#FFFCAB" fill-opacity="0.25"/>
<rect x="396.748" y="501.064" width="50.9485" height="7.44681" fill="#FFFCAB" fill-opacity="0.25"/>
<rect x="396.748" y="511.702" width="50.9485" height="7.44681" fill="#FFFCAB" fill-opacity="0.25"/>
<path d="M396.748 522.34H457.453L458.537 529.787H396.748V522.34Z" fill="#FFFCAB" fill-opacity="0.25"/>
<path d="M396.748 532.979H459.079L460.163 539.894L396.748 540.426V532.979Z" fill="#FFFCAB" fill-opacity="0.25"/>
<path d="M396.748 543.617H460.705L461.789 551.064H396.748V543.617Z" fill="#FFFCAB" fill-opacity="0.25"/>
<rect x="396.748" y="554.255" width="50.9485" height="7.44681" fill="#FFFCAB" fill-opacity="0.25"/>
<path d="M302.439 448.936H333.876L336.586 456.383H302.439V448.936Z" fill="#FFFCAB" fill-opacity="0.25"/>
<path d="M302.439 438.298H330.623L333.334 445.745H302.439V438.298Z" fill="#FFFCAB" fill-opacity="0.25"/>
<path d="M311.111 420.213L328.223 429.721L330.081 435.107H311.111V420.213Z" fill="#FFFCAB" fill-opacity="0.25"/>
<path d="M148.51 481.915L171.274 470.213V488.298H148.51V481.915Z" fill="#FFFCAB" fill-opacity="0.25"/>
<path d="M38.7683 413.83H127.913L131.165 418.085V421.277H23.8483V418.085H33.6044L38.7683 413.83Z" fill="#FFFCAB" fill-opacity="0.25"/>
<path d="M65.9591 403.191H107.966V406.449H120.891L124.119 410.638H41.7347L46.6127 406.449H65.9591V403.191Z" fill="#FFFCAB" fill-opacity="0.25"/>
<path d="M687.263 434.042H689.973L697.019 441.489H687.263V434.042Z" fill="#FFFCAB" fill-opacity="0.25"/>
</mask>
<g mask="url(#mask2_149_41)">
<rect x="16.2602" y="365.958" width="817.344" height="218.085" fill="url(#paint13_linear_149_41)"/>
</g>
<path d="M853.117 384.574C588.076 506.915 234.146 495.745 -39.0244 400V-27.1277H853.117V384.574Z" fill="url(#paint14_radial_149_41)"/>
<path d="M17.3442 491.489C4.87803 480.851 -2.16804 479.787 -14.0922 491.489V614.362H824.932C832.52 586.525 841.734 528.085 817.886 517.021C788.076 503.191 741.463 576.064 727.371 577.128C713.279 578.191 654.743 549.468 638.482 549.468C622.222 549.468 614.634 566.489 603.794 565.425C592.954 564.362 571.274 502.659 547.967 504.255C524.661 505.851 508.943 540.425 494.851 540.425C480.759 540.425 469.377 557.979 448.238 549.468C427.1 540.957 407.588 552.128 396.748 564.362C385.908 576.596 337.127 557.979 319.241 552.128C301.355 546.277 283.469 571.808 250.406 571.808C217.344 571.808 209.214 544.681 187.534 543.617C165.854 542.553 168.022 555.851 156.098 557.979C144.173 560.106 127.371 513.83 108.401 515.425C89.4309 517.021 108.401 523.96 85.0948 524.468C60.7046 525 64.4986 491.489 50.4065 491.489C36.3143 491.489 29.8103 502.128 17.3442 491.489Z" fill="#180D1D"/>
<path d="M16.4364 486.17C16.2557 489.894 16.4365 496.808 14.2684 500C17.5203 503.191 24.5665 503.191 26.7345 500C24.5661 496.277 25.1087 490.425 25.1087 486.17C31.0708 488.298 32.6968 488.298 40.8269 486.702C40.8269 486.702 27.2767 484.042 25.1087 480.319C25.1087 480.319 33.2388 482.447 37.5748 480.319C37.5748 480.319 25.6503 476.596 24.0243 474.468C24.0243 474.468 31.0708 477.128 34.8648 473.936C34.8648 473.936 27.2767 470.745 23.4827 467.021C23.4827 467.021 27.8187 469.149 31.6128 467.021C31.6128 467.021 25.1087 465.425 22.9407 461.702C21.8567 460.106 21.8567 455.319 20.7727 455.319C19.6887 455.319 19.6887 459.574 18.6047 461.702C16.9786 464.894 10.4746 467.021 10.4746 467.021C15.3526 468.617 18.0626 467.021 18.0626 467.021C13.7266 470.745 6.68053 472.34 6.68053 472.34C14.2686 475.532 17.5203 474.468 17.5203 474.468C15.3521 477.66 2.88639 479.255 2.88639 479.255C9.93246 482.447 15.8946 480.319 15.8946 480.319C14.2686 484.043 2.16803 486.17 2.16803 486.17C8.84835 488.298 13.0037 487.411 16.4364 486.17Z" fill="#180D1D"/>
<path d="M219.146 565.958C218.966 569.681 219.146 576.596 216.978 579.787C220.23 582.979 227.277 582.979 229.445 579.787C227.276 576.064 227.819 570.213 227.819 565.958C233.781 568.085 235.407 568.085 243.537 566.489C243.537 566.489 229.987 563.83 227.819 560.107C227.819 560.107 235.949 562.234 240.285 560.107C240.285 560.107 228.36 556.383 226.734 554.255C226.734 554.255 233.781 556.915 237.575 553.723C237.575 553.723 229.987 550.532 226.193 546.809C226.193 546.809 230.529 548.936 234.323 546.809C234.323 546.809 227.819 545.213 225.651 541.489C224.567 539.894 224.567 535.106 223.483 535.106C222.399 535.106 222.399 539.362 221.315 541.489C219.689 544.681 213.185 546.809 213.185 546.809C218.063 548.404 220.773 546.809 220.773 546.809C216.437 550.532 209.391 552.128 209.391 552.128C216.979 555.319 220.23 554.255 220.23 554.255C218.062 557.447 205.596 559.043 205.596 559.043C212.642 562.234 218.605 560.107 218.605 560.107C216.979 563.83 204.878 565.958 204.878 565.958C211.558 568.085 215.714 567.199 219.146 565.958Z" fill="#180D1D"/>
<path d="M382.832 558.511C382.651 562.234 382.832 569.149 380.664 572.34C383.916 575.532 390.962 575.532 393.13 572.34C390.962 568.617 391.504 562.766 391.504 558.51C397.466 560.638 399.092 560.638 407.223 559.042C407.223 559.042 393.672 556.383 391.504 552.66C391.504 552.66 399.634 554.787 403.971 552.66C403.971 552.66 392.046 548.936 390.42 546.808C390.42 546.808 397.466 549.468 401.261 546.276C401.261 546.276 393.672 543.085 389.878 539.362C389.878 539.362 394.214 541.489 398.008 539.362C398.008 539.362 391.504 537.766 389.336 534.042C388.252 532.447 388.252 527.659 387.168 527.659C386.084 527.659 386.084 531.915 385 534.042C383.374 537.234 376.87 539.362 376.87 539.362C381.748 540.957 384.458 539.362 384.458 539.362C380.122 543.085 373.076 544.681 373.076 544.681C380.664 547.872 383.916 546.808 383.916 546.808C381.748 550 369.282 551.596 369.282 551.596C376.328 554.787 382.29 552.66 382.29 552.66C380.664 556.383 368.564 558.511 368.564 558.511C375.244 560.638 379.399 559.752 382.832 558.511Z" fill="#180D1D"/>
<path d="M510.745 531.915C510.565 535.638 510.745 542.553 508.577 545.745C511.829 548.936 518.875 548.936 521.043 545.745C518.875 542.021 519.418 536.17 519.418 531.915C525.38 534.042 527.006 534.042 535.136 532.447C535.136 532.447 521.586 529.787 519.418 526.064C519.418 526.064 527.548 528.191 531.884 526.064C531.884 526.064 519.959 522.34 518.333 520.213C518.333 520.213 525.38 522.872 529.174 519.681C529.174 519.681 521.586 516.489 517.792 512.766C517.792 512.766 522.128 514.894 525.922 512.766C525.922 512.766 519.418 511.17 517.25 507.447C516.166 505.851 516.166 501.064 515.082 501.064C513.998 501.064 513.998 505.319 512.914 507.447C511.288 510.638 504.783 512.766 504.783 512.766C509.662 514.362 512.372 512.766 512.372 512.766C508.036 516.489 500.989 518.085 500.989 518.085C508.578 521.276 511.829 520.213 511.829 520.213C509.661 523.404 497.195 525 497.195 525C504.241 528.191 510.204 526.064 510.204 526.064C508.578 529.787 496.477 531.915 496.477 531.915C503.157 534.042 507.313 533.156 510.745 531.915Z" fill="#180D1D"/>
<path d="M587.71 557.447C587.529 561.17 587.71 568.085 585.542 571.277C588.794 574.468 595.84 574.468 598.008 571.277C595.84 567.553 596.382 561.702 596.382 557.447C602.344 559.574 603.97 559.574 612.1 557.979C612.1 557.979 598.55 555.319 596.382 551.596C596.382 551.596 604.512 553.723 608.848 551.596C608.848 551.596 596.924 547.872 595.298 545.745C595.298 545.745 602.344 548.404 606.138 545.213C606.138 545.213 598.55 542.021 594.756 538.298C594.756 538.298 599.092 540.425 602.886 538.298C602.886 538.298 596.382 536.702 594.214 532.979C593.13 531.383 593.13 526.596 592.046 526.596C590.962 526.596 590.962 530.851 589.878 532.979C588.252 536.17 581.748 538.298 581.748 538.298C586.626 539.894 589.336 538.298 589.336 538.298C585 542.021 577.954 543.617 577.954 543.617C585.542 546.808 588.794 545.745 588.794 545.745C586.626 548.936 574.16 550.532 574.16 550.532C581.206 553.723 587.168 551.596 587.168 551.596C585.542 555.319 573.442 557.447 573.442 557.447C580.122 559.574 584.277 558.688 587.71 557.447Z" fill="#180D1D"/>
<path d="M39.2006 501.064C39.0199 504.787 39.2007 511.702 37.0326 514.894C40.2845 518.085 47.3307 518.085 49.4988 514.894C47.3304 511.17 47.8729 505.319 47.8729 501.064C53.835 503.191 55.461 503.191 63.5911 501.596C63.5911 501.596 50.041 498.936 47.8729 495.213C47.8729 495.213 56.003 497.34 60.3391 495.213C60.3391 495.213 48.4146 491.489 46.7886 489.362C46.7886 489.362 53.835 492.021 57.629 488.83C57.629 488.83 50.041 485.638 46.2469 481.915C46.2469 481.915 50.583 484.042 54.377 481.915C54.377 481.915 47.8729 480.319 45.7049 476.596C44.6209 475 44.6209 470.213 43.5369 470.213C42.4529 470.213 42.4529 474.468 41.3689 476.596C39.7429 479.787 33.2388 481.915 33.2388 481.915C38.1168 483.511 40.8269 481.915 40.8269 481.915C36.4908 485.638 29.4448 487.234 29.4448 487.234C37.0328 490.425 40.2845 489.362 40.2845 489.362C38.1163 492.553 25.6506 494.149 25.6506 494.149C32.6967 497.34 38.6588 495.213 38.6588 495.213C37.0328 498.936 24.9323 501.064 24.9323 501.064C31.6126 503.191 35.7679 502.305 39.2006 501.064Z" fill="#180D1D"/>
<path d="M73.0425 519.558C72.9412 521.661 73.0425 525.568 71.8266 527.371C73.6503 529.174 77.6019 529.174 78.8178 527.371C77.6017 525.267 77.906 521.962 77.906 519.558C81.2496 520.76 82.1614 520.76 86.7209 519.858C86.7209 519.858 79.1218 518.356 77.906 516.252C77.906 516.252 82.4654 517.454 84.8971 516.252C84.8971 516.252 78.2097 514.148 77.2979 512.946C77.2979 512.946 81.2496 514.449 83.3773 512.646C83.3773 512.646 79.1218 510.843 76.9941 508.739C76.9941 508.739 79.4258 509.941 81.5535 508.739C81.5535 508.739 77.906 507.838 76.6901 505.734C76.0822 504.832 76.0822 502.128 75.4743 502.128C74.8664 502.128 74.8664 504.532 74.2585 505.734C73.3466 507.537 69.699 508.739 69.699 508.739C72.4347 509.641 73.9545 508.739 73.9545 508.739C71.5228 510.843 67.5713 511.744 67.5713 511.744C71.8268 513.547 73.6503 512.946 73.6503 512.946C72.4344 514.749 65.4435 515.651 65.4435 515.651C69.395 517.454 72.7386 516.252 72.7386 516.252C71.8268 518.356 65.0406 519.558 65.0406 519.558C68.787 520.76 71.1174 520.259 73.0425 519.558Z" fill="#180D1D"/>
<path d="M165.183 551.473C165.082 553.576 165.183 557.483 163.968 559.286C165.791 561.089 169.743 561.089 170.959 559.286C169.743 557.182 170.047 553.877 170.047 551.472C173.39 552.675 174.302 552.675 178.862 551.773C178.862 551.773 171.263 550.27 170.047 548.167C170.047 548.167 174.606 549.369 177.038 548.167C177.038 548.167 170.351 546.063 169.439 544.861C169.439 544.861 173.39 546.364 175.518 544.561C175.518 544.561 171.263 542.757 169.135 540.654C169.135 540.654 171.567 541.856 173.694 540.654C173.694 540.654 170.047 539.752 168.831 537.649C168.223 536.747 168.223 534.042 167.615 534.042C167.007 534.042 167.007 536.447 166.399 537.649C165.487 539.452 161.84 540.654 161.84 540.654C164.576 541.555 166.095 540.654 166.095 540.654C163.664 542.757 159.712 543.659 159.712 543.659C163.968 545.462 165.791 544.861 165.791 544.861C164.575 546.664 157.584 547.566 157.584 547.566C161.536 549.369 164.88 548.167 164.88 548.167C163.968 550.27 157.182 551.473 157.182 551.473C160.928 552.675 163.258 552.174 165.183 551.473Z" fill="#180D1D"/>
<path d="M127.243 540.834C127.142 542.938 127.243 546.845 126.027 548.648C127.851 550.451 131.802 550.451 133.018 548.648C131.802 546.544 132.107 543.238 132.107 540.834C135.45 542.036 136.362 542.036 140.921 541.135C140.921 541.135 133.322 539.632 132.107 537.529C132.107 537.529 136.666 538.731 139.098 537.529C139.098 537.529 132.41 535.425 131.498 534.223C131.498 534.223 135.45 535.726 137.578 533.922C137.578 533.922 133.322 532.119 131.195 530.016C131.195 530.016 133.626 531.218 135.754 530.016C135.754 530.016 132.107 529.114 130.891 527.01C130.283 526.109 130.283 523.404 129.675 523.404C129.067 523.404 129.067 525.808 128.459 527.01C127.547 528.814 123.9 530.016 123.9 530.016C126.635 530.917 128.155 530.016 128.155 530.016C125.723 532.119 121.772 533.021 121.772 533.021C126.027 534.824 127.851 534.223 127.851 534.223C126.635 536.026 119.644 536.928 119.644 536.928C123.596 538.731 126.939 537.529 126.939 537.529C126.027 539.632 119.241 540.834 119.241 540.834C122.988 542.036 125.318 541.536 127.243 540.834Z" fill="#180D1D"/>
<path d="M191.2 545.089C191.098 547.193 191.2 551.1 189.984 552.903C191.808 554.706 195.759 554.706 196.975 552.903C195.759 550.799 196.063 547.494 196.063 545.089C199.407 546.291 200.319 546.291 204.878 545.39C204.878 545.39 197.279 543.887 196.063 541.784C196.063 541.784 200.623 542.986 203.054 541.784C203.054 541.784 196.367 539.68 195.455 538.478C195.455 538.478 199.407 539.981 201.535 538.178C201.535 538.178 197.279 536.374 195.151 534.271C195.151 534.271 197.583 535.473 199.711 534.271C199.711 534.271 196.063 533.369 194.847 531.266C194.239 530.364 194.239 527.659 193.632 527.659C193.024 527.659 193.024 530.064 192.416 531.266C191.504 533.069 187.856 534.271 187.856 534.271C190.592 535.172 192.112 534.271 192.112 534.271C189.68 536.374 185.729 537.276 185.729 537.276C189.984 539.079 191.808 538.478 191.808 538.478C190.592 540.281 183.601 541.183 183.601 541.183C187.552 542.986 190.896 541.784 190.896 541.784C189.984 543.887 183.198 545.089 183.198 545.089C186.944 546.291 189.275 545.791 191.2 545.089Z" fill="#180D1D"/>
<path d="M272.5 558.739C272.399 562.105 272.501 568.356 271.285 571.241C273.108 574.125 277.06 574.125 278.276 571.241C277.06 567.875 277.364 562.586 277.364 558.739C280.708 560.662 281.619 560.662 286.179 559.22C286.179 559.22 278.58 556.816 277.364 553.45C277.364 553.45 281.923 555.373 284.355 553.45C284.355 553.45 277.668 550.084 276.756 548.161C276.756 548.161 280.708 550.565 282.835 547.68C282.835 547.68 278.58 544.795 276.452 541.429C276.452 541.429 278.884 543.353 281.012 541.429C281.012 541.429 277.364 539.987 276.148 536.621C275.54 535.179 275.54 530.851 274.932 530.851C274.324 530.851 274.324 534.698 273.716 536.621C272.805 539.506 269.157 541.429 269.157 541.429C271.893 542.872 273.412 541.429 273.412 541.429C270.981 544.795 267.029 546.238 267.029 546.238C271.285 549.122 273.108 548.161 273.108 548.161C271.892 551.046 264.902 552.488 264.902 552.488C268.853 555.373 272.197 553.45 272.197 553.45C271.285 556.816 264.499 558.739 264.499 558.739C268.245 560.662 270.575 559.861 272.5 558.739Z" fill="#180D1D"/>
<path d="M324.533 551.473C324.432 553.576 324.533 557.483 323.317 559.286C325.141 561.089 329.092 561.089 330.308 559.286C329.092 557.182 329.396 553.877 329.396 551.472C332.74 552.675 333.652 552.675 338.211 551.773C338.211 551.773 330.612 550.27 329.396 548.167C329.396 548.167 333.956 549.369 336.388 548.167C336.388 548.167 329.7 546.063 328.788 544.861C328.788 544.861 332.74 546.364 334.868 544.561C334.868 544.561 330.612 542.757 328.485 540.654C328.485 540.654 330.916 541.856 333.044 540.654C333.044 540.654 329.396 539.752 328.181 537.649C327.573 536.747 327.573 534.042 326.965 534.042C326.357 534.042 326.357 536.447 325.749 537.649C324.837 539.452 321.19 540.654 321.19 540.654C323.925 541.555 325.445 540.654 325.445 540.654C323.013 542.757 319.062 543.659 319.062 543.659C323.317 545.462 325.141 544.861 325.141 544.861C323.925 546.664 316.934 547.566 316.934 547.566C320.885 549.369 324.229 548.167 324.229 548.167C323.317 550.27 316.531 551.473 316.531 551.473C320.278 552.675 322.608 552.174 324.533 551.473Z" fill="#180D1D"/>
<path d="M466.538 553.6C466.437 555.704 466.538 559.61 465.323 561.414C467.146 563.217 471.098 563.217 472.314 561.414C471.098 559.31 471.402 556.004 471.402 553.6C474.746 554.802 475.657 554.802 480.217 553.901C480.217 553.901 472.618 552.398 471.402 550.295C471.402 550.295 475.961 551.497 478.393 550.295C478.393 550.295 471.706 548.191 470.794 546.989C470.794 546.989 474.746 548.491 476.873 546.688C476.873 546.688 472.618 544.885 470.49 542.782C470.49 542.782 472.922 543.984 475.049 542.782C475.049 542.782 471.402 541.88 470.186 539.776C469.578 538.875 469.578 536.17 468.97 536.17C468.362 536.17 468.362 538.574 467.754 539.776C466.843 541.579 463.195 542.782 463.195 542.782C465.931 543.683 467.45 542.782 467.45 542.782C465.019 544.885 461.067 545.787 461.067 545.787C465.323 547.59 467.146 546.989 467.146 546.989C465.93 548.792 458.939 549.693 458.939 549.693C462.891 551.497 466.235 550.295 466.235 550.295C465.323 552.398 458.537 553.6 458.537 553.6C462.283 554.802 464.613 554.301 466.538 553.6Z" fill="#180D1D"/>
<path d="M61.5698 506.9C61.5039 508.246 61.5698 510.746 60.7795 511.9C61.9649 513.054 64.5334 513.054 65.3237 511.9C64.5333 510.554 64.7311 508.438 64.7311 506.9C66.9044 507.669 67.4971 507.669 70.4607 507.092C70.4607 507.092 65.5214 506.13 64.7311 504.784C64.7311 504.784 67.6947 505.553 69.2753 504.784C69.2753 504.784 64.9285 503.438 64.3358 502.669C64.3358 502.669 66.9044 503.63 68.2874 502.476C68.2874 502.476 65.5214 501.322 64.1383 499.976C64.1383 499.976 65.7189 500.745 67.102 499.976C67.102 499.976 64.7311 499.399 63.9408 498.053C63.5456 497.476 63.5456 495.745 63.1505 495.745C62.7553 495.745 62.7553 497.283 62.3602 498.053C61.7674 499.207 59.3965 499.976 59.3965 499.976C61.1747 500.553 62.1626 499.976 62.1626 499.976C60.582 501.322 58.0135 501.899 58.0135 501.899C60.7796 503.053 61.9649 502.669 61.9649 502.669C61.1745 503.823 56.6305 504.4 56.6305 504.4C59.1989 505.553 61.3723 504.784 61.3723 504.784C60.7796 506.131 56.3686 506.9 56.3686 506.9C58.8037 507.669 60.3185 507.349 61.5698 506.9Z" fill="#180D1D"/>
<path d="M112.518 519.666C112.452 521.012 112.518 523.512 111.728 524.666C112.913 525.82 115.482 525.82 116.272 524.666C115.482 523.32 115.68 521.204 115.68 519.666C117.853 520.435 118.446 520.435 121.409 519.858C121.409 519.858 116.47 518.896 115.68 517.55C115.68 517.55 118.643 518.319 120.224 517.55C120.224 517.55 115.877 516.204 115.284 515.434C115.284 515.434 117.853 516.396 119.236 515.242C119.236 515.242 116.47 514.088 115.087 512.742C115.087 512.742 116.667 513.511 118.05 512.742C118.05 512.742 115.68 512.165 114.889 510.818C114.494 510.241 114.494 508.51 114.099 508.51C113.704 508.51 113.704 510.049 113.309 510.818C112.716 511.972 110.345 512.742 110.345 512.742C112.123 513.319 113.111 512.742 113.111 512.742C111.53 514.088 108.962 514.665 108.962 514.665C111.728 515.819 112.913 515.434 112.913 515.434C112.123 516.588 107.579 517.165 107.579 517.165C110.147 518.319 112.321 517.55 112.321 517.55C111.728 518.896 107.317 519.666 107.317 519.666C109.752 520.435 111.267 520.114 112.518 519.666Z" fill="#180D1D"/>
<path d="M104.93 512.219C104.864 513.565 104.93 516.066 104.14 517.22C105.325 518.373 107.894 518.373 108.684 517.22C107.894 515.873 108.091 513.758 108.091 512.219C110.265 512.988 110.858 512.988 113.821 512.411C113.821 512.411 108.882 511.45 108.091 510.103C108.091 510.103 111.055 510.873 112.636 510.103C112.636 510.103 108.289 508.757 107.696 507.988C107.696 507.988 110.265 508.949 111.648 507.795C111.648 507.795 108.882 506.641 107.499 505.295C107.499 505.295 109.079 506.064 110.462 505.295C110.462 505.295 108.091 504.718 107.301 503.372C106.906 502.795 106.906 501.064 106.511 501.064C106.116 501.064 106.116 502.602 105.721 503.372C105.128 504.526 102.757 505.295 102.757 505.295C104.535 505.872 105.523 505.295 105.523 505.295C103.942 506.641 101.374 507.218 101.374 507.218C104.14 508.372 105.325 507.988 105.325 507.988C104.535 509.142 99.9909 509.719 99.9909 509.719C102.559 510.873 104.733 510.103 104.733 510.103C104.14 511.45 99.729 512.219 99.729 512.219C102.164 512.988 103.679 512.668 104.93 512.219Z" fill="#180D1D"/>
<path d="M150.459 554.772C150.393 556.118 150.459 558.619 149.668 559.773C150.854 560.927 153.422 560.927 154.213 559.773C153.422 558.426 153.62 556.311 153.62 554.772C155.793 555.541 156.386 555.541 159.35 554.964C159.35 554.964 154.41 554.003 153.62 552.657C153.62 552.657 156.584 553.426 158.164 552.657C158.164 552.657 153.817 551.31 153.225 550.541C153.225 550.541 155.793 551.503 157.176 550.349C157.176 550.349 154.41 549.195 153.027 547.848C153.027 547.848 154.608 548.618 155.991 547.848C155.991 547.848 153.62 547.271 152.83 545.925C152.434 545.348 152.434 543.617 152.039 543.617C151.644 543.617 151.644 545.156 151.249 545.925C150.656 547.079 148.285 547.848 148.285 547.848C150.064 548.425 151.051 547.848 151.051 547.848C149.471 549.195 146.902 549.772 146.902 549.772C149.668 550.926 150.854 550.541 150.854 550.541C150.063 551.695 145.519 552.272 145.519 552.272C148.088 553.426 150.261 552.657 150.261 552.657C149.668 554.003 145.257 554.772 145.257 554.772C147.693 555.541 149.207 555.221 150.459 554.772Z" fill="#180D1D"/>
<path d="M370.513 565.411C370.447 566.757 370.513 569.257 369.723 570.411C370.908 571.565 373.476 571.565 374.267 570.411C373.476 569.065 373.674 566.949 373.674 565.411C375.847 566.18 376.44 566.18 379.404 565.603C379.404 565.603 374.464 564.641 373.674 563.295C373.674 563.295 376.638 564.064 378.218 563.295C378.218 563.295 373.872 561.949 373.279 561.179C373.279 561.179 375.847 562.141 377.23 560.987C377.23 560.987 374.464 559.833 373.081 558.487C373.081 558.487 374.662 559.256 376.045 558.487C376.045 558.487 373.674 557.91 372.884 556.563C372.489 555.986 372.489 554.255 372.094 554.255C371.698 554.255 371.698 555.794 371.303 556.563C370.71 557.717 368.34 558.487 368.34 558.487C370.118 559.064 371.106 558.487 371.106 558.487C369.525 559.833 366.957 560.41 366.957 560.41C369.723 561.564 370.908 561.179 370.908 561.179C370.118 562.333 365.574 562.91 365.574 562.91C368.142 564.064 370.315 563.295 370.315 563.295C369.723 564.641 365.312 565.411 365.312 565.411C367.747 566.18 369.262 565.859 370.513 565.411Z" fill="#180D1D"/>
<path d="M429.049 544.134C428.984 545.48 429.049 547.981 428.259 549.135C429.445 550.289 432.013 550.289 432.803 549.135C432.013 547.788 432.211 545.673 432.211 544.134C434.384 544.903 434.977 544.903 437.94 544.326C437.94 544.326 433.001 543.365 432.211 542.018C432.211 542.018 435.174 542.788 436.755 542.018C436.755 542.018 432.408 540.672 431.815 539.903C431.815 539.903 434.384 540.864 435.767 539.71C435.767 539.71 433.001 538.556 431.618 537.21C431.618 537.21 433.199 537.979 434.582 537.21C434.582 537.21 432.211 536.633 431.42 535.287C431.025 534.71 431.025 532.979 430.63 532.979C430.235 532.979 430.235 534.517 429.84 535.287C429.247 536.441 426.876 537.21 426.876 537.21C428.654 537.787 429.642 537.21 429.642 537.21C428.062 538.556 425.493 539.133 425.493 539.133C428.259 540.287 429.445 539.903 429.445 539.903C428.654 541.057 424.11 541.634 424.11 541.634C426.679 542.788 428.852 542.018 428.852 542.018C428.259 543.365 423.848 544.134 423.848 544.134C426.283 544.903 427.798 544.583 429.049 544.134Z" fill="#180D1D"/>
<path d="M543.955 507.964C543.889 509.31 543.955 511.81 543.164 512.964C544.35 514.118 546.918 514.118 547.709 512.964C546.918 511.618 547.116 509.502 547.116 507.964C549.289 508.733 549.882 508.733 552.846 508.156C552.846 508.156 547.906 507.194 547.116 505.848C547.116 505.848 550.08 506.617 551.66 505.848C551.66 505.848 547.313 504.502 546.721 503.732C546.721 503.732 549.289 504.694 550.672 503.54C550.672 503.54 547.906 502.386 546.523 501.04C546.523 501.04 548.104 501.809 549.487 501.04C549.487 501.04 547.116 500.463 546.326 499.116C545.93 498.539 545.93 496.808 545.535 496.808C545.14 496.808 545.14 498.347 544.745 499.116C544.152 500.27 541.781 501.04 541.781 501.04C543.56 501.617 544.547 501.04 544.547 501.04C542.967 502.386 540.398 502.963 540.398 502.963C543.164 504.117 544.35 503.732 544.35 503.732C543.559 504.886 539.015 505.463 539.015 505.463C541.584 506.617 543.757 505.848 543.757 505.848C543.164 507.194 538.753 507.964 538.753 507.964C541.189 508.733 542.703 508.412 543.955 507.964Z" fill="#180D1D"/>
<path d="M553.711 504.772C553.645 506.118 553.711 508.619 552.92 509.773C554.106 510.927 556.674 510.927 557.465 509.773C556.674 508.426 556.872 506.311 556.872 504.772C559.045 505.541 559.638 505.541 562.602 504.964C562.602 504.964 557.662 504.003 556.872 502.657C556.872 502.657 559.836 503.426 561.416 502.657C561.416 502.657 557.069 501.31 556.477 500.541C556.477 500.541 559.045 501.503 560.428 500.349C560.428 500.349 557.662 499.195 556.279 497.848C556.279 497.848 557.86 498.618 559.243 497.848C559.243 497.848 556.872 497.271 556.082 495.925C555.687 495.348 555.687 493.617 555.291 493.617C554.896 493.617 554.896 495.156 554.501 495.925C553.908 497.079 551.537 497.848 551.537 497.848C553.316 498.425 554.304 497.848 554.304 497.848C552.723 499.195 550.154 499.772 550.154 499.772C552.92 500.926 554.106 500.541 554.106 500.541C553.315 501.695 548.771 502.272 548.771 502.272C551.34 503.426 553.513 502.657 553.513 502.657C552.92 504.003 548.51 504.772 548.51 504.772C550.945 505.541 552.459 505.221 553.711 504.772Z" fill="#180D1D"/>
<path d="M636.095 547.325C636.03 548.672 636.095 551.172 635.305 552.326C636.491 553.48 639.059 553.48 639.849 552.326C639.059 550.98 639.257 548.864 639.257 547.325C641.43 548.095 642.023 548.095 644.986 547.518C644.986 547.518 640.047 546.556 639.257 545.21C639.257 545.21 642.22 545.979 643.801 545.21C643.801 545.21 639.454 543.863 638.861 543.094C638.861 543.094 641.43 544.056 642.813 542.902C642.813 542.902 640.047 541.748 638.664 540.401C638.664 540.401 640.245 541.171 641.628 540.401C641.628 540.401 639.257 539.824 638.466 538.478C638.071 537.901 638.071 536.17 637.676 536.17C637.281 536.17 637.281 537.709 636.886 538.478C636.293 539.632 633.922 540.401 633.922 540.401C635.7 540.978 636.688 540.401 636.688 540.401C635.108 541.748 632.539 542.325 632.539 542.325C635.305 543.479 636.491 543.094 636.491 543.094C635.7 544.248 631.156 544.825 631.156 544.825C633.725 545.979 635.898 545.21 635.898 545.21C635.305 546.556 630.894 547.325 630.894 547.325C633.329 548.095 634.844 547.774 636.095 547.325Z" fill="#180D1D"/>
<path d="M622.003 551.364C621.938 554.225 622.003 559.538 621.213 561.991C622.399 564.443 624.967 564.443 625.757 561.991C624.967 559.13 625.165 554.634 625.165 551.364C627.338 552.999 627.931 552.999 630.894 551.773C630.894 551.773 625.955 549.729 625.165 546.869C625.165 546.869 628.128 548.503 629.709 546.869C629.709 546.869 625.362 544.008 624.769 542.373C624.769 542.373 627.338 544.416 628.721 541.964C628.721 541.964 625.955 539.512 624.572 536.651C624.572 536.651 626.153 538.286 627.536 536.651C627.536 536.651 625.165 535.425 624.374 532.564C623.979 531.338 623.979 527.659 623.584 527.659C623.189 527.659 623.189 530.929 622.794 532.564C622.201 535.016 619.83 536.651 619.83 536.651C621.608 537.877 622.596 536.651 622.596 536.651C621.016 539.512 618.447 540.738 618.447 540.738C621.213 543.19 622.399 542.373 622.399 542.373C621.608 544.825 617.064 546.051 617.064 546.051C619.633 548.503 621.806 546.869 621.806 546.869C621.213 549.729 616.802 551.364 616.802 551.364C619.237 552.999 620.752 552.318 622.003 551.364Z" fill="#180D1D"/>
<path d="M732.573 572.641C732.507 575.502 732.573 580.815 731.782 583.267C732.968 585.719 735.536 585.719 736.326 583.267C735.536 580.406 735.734 575.91 735.734 572.641C737.907 574.276 738.5 574.276 741.463 573.049C741.463 573.049 736.524 571.006 735.734 568.145C735.734 568.145 738.697 569.78 740.278 568.145C740.278 568.145 735.931 565.284 735.339 563.649C735.339 563.649 737.907 565.693 739.29 563.241C739.29 563.241 736.524 560.788 735.141 557.927C735.141 557.927 736.722 559.562 738.105 557.927C738.105 557.927 735.734 556.701 734.944 553.84C734.548 552.614 734.548 548.936 734.153 548.936C733.758 548.936 733.758 552.206 733.363 553.84C732.77 556.293 730.399 557.927 730.399 557.927C732.177 559.154 733.165 557.927 733.165 557.927C731.585 560.788 729.016 562.015 729.016 562.015C731.782 564.467 732.968 563.649 732.968 563.649C732.177 566.102 727.633 567.328 727.633 567.328C730.202 569.78 732.375 568.145 732.375 568.145C731.782 571.006 727.371 572.641 727.371 572.641C729.806 574.276 731.321 573.595 732.573 572.641Z" fill="#180D1D"/>
<path d="M753.169 546.045C753.103 548.906 753.169 554.219 752.378 556.671C753.564 559.124 756.132 559.124 756.923 556.671C756.132 553.81 756.33 549.315 756.33 546.045C758.503 547.68 759.096 547.68 762.06 546.454C762.06 546.454 757.12 544.41 756.33 541.549C756.33 541.549 759.294 543.184 760.874 541.549C760.874 541.549 756.527 538.689 755.935 537.054C755.935 537.054 758.503 539.097 759.886 536.645C759.886 536.645 757.12 534.193 755.737 531.332C755.737 531.332 757.318 532.967 758.701 531.332C758.701 531.332 756.33 530.106 755.54 527.245C755.145 526.019 755.145 522.34 754.749 522.34C754.354 522.34 754.354 525.61 753.959 527.245C753.366 529.697 750.995 531.332 750.995 531.332C752.774 532.558 753.762 531.332 753.762 531.332C752.181 534.193 749.612 535.419 749.612 535.419C752.379 537.871 753.564 537.054 753.564 537.054C752.773 539.506 748.229 540.732 748.229 540.732C750.798 543.184 752.971 541.549 752.971 541.549C752.379 544.41 747.968 546.045 747.968 546.045C750.403 547.68 751.917 546.999 753.169 546.045Z" fill="#180D1D"/>
<path d="M780.385 525.279C780.304 527.046 780.385 530.328 779.413 531.843C780.872 533.357 784.033 533.357 785.005 531.843C784.033 530.076 784.276 527.299 784.276 525.279C786.951 526.289 787.68 526.289 791.328 525.532C791.328 525.532 785.249 524.27 784.276 522.503C784.276 522.503 787.924 523.512 789.869 522.503C789.869 522.503 784.519 520.736 783.79 519.726C783.79 519.726 786.951 520.988 788.653 519.473C788.653 519.473 785.249 517.959 783.547 516.192C783.547 516.192 785.492 517.201 787.194 516.192C787.194 516.192 784.276 515.434 783.303 513.667C782.817 512.91 782.817 510.638 782.331 510.638C781.844 510.638 781.844 512.658 781.358 513.667C780.628 515.182 777.71 516.192 777.71 516.192C779.899 516.949 781.115 516.192 781.115 516.192C779.169 517.959 776.008 518.716 776.008 518.716C779.413 520.231 780.872 519.726 780.872 519.726C779.899 521.24 774.306 521.998 774.306 521.998C777.467 523.512 780.142 522.503 780.142 522.503C779.413 524.27 773.984 525.279 773.984 525.279C776.981 526.289 778.845 525.868 780.385 525.279Z" fill="#180D1D"/>
<path d="M537.45 504.772C537.385 506.118 537.45 508.619 536.66 509.773C537.846 510.927 540.414 510.927 541.204 509.773C540.414 508.426 540.612 506.311 540.612 504.772C542.785 505.541 543.378 505.541 546.341 504.964C546.341 504.964 541.402 504.003 540.612 502.657C540.612 502.657 543.575 503.426 545.156 502.657C545.156 502.657 540.809 501.31 540.216 500.541C540.216 500.541 542.785 501.503 544.168 500.349C544.168 500.349 541.402 499.195 540.019 497.848C540.019 497.848 541.6 498.618 542.983 497.848C542.983 497.848 540.612 497.271 539.821 495.925C539.426 495.348 539.426 493.617 539.031 493.617C538.636 493.617 538.636 495.156 538.241 495.925C537.648 497.079 535.277 497.848 535.277 497.848C537.055 498.425 538.043 497.848 538.043 497.848C536.463 499.195 533.894 499.772 533.894 499.772C536.66 500.926 537.846 500.541 537.846 500.541C537.055 501.695 532.511 502.272 532.511 502.272C535.08 503.426 537.253 502.657 537.253 502.657C536.66 504.003 532.249 504.772 532.249 504.772C534.684 505.541 536.199 505.221 537.45 504.772Z" fill="#180D1D"/>
<path d="M308.724 549.453C308.658 550.799 308.724 553.3 307.934 554.454C309.119 555.608 311.688 555.608 312.478 554.454C311.688 553.107 311.886 550.992 311.886 549.453C314.059 550.222 314.652 550.222 317.615 549.645C317.615 549.645 312.676 548.684 311.886 547.337C311.886 547.337 314.849 548.107 316.43 547.337C316.43 547.337 312.083 545.991 311.49 545.222C311.49 545.222 314.059 546.183 315.442 545.029C315.442 545.029 312.676 543.875 311.293 542.529C311.293 542.529 312.873 543.298 314.256 542.529C314.256 542.529 311.886 541.952 311.095 540.606C310.7 540.029 310.7 538.298 310.305 538.298C309.91 538.298 309.91 539.836 309.515 540.606C308.922 541.76 306.551 542.529 306.551 542.529C308.329 543.106 309.317 542.529 309.317 542.529C307.736 543.875 305.168 544.452 305.168 544.452C307.934 545.606 309.119 545.222 309.119 545.222C308.329 546.376 303.785 546.953 303.785 546.953C306.353 548.107 308.527 547.337 308.527 547.337C307.934 548.684 303.523 549.453 303.523 549.453C305.958 550.222 307.473 549.902 308.724 549.453Z" fill="#180D1D"/>
<path d="M681.172 563.175C681.071 565.278 681.173 569.185 679.957 570.988C681.78 572.791 685.732 572.791 686.948 570.988C685.732 568.884 686.036 565.579 686.036 563.175C689.38 564.377 690.291 564.377 694.851 563.475C694.851 563.475 687.252 561.973 686.036 559.869C686.036 559.869 690.595 561.071 693.027 559.869C693.027 559.869 686.34 557.765 685.428 556.563C685.428 556.563 689.38 558.066 691.507 556.263C691.507 556.263 687.252 554.46 685.124 552.356C685.124 552.356 687.556 553.558 689.684 552.356C689.684 552.356 686.036 551.454 684.82 549.351C684.212 548.449 684.212 545.745 683.604 545.745C682.996 545.745 682.996 548.149 682.388 549.351C681.477 551.154 677.829 552.356 677.829 552.356C680.565 553.258 682.084 552.356 682.084 552.356C679.653 554.46 675.701 555.361 675.701 555.361C679.957 557.164 681.78 556.563 681.78 556.563C680.564 558.366 673.574 559.268 673.574 559.268C677.525 561.071 680.869 559.869 680.869 559.869C679.957 561.973 673.171 563.175 673.171 563.175C676.917 564.377 679.247 563.876 681.172 563.175Z" fill="#180D1D"/>
</g>
<defs>
<linearGradient id="paint0_linear_149_41" x1="400" y1="0" x2="400" y2="600" gradientUnits="userSpaceOnUse">
<stop offset="0.0001" stop-color="#4E4E4E"/>
<stop offset="1" stop-color="#00E0FF"/>
</linearGradient>
<linearGradient id="paint1_linear_149_41" x1="403.252" y1="0" x2="403.252" y2="455.319" gradientUnits="userSpaceOnUse">
<stop offset="0.00520833" stop-color="#D9D9D9"/>
<stop offset="1" stop-color="#D9D9D9" stop-opacity="0"/>
</linearGradient>
<radialGradient id="paint2_radial_149_41" cx="0" cy="0" r="1" gradientUnits="userSpaceOnUse" gradientTransform="translate(376.152 598.936) rotate(-90) scale(471.809 774.319)">
<stop stop-color="#12CFFF"/>
<stop offset="0.885022" stop-color="#332347"/>
</radialGradient>
<radialGradient id="paint3_radial_149_41" cx="0" cy="0" r="1" gradientUnits="userSpaceOnUse" gradientTransform="translate(430.894 574.468) rotate(-90) scale(271.808 1193.06)">
<stop offset="0.153771" stop-color="#6755B0"/>
<stop offset="0.834697" stop-color="#160032"/>
</radialGradient>
<linearGradient id="paint4_linear_149_41" x1="399.458" y1="332.979" x2="399.458" y2="587.234" gradientUnits="userSpaceOnUse">
<stop stop-color="#110028"/>
<stop offset="1" stop-color="#2F1751" stop-opacity="0"/>
</linearGradient>
<linearGradient id="paint5_linear_149_41" x1="255.735" y1="478.931" x2="287.065" y2="478.902" gradientUnits="userSpaceOnUse">
<stop stop-color="#DDDBA6" stop-opacity="0.7"/>
<stop offset="1" stop-color="white" stop-opacity="0"/>
</linearGradient>
<linearGradient id="paint6_linear_149_41" x1="212.374" y1="489.387" x2="243.704" y2="489.354" gradientUnits="userSpaceOnUse">
<stop stop-color="#DDDBA6" stop-opacity="0.7"/>
<stop offset="1" stop-color="white" stop-opacity="0"/>
</linearGradient>
<linearGradient id="paint7_linear_149_41" x1="293.649" y1="489.387" x2="333.683" y2="489.333" gradientUnits="userSpaceOnUse">
<stop stop-color="#DDDBA6" stop-opacity="0.7"/>
<stop offset="1" stop-color="white" stop-opacity="0"/>
</linearGradient>
<linearGradient id="paint8_linear_149_41" x1="357.465" y1="514.988" x2="445.362" y2="514.544" gradientUnits="userSpaceOnUse">
<stop stop-color="#DDDBA6" stop-opacity="0.7"/>
<stop offset="1" stop-color="white" stop-opacity="0"/>
</linearGradient>
<linearGradient id="paint9_linear_149_41" x1="692.601" y1="493.84" x2="720.45" y2="493.807" gradientUnits="userSpaceOnUse">
<stop stop-color="#DDDBA6" stop-opacity="0.7"/>
<stop offset="1" stop-color="white" stop-opacity="0"/>
</linearGradient>
<linearGradient id="paint10_linear_149_41" x1="420.821" y1="501.322" x2="528.735" y2="500.811" gradientUnits="userSpaceOnUse">
<stop stop-color="#DDDBA6" stop-opacity="0.7"/>
<stop offset="1" stop-color="white" stop-opacity="0"/>
</linearGradient>
<linearGradient id="paint11_linear_149_41" x1="403.794" y1="389.362" x2="403.794" y2="568.085" gradientUnits="userSpaceOnUse">
<stop offset="0.0001" stop-color="#7D709B" stop-opacity="0"/>
<stop offset="1" stop-color="#1B9FCC"/>
</linearGradient>
<radialGradient id="paint12_radial_149_41" cx="0" cy="0" r="1" gradientUnits="userSpaceOnUse" gradientTransform="translate(400 345.213) rotate(90) scale(396.808 1037.66)">
<stop stop-color="#0E0E0E"/>
<stop offset="0.895833" stop-color="#511192"/>
</radialGradient>
<linearGradient id="paint13_linear_149_41" x1="424.932" y1="365.958" x2="424.932" y2="584.043" gradientUnits="userSpaceOnUse">
<stop stop-color="#D9D9D9"/>
<stop offset="1" stop-color="#D9D9D9" stop-opacity="0"/>
</linearGradient>
<radialGradient id="paint14_radial_149_41" cx="0" cy="0" r="1" gradientUnits="userSpaceOnUse" gradientTransform="translate(406.504 -104.255) rotate(90) scale(477.66 1186.85)">
<stop stop-color="#70006B"/>
<stop offset="0.637696" stop-color="#791275" stop-opacity="0.25"/>
<stop offset="0.817708" stop-color="#D9D9D9" stop-opacity="0"/>
</radialGradient>
<clipPath id="clip0_149_41">
<rect width="800" height="600" fill="white"/>
</clipPath>
</defs>
</svg>
