<svg width="800" height="600" viewBox="0 0 800 600" fill="none" xmlns="http://www.w3.org/2000/svg">
<g clip-path="url(#clip0_121_5)">
<rect width="800" height="600" fill="url(#paint0_linear_121_5)"/>
<path d="M616.26 145.049C539.512 125.475 470.461 311.361 445.528 406.751C421.138 488.83 300.271 358.511 206.504 375.532C112.737 392.553 85.0948 442.553 74.2547 470.213C65.5827 492.34 -30.8943 509.574 -78.0488 515.425L-42.8184 641.489L926.287 621.808V504.092C913.821 348.773 712.195 169.517 616.26 145.049Z" fill="#304282"/>
<path d="M468.835 220.213C411.491 210.526 384.824 104.255 204.878 436.17C142.873 526.383 1.26468 301.419 -61.7886 177.66V600.532H837.94L803.794 515.426C787.173 456.56 745.257 338.191 710.569 335.638C667.209 332.447 679.675 418.085 611.382 409.042C543.089 400 601.084 242.553 468.835 220.213Z" fill="#4363A2"/>
<path d="M390.244 407.447C343.089 388.83 349.593 371.809 248.78 462.766C215.718 491.999 174.526 501.596 165.312 554.255C157.94 596.383 15.1761 571.809 -55.2846 554.255V688.298H837.398L826.558 564.894C800.361 537.589 824.824 503.936 815.718 487.766C804.336 467.553 674.255 428.723 631.436 448.936C588.618 469.149 604.336 430.319 539.837 407.447C475.339 384.575 437.398 426.064 390.244 407.447Z" fill="#6C8FD3"/>
<g filter="url(#filter0_d_121_5)">
<g filter="url(#filter1_d_121_5)">
<path d="M62.6558 43.4041L66.1247 29.7871L69.5935 43.4041L83.4688 46.8084L69.5935 50.2126L66.1247 63.8297L62.6558 50.2126L48.7805 46.8084L62.6558 43.4041Z" fill="white"/>
</g>
<path d="M135.502 192.751L140.571 191.611L136.645 194.958L137.806 199.931L134.397 196.079L129.329 197.219L133.254 193.873L132.093 188.899L135.502 192.751Z" fill="#D9D9D9" fill-opacity="0.5"/>
<path d="M236.248 166.358L238.742 164.064L237.642 167.24L239.979 169.688L236.743 168.608L234.249 170.902L235.349 167.726L233.012 165.278L236.248 166.358Z" fill="#D9D9D9" fill-opacity="0.5"/>
<path d="M398.006 163.168L402.363 162.189L398.989 165.065L399.987 169.34L397.056 166.029L392.699 167.009L396.074 164.132L395.075 159.857L398.006 163.168Z" fill="#D9D9D9" fill-opacity="0.5"/>
<path d="M203.067 289.982L205.167 287.139L204.678 290.618L207.575 292.678L204.03 292.198L201.931 295.041L202.42 291.563L199.523 289.502L203.067 289.982Z" fill="#D9D9D9" fill-opacity="0.5"/>
<path d="M122.808 278.896L124.558 277.286L123.786 279.515L125.426 281.232L123.155 280.474L121.405 282.084L122.177 279.855L120.537 278.138L122.808 278.896Z" fill="#D9D9D9" fill-opacity="0.5"/>
<path d="M44.0446 203.466L45.6344 200.915L45.4552 203.9L48.0554 205.461L45.013 205.285L43.4232 207.836L43.6024 204.851L41.0022 203.29L44.0446 203.466Z" fill="#D9D9D9" fill-opacity="0.5"/>
<path d="M423.532 87.0059L425.186 86.6521L423.896 87.7281L424.257 89.3511L423.161 88.0855L421.507 88.4393L422.796 87.3633L422.436 85.7403L423.532 87.0059Z" fill="#D9D9D9" fill-opacity="0.5"/>
<path d="M95.1744 357.109L103.236 356.529L96.4011 360.764L96.9923 368.676L92.6769 361.968L84.6152 362.548L91.4502 358.313L90.859 350.402L95.1744 357.109Z" fill="#D9D9D9" fill-opacity="0.5"/>
<path d="M536.192 139.676L543.079 139.166L537.248 142.797L537.768 149.555L534.068 143.832L527.182 144.343L533.013 140.712L532.492 133.954L536.192 139.676Z" fill="#D9D9D9" fill-opacity="0.5"/>
<path d="M99.8031 85.4705L101.84 85.0124L100.262 86.3575L100.729 88.3568L99.3586 86.8083L97.3214 87.2664L98.8993 85.9213L98.4325 83.9219L99.8031 85.4705Z" fill="#D9D9D9" fill-opacity="0.5"/>
<path d="M765.896 206.454L768.964 202.285L768.256 207.38L772.504 210.391L767.312 209.696L764.244 213.866L764.952 208.77L760.703 205.759L765.896 206.454Z" fill="#D9D9D9" fill-opacity="0.5"/>
<path d="M206.119 82.9816L209.706 79.6824L208.123 84.25L211.485 87.77L206.831 86.2167L203.244 89.5159L204.827 84.9483L201.465 81.4282L206.119 82.9816Z" fill="#D9D9D9" fill-opacity="0.75"/>
<path d="M546.176 60.8331L550.633 60.5025L546.859 62.8525L547.196 67.2263L544.801 63.5226L540.344 63.8532L544.118 61.5033L543.782 57.1295L546.176 60.8331Z" fill="#D9D9D9" fill-opacity="0.75"/>
<path d="M713.025 85.2788L716.484 82.5004L714.765 86.5491L717.596 89.9432L713.47 88.2559L710.012 91.0343L711.731 86.9855L708.9 83.5914L713.025 85.2788Z" fill="#D9D9D9" fill-opacity="0.75"/>
<path d="M331.522 54.8046L335.929 51.2643L333.738 56.4233L337.345 60.7482L332.089 58.5982L327.682 62.1384L329.873 56.9794L326.265 52.6546L331.522 54.8046Z" fill="#D9D9D9" fill-opacity="0.75"/>
<path d="M735.081 163.399L737.701 162.809L735.672 164.539L736.272 167.11L734.51 165.119L731.89 165.708L733.919 163.978L733.319 161.407L735.081 163.399Z" fill="#D9D9D9" fill-opacity="0.75"/>
</g>
<path d="M277.507 507.447C173.984 527.128 50.4065 495.213 -22.7642 455.319V638.298L828.184 627.128L841.734 493.085C831.978 492.021 805.528 490.532 777.778 493.085C743.089 496.277 669.377 479.787 624.932 475.532C580.488 471.277 381.03 487.766 277.507 507.447Z" fill="#89E087" fill-opacity="0.83"/>
<path d="M444.986 532.979C448.78 518.617 497.019 531.915 617.886 521.809C632.159 523.759 660.054 532.66 657.453 552.66C654.2 577.66 617.886 560.106 584.824 552.66C551.761 545.213 441.192 547.341 444.986 532.979Z" fill="#23A758"/>
<path d="M113.821 547.872C82.3848 533.511 60.1626 539.894 31.4363 527.128C29.6296 525.355 24.3902 522.872 17.8861 527.128C9.75606 532.447 4.33601 561.17 17.8861 563.83C31.4363 566.489 23.3062 558.511 64.4986 573.404C105.691 588.298 145.257 562.234 113.821 547.872Z" fill="#23A758"/>
<path d="M391.188 443.617C396.483 459.206 407.03 490.023 392.356 491.439V494.681H390.188V491.439C375.506 490.023 385.893 459.206 391.188 443.617Z" fill="#013300"/>
<path d="M421.051 452.127C429.405 467.716 446.047 498.534 422.894 499.949V503.191H419.473V499.949C396.307 498.534 412.696 467.716 421.051 452.127Z" fill="#013300"/>
<path d="M454.144 410.638C459.491 436.295 470.142 487.015 455.324 489.345V494.681H453.135V489.345C438.309 487.015 448.798 436.295 454.144 410.638Z" fill="#013300"/>
<path d="M209.074 477.659C214.369 493.248 224.916 524.066 210.242 525.481V528.723H208.074V525.481C193.392 524.066 203.78 493.248 209.074 477.659Z" fill="#013300"/>
<path d="M249.266 486.17C254.613 504.357 265.264 540.311 250.446 541.962V545.745H248.257V541.962C233.431 540.311 243.92 504.357 249.266 486.17Z" fill="#013300"/>
<path d="M367.955 481.915C374.304 497.504 386.952 528.321 369.356 529.737V532.979H366.756V529.737C349.15 528.321 361.606 497.504 367.955 481.915Z" fill="#013300"/>
<path d="M297.487 494.681C304.505 514.167 318.484 552.688 299.035 554.458V558.51H296.162V554.458C276.703 552.689 290.47 514.167 297.487 494.681Z" fill="#013300"/>
<path d="M192.38 507.447C195.388 515.891 201.379 532.583 193.044 533.35V535.106H191.812V533.35C183.473 532.584 189.373 515.891 192.38 507.447Z" fill="#013300"/>
<path d="M174.505 553.191C176.51 559.037 180.504 570.594 174.947 571.125V572.34H174.126V571.125C168.566 570.594 172.5 559.037 174.505 553.191Z" fill="#013300"/>
<path d="M182.624 550C185.632 558.444 191.623 575.137 183.288 575.903V577.66H182.056V575.903C173.717 575.137 179.617 558.444 182.624 550Z" fill="#013300"/>
<path d="M197.8 554.255C200.808 560.101 206.799 571.657 198.464 572.188V573.404H197.232V572.188C188.893 571.658 194.793 560.101 197.8 554.255Z" fill="#013300"/>
<path d="M32.4782 475.532C36.4882 483.976 44.4763 500.668 33.3628 501.435V503.191H31.7209V501.435C20.6014 500.669 28.4682 483.976 32.4782 475.532Z" fill="#013300"/>
<path d="M50.8994 469.149C55.5778 482.14 64.8972 507.821 51.9314 509V511.702H50.0159V509C37.0431 507.821 46.221 482.14 50.8994 469.149Z" fill="#013300"/>
<path d="M21.1066 493.617C24.1141 502.061 30.1052 518.754 21.77 519.52V521.277H20.5386V519.52C12.199 518.754 18.099 502.061 21.1066 493.617Z" fill="#013300"/>
<path d="M224.348 517.021C228.358 527.089 236.346 546.992 225.233 547.906V550H223.591V547.906C212.471 546.992 220.338 527.089 224.348 517.021Z" fill="#013300"/>
<path d="M684.521 481.915C687.529 490.359 693.52 507.051 685.185 507.818V509.574H683.953V507.818C675.614 507.052 681.514 490.359 684.521 481.915Z" fill="#013300"/>
<path d="M706.187 477.659C710.532 486.103 719.185 502.796 707.146 503.563V505.319H705.367V503.563C693.321 502.796 701.843 486.103 706.187 477.659Z" fill="#013300"/>
<path d="M695.914 507.447C697.919 512.318 701.913 521.949 696.356 522.391V523.404H695.535V522.391C689.975 521.949 693.909 512.318 695.914 507.447Z" fill="#013300"/>
<path d="M726.784 469.149C731.128 481.49 739.782 505.887 727.742 507.008V509.574H725.963V507.008C713.917 505.887 722.439 481.49 726.784 469.149Z" fill="#013300"/>
<path d="M738.722 495.745C741.729 504.189 747.72 520.881 739.385 521.648V523.404H738.154V521.648C729.814 520.881 735.714 504.189 738.722 495.745Z" fill="#013300"/>
<path d="M716.482 519.149C721.16 527.593 730.48 544.286 717.514 545.052V546.809H715.599V545.052C702.626 544.286 711.804 527.593 716.482 519.149Z" fill="#013300"/>
<path d="M601.272 536.414C601.272 536.414 601.877 534.634 601.877 535.228C601.877 535.821 601.877 535.821 602.481 536.414H601.272Z" fill="black"/>
<path d="M605.505 535.228C605.505 535.821 605.505 535.821 604.9 536.414H606.11C606.11 536.414 605.505 534.634 605.505 535.228Z" fill="black"/>
<path d="M603.691 544.722C600.002 544.722 600.001 542.349 600.001 539.975C600.001 537.852 600.001 537.601 600.001 537.601C599.591 536.81 599.017 535.228 600.001 535.228C600.985 535.228 601.231 535.623 601.231 536.414C601.231 536.414 602.461 536.019 603.691 536.019C604.921 536.019 606.151 536.414 606.151 536.414C606.151 535.623 606.396 535.228 607.38 535.228C608.364 535.228 607.79 536.81 607.38 537.601C607.38 537.601 607.38 537.852 607.38 539.975C607.38 542.349 607.38 544.722 603.691 544.722Z" fill="black"/>
<path d="M624.292 541.199C624.292 538.04 621.072 536.46 614.634 536.46C608.196 536.46 604.977 538.04 604.977 541.199C604.977 544.359 608.196 545.938 614.634 545.938C621.072 545.938 624.292 544.359 624.292 541.199Z" fill="black"/>
<path d="M611.875 550C613.254 550 613.254 544.584 613.254 544.584H610.495C610.495 544.584 610.495 550 611.875 550Z" fill="black"/>
<path d="M620.153 550C618.773 550 618.773 544.584 618.773 544.584H621.532C621.532 544.584 621.532 550 620.153 550Z" fill="black"/>
<path d="M610.495 543.23H607.736C607.736 543.23 607.736 548.646 609.115 548.646C610.495 548.646 610.495 543.23 610.495 543.23Z" fill="black"/>
<path d="M618.773 543.23H616.014C616.014 543.23 616.014 548.646 617.393 548.646C618.773 548.646 618.773 543.23 618.773 543.23Z" fill="black"/>
<path d="M625.671 539.168C624.981 539.168 624.291 537.814 622.912 539.168C621.532 540.522 621.532 541.199 622.912 539.845C624.291 538.491 624.981 539.845 625.671 539.845C626.361 539.845 627.051 541.199 627.051 540.522C627.051 539.845 626.361 539.168 625.671 539.168Z" fill="black"/>
</g>
<defs>
<filter id="filter0_d_121_5" x="36.0022" y="24.7871" width="741.502" height="348.889" filterUnits="userSpaceOnUse" color-interpolation-filters="sRGB">
<feFlood flood-opacity="0" result="BackgroundImageFix"/>
<feColorMatrix in="SourceAlpha" type="matrix" values="0 0 0 0 0 0 0 0 0 0 0 0 0 0 0 0 0 0 127 0" result="hardAlpha"/>
<feOffset/>
<feGaussianBlur stdDeviation="2.5"/>
<feComposite in2="hardAlpha" operator="out"/>
<feColorMatrix type="matrix" values="0 0 0 0 1 0 0 0 0 1 0 0 0 0 1 0 0 0 0.5 0"/>
<feBlend mode="normal" in2="BackgroundImageFix" result="effect1_dropShadow_121_5"/>
<feBlend mode="normal" in="SourceGraphic" in2="effect1_dropShadow_121_5" result="shape"/>
</filter>
<filter id="filter1_d_121_5" x="41.7805" y="22.7871" width="48.6883" height="48.0425" filterUnits="userSpaceOnUse" color-interpolation-filters="sRGB">
<feFlood flood-opacity="0" result="BackgroundImageFix"/>
<feColorMatrix in="SourceAlpha" type="matrix" values="0 0 0 0 0 0 0 0 0 0 0 0 0 0 0 0 0 0 127 0" result="hardAlpha"/>
<feOffset/>
<feGaussianBlur stdDeviation="3.5"/>
<feComposite in2="hardAlpha" operator="out"/>
<feColorMatrix type="matrix" values="0 0 0 0 1 0 0 0 0 1 0 0 0 0 1 0 0 0 1 0"/>
<feBlend mode="normal" in2="BackgroundImageFix" result="effect1_dropShadow_121_5"/>
<feBlend mode="normal" in="SourceGraphic" in2="effect1_dropShadow_121_5" result="shape"/>
</filter>
<linearGradient id="paint0_linear_121_5" x1="400" y1="0" x2="400" y2="600" gradientUnits="userSpaceOnUse">
<stop stop-color="white" stop-opacity="0"/>
<stop offset="0.0001" stop-color="#0B0D40"/>
<stop offset="1" stop-color="#0090CD"/>
</linearGradient>
<clipPath id="clip0_121_5">
<rect width="800" height="600" fill="white"/>
</clipPath>
</defs>
</svg>
