<svg width="800" height="600" viewBox="0 0 800 600" fill="none" xmlns="http://www.w3.org/2000/svg">
<g clip-path="url(#clip0_123_96)">
<rect width="800" height="600" fill="url(#paint0_linear_123_96)"/>
<g filter="url(#filter0_d_123_96)">
<ellipse cx="400" cy="360.638" rx="110.569" ry="108.511" fill="url(#paint1_radial_123_96)"/>
</g>
<g filter="url(#filter1_d_123_96)">
<path d="M135.501 353.191L-8.67209 365.425V621.808L812.466 627.128V245.745L781.03 184.042L723.035 178.191L676.423 302.128H628.184L592.412 206.915L577.778 114.894L523.035 93.6169L484.011 128.191H463.415L430.894 373.404L298.645 381.383L274.255 287.766L226.558 276.596L209.756 233.511H171.274L135.501 353.191Z" fill="url(#paint2_linear_123_96)"/>
</g>
<g filter="url(#filter2_d_123_96)">
<path d="M48.7805 435.638L-9.7561 445.745L-36.8564 435.638V645.745L821.138 660.106V457.979L793.496 412.234H769.648L755.014 445.745L729.539 478.191L668.835 445.745L602.71 457.979L577.236 426.596L545.257 445.745L524.661 488.298L483.469 478.191L389.702 522.34L308.401 478.191L287.805 426.596L269.377 404.255L245.528 412.234L237.398 378.191L212.466 389.362L203.252 445.745L156.098 465.957L108.401 435.638L102.439 404.255L68.2927 389.362L48.7805 435.638Z" fill="url(#paint3_linear_123_96)"/>
</g>
<path d="M-17.3442 482.979L109.485 478.586V442.553C105.691 442.553 98.103 434.042 94.8509 428.191C90.4464 420.267 88.8889 386.702 91.0569 380.319C93.2031 374 96.6576 376.241 99.187 378.723C101.716 381.206 99.4038 414.255 102.439 420.213C105.474 426.17 108.401 427.837 109.485 426.596C108.943 406.915 110.027 364.894 118.699 364.894C127.371 364.894 125.926 404.255 124.119 423.936V448.404C125.926 450.354 128.672 453.085 133.875 448.404C140.379 442.553 131.707 417.553 140.379 417.553C145.799 417.553 145.799 438.298 143.631 451.596C142.591 457.979 132.249 464.539 124.119 465.425V478.079L351.22 470.213L373.442 495.745L417.344 498.696V482.447C413.911 481.206 406.287 477.872 403.252 474.468C399.458 470.213 403.252 437.766 410.298 438.298C417.344 438.83 410.298 463.83 412.466 469.149C414.201 473.404 416.441 474.468 417.344 474.468C417.886 466.667 420.054 451.276 424.39 452.128C428.726 452.979 429.449 460.993 429.268 464.894C431.436 465.248 436.531 464.574 439.566 459.042C443.36 452.128 438.482 442.021 443.36 442.021C448.238 442.021 448.78 460.638 446.07 464.894C443.902 468.298 433.966 472.695 429.268 474.468V499.497L610.84 511.702L620.596 495.745L702.981 482.634V433.511C703.342 414.184 705.583 375.638 711.653 376.064C717.724 376.489 718.157 405.319 717.615 419.681C722.493 420.745 733.117 420.425 736.585 410.638C740.921 398.404 738.211 356.915 744.173 357.447C748.943 357.872 748.69 390.603 747.967 406.915C752.304 406.56 761.626 404.362 764.228 398.404C767.48 390.957 758.266 376.064 764.228 376.064C770.19 376.064 776.152 398.404 771.274 402.659C767.371 406.064 754.11 413.652 747.967 417.021C747.425 418.794 745.366 422.872 741.463 425C737.561 427.128 723.939 429.078 717.615 429.787V480.305L781.03 470.213L846.07 482.979V626.596L-17.3442 619.681V482.979Z" fill="#400808"/>
<g filter="url(#filter3_d_123_96)">
<path fill-rule="evenodd" clip-rule="evenodd" d="M99.5229 41.7647C94.1348 36.9664 86.9817 34.0426 79.1328 34.0426C62.3697 34.0426 48.7805 47.3788 48.7805 63.8299C48.7805 69.5842 50.4431 74.9574 53.3226 79.5121C47.2032 74.0625 43.3604 66.1951 43.3604 57.4469C43.3604 40.9959 56.9496 27.6597 73.7127 27.6597C84.6124 27.6597 94.1702 33.298 99.5229 41.7647Z" fill="white"/>
</g>
</g>
<defs>
<filter id="filter0_d_123_96" x="200.431" y="163.128" width="399.138" height="395.021" filterUnits="userSpaceOnUse" color-interpolation-filters="sRGB">
<feFlood flood-opacity="0" result="BackgroundImageFix"/>
<feColorMatrix in="SourceAlpha" type="matrix" values="0 0 0 0 0 0 0 0 0 0 0 0 0 0 0 0 0 0 127 0" result="hardAlpha"/>
<feOffset/>
<feGaussianBlur stdDeviation="44.5"/>
<feComposite in2="hardAlpha" operator="out"/>
<feColorMatrix type="matrix" values="0 0 0 0 0.98 0 0 0 0 1 0 0 0 0 0 0 0 0 1 0"/>
<feBlend mode="normal" in2="BackgroundImageFix" result="effect1_dropShadow_123_96"/>
<feBlend mode="normal" in="SourceGraphic" in2="effect1_dropShadow_123_96" result="shape"/>
</filter>
<filter id="filter1_d_123_96" x="-14.6721" y="87.6169" width="833.138" height="545.511" filterUnits="userSpaceOnUse" color-interpolation-filters="sRGB">
<feFlood flood-opacity="0" result="BackgroundImageFix"/>
<feColorMatrix in="SourceAlpha" type="matrix" values="0 0 0 0 0 0 0 0 0 0 0 0 0 0 0 0 0 0 127 0" result="hardAlpha"/>
<feOffset/>
<feGaussianBlur stdDeviation="3"/>
<feComposite in2="hardAlpha" operator="out"/>
<feColorMatrix type="matrix" values="0 0 0 0 0.180392 0 0 0 0 0.0117647 0 0 0 0 0 0 0 0 1 0"/>
<feBlend mode="normal" in2="BackgroundImageFix" result="effect1_dropShadow_123_96"/>
<feBlend mode="normal" in="SourceGraphic" in2="effect1_dropShadow_123_96" result="shape"/>
</filter>
<filter id="filter2_d_123_96" x="-40.8564" y="374.191" width="865.995" height="289.915" filterUnits="userSpaceOnUse" color-interpolation-filters="sRGB">
<feFlood flood-opacity="0" result="BackgroundImageFix"/>
<feColorMatrix in="SourceAlpha" type="matrix" values="0 0 0 0 0 0 0 0 0 0 0 0 0 0 0 0 0 0 127 0" result="hardAlpha"/>
<feOffset/>
<feGaussianBlur stdDeviation="2"/>
<feComposite in2="hardAlpha" operator="out"/>
<feColorMatrix type="matrix" values="0 0 0 0 0.317647 0 0 0 0 0.0196078 0 0 0 0 0.0823529 0 0 0 1 0"/>
<feBlend mode="normal" in2="BackgroundImageFix" result="effect1_dropShadow_123_96"/>
<feBlend mode="normal" in="SourceGraphic" in2="effect1_dropShadow_123_96" result="shape"/>
</filter>
<filter id="filter3_d_123_96" x="39.3604" y="23.6597" width="64.1625" height="59.8523" filterUnits="userSpaceOnUse" color-interpolation-filters="sRGB">
<feFlood flood-opacity="0" result="BackgroundImageFix"/>
<feColorMatrix in="SourceAlpha" type="matrix" values="0 0 0 0 0 0 0 0 0 0 0 0 0 0 0 0 0 0 127 0" result="hardAlpha"/>
<feOffset/>
<feGaussianBlur stdDeviation="2"/>
<feComposite in2="hardAlpha" operator="out"/>
<feColorMatrix type="matrix" values="0 0 0 0 1 0 0 0 0 1 0 0 0 0 1 0 0 0 1 0"/>
<feBlend mode="normal" in2="BackgroundImageFix" result="effect1_dropShadow_123_96"/>
<feBlend mode="normal" in="SourceGraphic" in2="effect1_dropShadow_123_96" result="shape"/>
</filter>
<linearGradient id="paint0_linear_123_96" x1="400" y1="0" x2="400" y2="600" gradientUnits="userSpaceOnUse">
<stop offset="0.0001" stop-color="#A32700"/>
<stop offset="1" stop-color="#FFF500"/>
</linearGradient>
<radialGradient id="paint1_radial_123_96" cx="0" cy="0" r="1" gradientUnits="userSpaceOnUse" gradientTransform="translate(400 360.638) rotate(90) scale(108.511 110.569)">
<stop offset="0.00520833" stop-color="white"/>
<stop offset="0.427083" stop-color="#FFFB92"/>
<stop offset="1" stop-color="#FFA800"/>
</radialGradient>
<linearGradient id="paint2_linear_123_96" x1="401.897" y1="93.6169" x2="401.897" y2="627.128" gradientUnits="userSpaceOnUse">
<stop stop-color="#2B0000"/>
<stop offset="1" stop-color="#F47C0D"/>
</linearGradient>
<linearGradient id="paint3_linear_123_96" x1="392.141" y1="378.191" x2="392.141" y2="660.106" gradientUnits="userSpaceOnUse">
<stop stop-color="#4F0416"/>
<stop offset="0.869792" stop-color="#BE5B00"/>
</linearGradient>
<clipPath id="clip0_123_96">
<rect width="800" height="600" fill="white"/>
</clipPath>
</defs>
</svg>
