<svg width="90" height="91" viewBox="0 0 90 91" fill="none" xmlns="http://www.w3.org/2000/svg">
<circle cx="45" cy="45.2458" r="44" fill="#31313B" stroke="url(#paint0_angular_401_25877)" stroke-width="2"/>
<path d="M45.2117 21.1182L45.2278 21.1255L45.244 21.1324L64.6194 29.3538L64.6213 29.3546C66.3786 30.0974 67.6536 31.8147 67.6463 33.8517C67.5959 43.8157 63.4868 61.7536 46.5198 69.8777L46.5196 69.8778C45.2109 70.5047 43.6914 70.5047 42.3827 69.8778L42.3825 69.8777C25.4157 61.7537 21.3065 43.8161 21.256 33.852C21.2486 31.8149 22.5236 30.0975 24.281 29.3546L24.2826 29.3539L43.6683 21.1325L43.691 21.1228L43.7133 21.1125C43.933 21.0107 44.1906 20.9531 44.4512 20.9531C44.7093 20.9531 44.972 21.0098 45.2117 21.1182Z" fill="#F2F5EA" stroke="#2446DB" stroke-width="3"/>
<path d="M44.7006 52.5527C43.9806 52.5527 43.3966 52.5287 42.9486 52.4807C42.5006 52.4327 42.0286 52.3287 41.5326 52.1687C40.9886 51.9927 40.5566 51.7607 40.2366 51.4727C39.9166 51.1847 39.6446 50.7687 39.4206 50.2247C39.1966 49.6487 39.0846 48.9927 39.0846 48.2567V41.0087C39.0846 40.2407 39.2126 39.5607 39.4686 38.9687C39.7406 38.3607 40.0846 37.8967 40.5006 37.5767C40.8526 37.3047 41.3246 37.0807 41.9166 36.9047C42.5086 36.7127 43.0846 36.5927 43.6446 36.5447C44.2526 36.5127 44.8046 36.4967 45.3006 36.4967C45.9886 36.4967 47.4286 36.5767 49.6206 36.7367V39.3047C47.4606 39.0487 45.9166 38.9207 44.9886 38.9207C44.2206 38.9207 43.6766 38.9607 43.3566 39.0407C43.0366 39.1207 42.8206 39.2807 42.7086 39.5207C42.6126 39.7447 42.5646 40.1527 42.5646 40.7447V42.5927H45.1326C45.9966 42.5927 46.6206 42.6087 47.0046 42.6407C47.3886 42.6567 47.8206 42.7287 48.3006 42.8567C48.8126 42.9847 49.1886 43.1687 49.4286 43.4087C49.6846 43.6327 49.9086 43.9767 50.1006 44.4407C50.2766 44.9207 50.3646 45.4887 50.3646 46.1447V48.2567C50.3646 48.9927 50.2526 49.6407 50.0286 50.2007C49.8046 50.7447 49.5166 51.1687 49.1646 51.4727C48.8446 51.7607 48.4206 51.9927 47.8926 52.1687C47.3806 52.3447 46.8686 52.4487 46.3566 52.4807C45.9086 52.5287 45.3566 52.5527 44.7006 52.5527ZM44.7486 50.2247C45.4526 50.2247 45.9406 50.1847 46.2126 50.1047C46.5006 50.0247 46.6846 49.8727 46.7646 49.6487C46.8446 49.4087 46.8846 49.0007 46.8846 48.4247V46.1687C46.8846 45.7847 46.8366 45.5127 46.7406 45.3527C46.6446 45.1767 46.4446 45.0567 46.1406 44.9927C45.8526 44.9287 45.3806 44.8967 44.7246 44.8967H42.5646V48.4487C42.5646 48.9927 42.6046 49.3847 42.6846 49.6247C42.7806 49.8647 42.9726 50.0247 43.2606 50.1047C43.5646 50.1847 44.0606 50.2247 44.7486 50.2247Z" fill="#1A1A27"/>
<circle cx="78.5834" cy="54.454" r="5.41667" fill="#2446DB"/>
<circle cx="11.4167" cy="54.454" r="5.41667" fill="#D9D9D9"/>
<circle cx="20.6248" cy="69.621" r="5.41667" fill="#D9D9D9"/>
<circle cx="11.4167" cy="36.0378" r="5.41667" fill="#D9D9D9"/>
<circle cx="20.6248" cy="20.8708" r="5.41667" fill="#D9D9D9"/>
<circle cx="35.7919" cy="11.6625" r="5.41667" fill="#D9D9D9"/>
<circle cx="54.2082" cy="11.6625" r="5.41667" fill="#2446DB"/>
<circle cx="69.3752" cy="20.8708" r="5.41667" fill="#2446DB"/>
<circle cx="78.5834" cy="36.0378" r="5.41667" fill="#2446DB"/>
<circle cx="69.3752" cy="69.621" r="5.41667" fill="#2446DB"/>
<circle cx="54.2082" cy="78.8293" r="5.41667" fill="#2446DB"/>
<circle cx="35.7919" cy="78.8293" r="5.41667" fill="#D9D9D9"/>
<defs>
<radialGradient id="paint0_angular_401_25877" cx="0" cy="0" r="1" gradientUnits="userSpaceOnUse" gradientTransform="translate(45 45.2458) scale(45)">
<stop offset="0.248708" stop-color="#2446DB"/>
<stop offset="0.250405" stop-color="#D9D9D9"/>
<stop offset="0.749113" stop-color="#D9D9D9"/>
<stop offset="0.750157" stop-color="#2446DB"/>
</radialGradient>
</defs>
</svg>
