<svg width="538" height="52" viewBox="0 0 538 52" fill="none" xmlns="http://www.w3.org/2000/svg">
<path d="M399 20.2458L390.34 35.2458H407.66L399 20.2458ZM529 20.2458L520.34 35.2458H537.66L529 20.2458ZM269 20.2458L260.34 35.2458H277.66L269 20.2458ZM139 20.2458L130.34 35.2458H147.66L139 20.2458ZM9 0.24585L0.339746 15.2458H17.6603L9 0.24585ZM7.5 10.2458V16.9125H10.5V10.2458H7.5ZM7.5 23.5792V30.2458H10.5V23.5792H7.5ZM7.5 36.9125V40.2458H10.5V36.9125H7.5ZM7.5 40.2458C7.5 41.8024 7.81007 43.2903 8.37322 44.6483L11.1444 43.4991C10.7297 42.499 10.5 41.4011 10.5 40.2458H7.5ZM14.5975 50.8726C15.9556 51.4358 17.4435 51.7458 19 51.7458V48.7458C17.8447 48.7458 16.7468 48.5162 15.7467 48.1015L14.5975 50.8726ZM19 51.7458H22V48.7458H19V51.7458ZM28 51.7458H34V48.7458H28V51.7458ZM40 51.7458H46V48.7458H40V51.7458ZM52 51.7458H58V48.7458H52V51.7458ZM64 51.7458H70V48.7458H64V51.7458ZM76 51.7458H82V48.7458H76V51.7458ZM88 51.7458H94V48.7458H88V51.7458ZM100 51.7458H106V48.7458H100V51.7458ZM112 51.7458H118V48.7458H112V51.7458ZM124 51.7458H130V48.7458H124V51.7458ZM136 51.7458H139V48.7458H136V51.7458ZM139 51.7458H141.955V48.7458H139V51.7458ZM147.864 51.7458H153.773V48.7458H147.864V51.7458ZM159.682 51.7458H165.591V48.7458H159.682V51.7458ZM171.5 51.7458H177.409V48.7458H171.5V51.7458ZM183.318 51.7458H189.227V48.7458H183.318V51.7458ZM195.136 51.7458H201.045V48.7458H195.136V51.7458ZM206.955 51.7458H212.864V48.7458H206.955V51.7458ZM218.773 51.7458H224.682V48.7458H218.773V51.7458ZM230.591 51.7458H236.5V48.7458H230.591V51.7458ZM242.409 51.7458H248.318V48.7458H242.409V51.7458ZM254.227 51.7458H260.136V48.7458H254.227V51.7458ZM266.045 51.7458H269V48.7458H266.045V51.7458ZM137.5 27.7458V32.7458H140.5V27.7458H137.5ZM137.5 37.7458V42.7458H140.5V37.7458H137.5ZM137.5 47.7458V50.2458H140.5V47.7458H137.5ZM269 51.7458H271.955V48.7458H269V51.7458ZM277.864 51.7458H283.773V48.7458H277.864V51.7458ZM289.682 51.7458H295.591V48.7458H289.682V51.7458ZM301.5 51.7458H307.409V48.7458H301.5V51.7458ZM313.318 51.7458H319.227V48.7458H313.318V51.7458ZM325.136 51.7458H331.045V48.7458H325.136V51.7458ZM336.955 51.7458H342.864V48.7458H336.955V51.7458ZM348.773 51.7458H354.682V48.7458H348.773V51.7458ZM360.591 51.7458H366.5V48.7458H360.591V51.7458ZM372.409 51.7458H378.318V48.7458H372.409V51.7458ZM384.227 51.7458H390.136V48.7458H384.227V51.7458ZM396.045 51.7458H399V48.7458H396.045V51.7458ZM267.5 27.7458V32.7458H270.5V27.7458H267.5ZM267.5 37.7458V42.7458H270.5V37.7458H267.5ZM267.5 47.7458V50.2458H270.5V47.7458H267.5ZM399 51.7458H402V48.7458H399V51.7458ZM408 51.7458H414V48.7458H408V51.7458ZM420 51.7458H426V48.7458H420V51.7458ZM432 51.7458H438V48.7458H432V51.7458ZM444 51.7458H450V48.7458H444V51.7458ZM456 51.7458H462V48.7458H456V51.7458ZM468 51.7458H474V48.7458H468V51.7458ZM480 51.7458H486V48.7458H480V51.7458ZM492 51.7458H498V48.7458H492V51.7458ZM504 51.7458H510V48.7458H504V51.7458ZM516 51.7458H519V48.7458H516V51.7458ZM519 51.7458C520.557 51.7458 522.044 51.4358 523.402 50.8726L522.253 48.1015C521.253 48.5162 520.155 48.7458 519 48.7458V51.7458ZM529.627 44.6483C530.19 43.2903 530.5 41.8024 530.5 40.2458H527.5C527.5 41.4011 527.27 42.499 526.856 43.4991L529.627 44.6483ZM530.5 40.2458V37.7458H527.5V40.2458H530.5ZM530.5 32.7458V27.7458H527.5V32.7458H530.5ZM397.5 27.7458V32.7458H400.5V27.7458H397.5ZM397.5 37.7458V42.7458H400.5V37.7458H397.5ZM397.5 47.7458V50.2458H400.5V47.7458H397.5Z" fill="#F2F5EA"/>
</svg>
